<svg version="1.1" viewBox="0.0 0.0 6000.0 1000.0" fill="none" stroke="none" stroke-linecap="square" stroke-miterlimit="10" xmlns:xlink="http://www.w3.org/1999/xlink" xmlns="http://www.w3.org/2000/svg"><clipPath id="g4629c736bd_0_36.0"><path d="m0 0l6000.0 0l0 1000.0l-6000.0 0l0 -1000.0z" clip-rule="nonzero"/></clipPath><g clip-path="url(#g4629c736bd_0_36.0)"><path fill="#000000" fill-opacity="0.0" d="m0 0l6000.0 0l0 1000.0l-6000.0 0z" fill-rule="evenodd"/><path fill="#000000" fill-opacity="0.0" d="m797.7953 0l5202.2046 0l0 1000.0l-5202.2046 0z" fill-rule="evenodd"/><path fill="#073763" d="m1017.95154 446.65625q0 -19.03125 -10.828125 -30.09375q-10.8125 -11.078125 -30.015625 -11.078125q-16.28125 0 -27.109375 11.390625q-10.8125 11.390625 -10.8125 28.484375l-29.796875 0q0 -29.125 19.375 -47.359375q19.375 -18.234375 48.34375 -18.234375q33.6875 0 52.234375 17.90625q18.5625 17.90625 18.5625 49.484375q0 16.4375 -8.625 29.953125q-8.625 13.5 -23.765625 21.3125q35.3125 14.15625 35.3125 55.5q0 32.21875 -20.265625 50.78125q-20.25 18.546875 -53.453125 18.546875q-14.328125 0 -27.59375 -4.625q-13.265625 -4.640625 -23.1875 -14.09375q-19.859375 -18.703125 -19.859375 -50.28125l29.78125 0q0 18.546875 11.46875 31.078125q11.484375 12.53125 29.390625 12.53125q20.015625 0 31.96875 -11.796875q11.96875 -11.796875 11.96875 -31.484375q0 -41.34375 -39.546875 -42.484375l-24.40625 0l0 -25.71875l22.296875 0q18.875 0 28.71875 -10.25q9.84375 -10.25 9.84375 -29.46875zm183.42957 111.5l-80.078125 0l-18.390625 61.84375l-30.59375 0l76.328125 -236.96875l25.5625 0l76.484375 236.96875l-30.59375 0l-18.71875 -61.84375zm-72.265625 -25.71875l64.625 0l-32.390625 -107.75l-32.234375 107.75zm382.48145 -149.40625l0 236.96875l-29.9375 0l0 -211.26562l-66.25 0l-3.578125 99.609375q-1.953125 43.625 -8.3125 66.578125q-6.34375 22.9375 -18.546875 33.84375q-12.203125 10.90625 -32.0625 11.234375l-9.109375 0l0 -25.546875l5.53125 -0.328125q11.875 -0.984375 18.546875 -9.203125q6.6875 -8.21875 10.09375 -26.109375q3.421875 -17.90625 4.890625 -54.703125l3.90625 -121.078125l124.828125 0zm166.5033 127.4375l-83.8125 0l0 83.984375l97.65625 0l0 25.546875l-127.453125 0l0 -236.96875l125.8125 0l0 25.703125l-96.015625 0l0 76.171875l83.8125 0l0 25.5625zm105.634155 3.09375l-22.46875 0l0 106.4375l-29.78125 0l0 -236.96875l29.78125 0l0 104.484375l18.234375 0l66.7345 -104.484375l37.109375 0l-75.20325 114.578125l80.7345 122.390625l-36.453125 0l-68.68762 -106.4375zm243.64294 44.59375l-80.078125 0l-18.390625 61.84375l-30.59375 0l76.328125 -236.96875l25.5625 0l76.48425 236.96875l-30.593628 0l-18.71875 -61.84375zm-72.265625 -25.71875l64.625 0l-32.390625 -107.75l-32.234375 107.75zm183.6012 -5.203125l0 92.765625l-29.796875 0l0 -236.96875l75.53125 0q33.03125 0 51.90625 19.78125q18.890625 19.765625 18.890625 52.640625q0 34.171875 -17.984375 52.65625q-17.984375 18.46875 -50.703125 19.125l-47.84375 0zm0 -25.5625l45.734375 0q19.84375 0 30.421875 -11.875q10.59375 -11.890625 10.59375 -34.015625q0 -21.328125 -10.90625 -34.1875q-10.90625 -12.859375 -29.953125 -12.859375l-45.890625 0l0 92.9375zm278.48022 -118.640625l29.78125 0l0 236.96875l-29.78125 0l0 -182.60938l-92.296875 182.60938l-29.9375 0l0 -236.96875l29.9375 0l0 182.60938l92.296875 -182.60938z" fill-rule="nonzero"/><path fill="#073763" d="m241.88861 120.14885l-20.497742 4.316841l-19.717361 5.0970078l-18.46878 5.7731323l-16.856003 6.241226l-14.775024 6.6052856l-12.277832 6.70932l-5.0984344 3.380661l-4.318054 3.380661l-3.4336243 3.2766418l-1.4566956 1.6643372l-1.1445389 1.6123047l-1.3526459 2.2364502l-1.300621 2.6005096l-1.1965637 2.9125671l-1.1445465 3.1726227l-2.080986 7.229416l-1.7688446 8.165604l-1.4046631 8.997772l-1.0925217 9.725906l-0.6242981 10.298019l-0.20809937 10.766113l0.20809937 13.366623l0.7283478 11.338211l1.300621 9.777924l0.98846436 4.47287l1.1445465 4.2128296l1.3526459 4.0047913l1.6127625 3.9007568l1.8728867 3.796753l2.0809937 3.796753l5.1504517 7.7495117l6.3470154 8.269623l25.856277 31.830261l8.688141 11.286194l6.451065 8.94577l4.5261536 7.1773987l1.7168121 3.1206055l1.4046631 2.9645996l29.602066 32.29834l4.0579376 1.7683411l4.161972 2.1324158l4.0579224 2.340454l3.8498383 2.5484924l3.4856567 2.600525l3.069458 2.6004944l1.7168121 1.4042969l2.0289612 1.4562683l2.44516 1.4562988l2.7052917 1.4042664l6.1909485 2.7045288l7.075363 2.4964905l7.803711 2.2884521l8.271912 1.9763794l8.532074 1.6123352l8.584076 1.24823l12.485931 1.196228l9.57254 1.3002625l3.797821 0.7281494l3.225525 0.78015137l2.6012268 0.93618774l2.0809937 1.0401917l0.88442993 0.57211304l0.7283325 0.6241455l0.6242981 0.67611694l0.5202637 0.7281494l0.41619873 0.78015137l0.26010132 0.8321533l0.20809937 0.8841858l0.15609741 0.9881897l0 2.0804138l-0.36419678 2.392456l-1.3526306 5.7731323l-0.6242981 1.8723755l-0.5722656 2.2364502l-0.9364624 5.096985l-0.83239746 5.8251343l-0.6242981 6.44928l-0.67630005 13.522644l-0.05203247 6.70932l0.20809937 6.3452454l-0.1560669 8.529694l-0.98846436 9.049744l-1.8208923 9.517883l-2.5491943 9.93396l-3.3295898 10.245972l-4.0579224 10.5061035l-9.988739 21.428162l-12.3298645 21.480225l-14.358826 21.012146l-16.02362 19.86792l-17.428284 18.099548l-15.34729 15.030945l-12.121765 13.210571l-4.474121 5.4090576l-3.1214905 4.3688354l-0.98846436 1.7683716l-0.6242981 1.4042969l-0.1560669 0.5720825l-0.05203247 0.4680786l0.05203247 0.20806885l0 0.20800781l0.10404968 0.1560669l0.10404968 0.104003906l0.10404968 0.104003906l0.1560669 0l0.15608215 0.05206299l0.20809937 0l0.46821594 -0.10406494l0.5722656 -0.15600586l1.4046783 -0.57214355l1.7168121 -0.9361572l4.3700714 -2.8085327l5.514633 -4.004822l6.3470154 -5.148987l7.1273804 -6.085205l15.815521 -14.66687l39.90297 -37.7594l31.735077 17.16333l6.138916 3.5367432l5.6186523 3.4326172l4.8903503 3.2766724l4.109955 3.0686035l3.1734924 2.7045288l1.2485962 1.196228l0.9364319 1.0922241l0.6242981 0.9882202l0.26013184 0.4680786l0.10406494 0.41607666l0.052001953 0.3640747l0 0.31207275l-0.052001953 0.15600586l-0.05203247 0.15600586l-0.05203247 0.1560669l-0.104034424 0.104003906l-0.26013184 0.2600708l-0.36416626 0.15600586l-0.36419678 0.104003906l-0.46820068 0.10406494l-0.5202637 0.052001953l-0.5722656 0l-1.2485962 -0.104003906l-1.508728 -0.2600708l-1.6647644 -0.41607666l-3.8498535 -1.24823l-4.370056 -1.7683716l-4.734253 -2.2884521l-5.046417 -2.6525269l-5.150421 -3.0686035l-7.2314453 -4.5249023l-5.878784 -3.3806152l-2.4971924 -1.248291l-2.289093 -0.9361572l-1.9769287 -0.67614746l-1.8208923 -0.3640747l-0.83239746 -0.104003906l-0.83236694 0l-0.72836304 0.052001953l-0.7283325 0.104003906l-0.67633057 0.20806885l-0.67633057 0.2600708l-0.6242981 0.31201172l-0.6242981 0.41607666l-0.5722656 0.46813965l-0.5722656 0.52008057l-1.0925293 1.24823l-1.0924988 1.5603027l-1.0404968 1.7683716l-1.4046631 2.6525269l-1.0404968 2.8085327l-0.83239746 2.9125977l-0.4682312 2.9125366l-0.26013184 2.9645996l0 2.9645996l0.26013184 2.8085327l0.4682312 2.7565308l0.7283325 2.548523l0.98846436 2.392456l1.1445618 2.0803833l1.3526306 1.8723755l0.72836304 0.78015137l0.780365 0.67614746l0.8843994 0.6241455l0.88442993 0.52008057l0.88442993 0.41607666l0.98846436 0.31207275l0.98846436 0.15600586l1.0925293 0.052001953l0.36416626 0l0.36416626 -0.052001953l0.36416626 -0.104003906l0.36419678 -0.104003906l0.7283325 -0.31207275l0.67633057 -0.4680786l0.6242981 -0.57214355l0.5722656 -0.67614746l0.5722656 -0.78015137l0.5202637 -0.8841553l0.46820068 -0.9361572l0.4682312 -1.0922241l0.36416626 -1.0922241l0.3121643 -1.24823l0.20809937 -1.24823l0.20809937 -1.3522949l0.104034424 -1.3522339l0.05203247 -1.4562988l0 -1.9243774l0.1560669 -1.7163696l0.26013184 -1.4562988l0.20809937 -0.5720825l0.20809937 -0.5720825l0.26013184 -0.46813965l0.3121338 -0.41607666l0.36416626 -0.31207275l0.41619873 -0.26000977l0.41619873 -0.20806885l0.5202637 -0.104003906l0.5722656 -0.052001953l0.6242981 0l0.7283325 0.104003906l0.7803955 0.15600586l1.7167969 0.57214355l2.0809937 0.8841553l2.3411255 1.1442261l5.8267517 3.2766724l7.4395447 4.5248413l5.514618 3.640747l6.0868835 4.3688354l13.1102295 10.246033l12.90213 11.18219l5.9308167 5.5650635l5.306549 5.3050537l4.7342224 5.097046l4.422119 4.2127686l4.00589 3.3286743l1.8208618 1.3002319l1.6647949 1.0922241l1.5607605 0.8321533l1.3526306 0.6241455l1.1965637 0.3640747l0.5202637 0.052001953l0.46820068 0l0.41619873 -0.052001953l0.36419678 -0.104003906l0.3121338 -0.1560669l0.26013184 -0.26000977l0.20809937 -0.31207275l0.1560669 -0.41607666l0.10406494 -0.4680786l0.052001953 -0.5201416l-0.052001953 -0.52008057l-0.10406494 -0.57214355l-0.3121338 -1.3002319l-0.5202637 -1.5083008l-0.780365 -1.6643066l-1.9769287 -3.9007568l-2.7052917 -4.3688965l-3.225525 -4.73291l-3.7457886 -4.992981l-4.1619873 -4.992981l-4.4220886 -4.940979l-4.422119 -4.888977l-4.0579224 -4.888916l-3.5896912 -4.836975l-3.017456 -4.5769043l-2.44516 -4.2128296l-0.9364319 -1.9243774l-0.780365 -1.8203125l-0.57229614 -1.6123657l-0.41619873 -1.4562378l-0.1560669 -1.300293l0 -0.5720825l0.05203247 -0.5201416l0 -0.5720825l-0.05203247 -0.6241455l-0.104034424 -0.6240845l-0.15609741 -0.67614746l-0.5722656 -1.4562988l-0.83239746 -1.5603027l-1.0924988 -1.6643066l-1.3006287 -1.7163696l-3.2775574 -3.640686l-4.00589 -3.9007568l-4.682251 -3.9528198l-5.2024536 -4.0047607l-5.618683 -3.9527588l-5.7747498 -3.640747l-4.9943542 -3.640686l-4.21402 -3.692749l-3.4856567 -3.744751l-2.7572937 -3.796692l-1.0925293 -1.9243774l-0.9364319 -2.0284424l-0.72836304 -2.0283813l-0.52023315 -2.0803833l-0.36419678 -2.1324463l-0.1560669 -2.1844482l0.20809937 -4.5248413l0.9364624 -4.836975l1.7167969 -5.148987l2.44516 -5.5131226l3.2255554 -5.877136l3.9018555 -6.345215l10.144806 -14.094788l3.849823 -5.981201l1.6127625 -2.9645386l1.4566956 -2.9125977l1.1965637 -2.9645996l1.0404968 -3.0165405l0.88442993 -3.1206665l0.6242981 -3.1726074l0.5202637 -3.3286133l0.26010132 -3.4846802l0.10406494 -7.593506l-0.5722656 -8.477661l-1.1965942 -9.673889l-1.1445312 -10.610107l-0.20809937 -9.777924l0.26013184 -4.73291l0.5722656 -4.7849426l0.88442993 -4.7849426l1.1445312 -4.992981l3.3816223 -10.662079l4.8382874 -12.17041l14.722992 -30.998077l10.300903 -21.63623l8.375977 -19.347809l6.138916 -16.331207l3.849823 -12.690491l0.98846436 -4.73291l0.3121643 -3.5887146l-0.10406494 -1.3522644l-0.26010132 -0.9881897l-0.20809937 -0.3640747l-0.20809937 -0.31207275l-0.3121643 -0.20803833l-0.3121338 -0.104003906l-0.36416626 0l-0.41619873 0.052001953l-0.4682312 0.15603638l-0.5202637 0.26004028l-1.1445312 0.78015137l-1.3006287 1.1442261l-3.2775574 3.5887146l-4.00589 5.2530212l-3.5897217 4.7849426l-2.8093262 3.4846802l-1.1445312 1.24823l-0.9884949 0.93618774l-0.41619873 0.31207275l-0.4161682 0.31207275l-0.36419678 0.15600586l-0.36416626 0.15603638l-0.3121338 0l-0.10406494 0l-0.1560669 0l-0.10406494 -0.052001953l-0.1560669 -0.052001953l-0.20809937 -0.20803833l-0.20809937 -0.2600708l-0.1560669 -0.31204224l-0.1560669 -0.3640747l-0.10406494 -0.46810913l-0.20809937 -1.196228l-0.1560669 -1.4042664l-0.05203247 -3.6407166l0 -1.4562988l0.1560669 -1.5083008l0.5202637 -3.016571l0.780365 -2.9645996l1.0404968 -2.8605652l1.2485962 -2.6004944l0.67633057 -1.196228l0.67630005 -1.0402222l0.72836304 -0.9881897l0.7283325 -0.8321533l0.780365 -0.7281494l0.7803955 -0.5201111l0.83239746 -0.67611694l0.83236694 -0.7281494l0.72836304 -0.78015137l0.6242981 -0.8321533l0.5722656 -0.83218384l0.4682312 -0.8841553l0.36416626 -0.93618774l0.3121643 -0.8841858l0.26010132 -0.93618774l0.10406494 -0.9361572l0.052001953 -0.93618774l-0.052001953 -0.93618774l-0.10406494 -0.8841858l-0.20809937 -0.8841553l-0.36416626 -0.8841858l-0.36416626 -0.78015137l-0.5722656 -0.8321533l-0.41619873 -0.78015137l-0.36419678 -0.7281494l-0.20809937 -0.7281494l-0.1560669 -0.67614746l0 -0.624115l0.05203247 -0.57211304l0.05203247 -0.31204224l0.104034424 -0.2600708l0.10406494 -0.26004028l0.104034424 -0.20803833l0.1560669 -0.26004028l0.15609741 -0.20806885l0.20809937 -0.20803833l0.20809937 -0.15600586l0.20809937 -0.20806885l0.26010132 -0.15600586l0.5202637 -0.2600708l0.6242981 -0.15603638l0.6242981 -0.15600586l0.780365 0l0.41619873 -0.05203247l0.4682312 -0.104003906l0.98846436 -0.3640747l0.98846436 -0.67614746l1.0404968 -0.8841553l2.1329956 -2.3924866l2.1330261 -3.1726074l2.185028 -3.9527893l2.1850586 -4.47287l4.161957 -10.454041l3.693756 -11.650299l2.9654236 -12.17038l1.9769287 -11.858322l0.5202637 -5.565094l0.20809937 -5.2010193l-0.10406494 -1.8203583l-0.3121338 -1.9243774l-1.1445618 -4.1608276l-1.7688293 -4.47287l-2.44516 -4.7329254l-2.9654236 -4.888962l-3.4336243 -4.992981l-8.115845 -10.037964l-9.2604065 -9.569885l-9.936737 -8.58168l-5.098419 -3.7447357l-5.0463867 -3.22464l-4.994385 -2.7565308l-4.786255 -2.0804138l-0.9364624 -0.26005554l-0.98846436 -0.20803833l-2.3931274 -0.15602112l-2.8093567 0.20803833l-3.2775574 0.5200958l-3.693756 0.88417053l-4.109955 1.1962433l-9.416473 3.2766418l-10.873169 4.576889l-12.277832 5.7731476l-28.197388 15.134964l-22.318604 13.002548l-17.324234 11.286209l-6.9713135 5.3050537l-5.9308167 5.2010193l-4.994385 5.3050385l-4.161972 5.461075l-3.381607 5.7731323l-2.6532593 6.137207l-2.0289612 6.70932l-1.508728 7.333435l-0.98846436 8.165588l-0.6242981 8.997772l-0.41619873 21.168152l-0.20809937 5.9811707l-0.6242981 5.1490173l-1.0404968 4.3168335l-0.6763153 1.8203735l-0.7283478 1.5603027l-0.8844147 1.4042664l-0.93644714 1.196228l-1.0404968 0.93618774l-1.1445465 0.7281494l-1.1965637 0.5201111l-1.3526459 0.31204224l-1.4046631 0.104034424l-1.508728 -0.104034424l-1.56073 -0.31204224l-1.6647949 -0.57211304l-3.6417236 -1.7163391l-3.953888 -2.5484924l-4.2660217 -3.4326782l-4.578186 -4.316864l-4.89032 -5.096985l-10.717087 -12.794525l-7.179413 -9.413849l-5.7227173 -8.581665l-2.3411255 -4.056793l-2.080986 -4.056793l-1.768837 -4.1088257l-1.4566956 -4.108795l-1.2485886 -4.2648315l-1.0404968 -4.420868l-1.4566879 -9.621902l-0.7283478 -10.974152l-0.20809937 -12.79451l0.15607452 -11.18219l0.6242981 -9.881943l1.0404892 -8.58168l1.5087204 -7.4894714l0.93644714 -3.328659l1.092514 -3.0685883l1.1965714 -2.8605652l1.3526382 -2.6005096l1.4567032 -2.4444885l1.6127625 -2.1844177l1.7688446 -2.0283966l1.9249115 -1.8723755l3.4336243 -2.8605652l4.6822357 -3.1726227l12.277832 -6.709305l14.879074 -6.7613373l15.763489 -6.3452454l15.087173 -5.2530212l12.79808 -3.5366974l5.0463867 -0.93618774l3.8498383 -0.3640747l1.4046631 0.104034424l0.5722809 0.15602112l0.46821594 0.15603638l0.36416626 0.20803833l0.26013184 0.3120575l0.20809937 0.3120575l0.052017212 0.3640747l-0.10404968 1.3522644l-0.31214905 1.5083008l-1.1445312 3.380661l-1.8208771 3.848755l-2.44516 4.1608124l-6.190933 8.893753l-7.5435944 9.049774l-8.11586 8.373642l-4.0579224 3.7447357l-4.005905 3.2246246l-3.7457733 2.756546l-3.5376892 2.0283966l-1.6127625 0.7281494l-1.5087128 0.57211304l-1.4566956 0.3640747l-1.2485962 0.104019165l-3.1214905 0.15602112l-3.1735077 0.46809387l-3.069458 0.7281494l-2.9654083 0.9881897l-1.3526306 0.624115l-1.3006287 0.62413025l-1.1965637 0.72813416l-1.092514 0.7281494l-0.9884796 0.8321686l-0.83239746 0.8321533l-0.7283478 0.93618774l-0.52023315 0.93618774l-0.20809937 0.41607666l-0.15608215 0.3640747l-0.1560669 0.41607666l-0.05203247 0.41609192l-0.052017212 0.36405945l0 0.41609192l0 0.3640747l0.10404968 0.41607666l0.10404968 0.3640747l0.1560669 0.36405945l0.20809937 0.3640747l0.20809937 0.3640747l0.5722656 0.624115l0.67633057 0.62413025l0.83239746 0.624115l0.93644714 0.5201111l1.092514 0.41607666l1.1965637 0.41607666l1.3526459 0.31207275l1.4046631 0.20803833l1.508728 0.15603638l1.6647797 0.052001953l1.7688446 -0.15603638l1.9249115 -0.36405945l4.266037 -1.560318l4.78627 -2.392456l5.098419 -3.1726227l5.410568 -3.848755l5.4626007 -4.420868l10.977219 -9.93396l10.092789 -10.818115l4.4741364 -5.461075l3.9018555 -5.3050385l3.225525 -5.097l2.44516 -4.7329254l1.5607452 -4.264847l0.41619873 -1.9243774l0.15608215 -1.7683411l0.052017212 -1.5083008l0.31214905 -1.3522644l0.41619873 -1.3002472l0.6242981 -1.1442261l0.7283478 -1.0922241l0.8844147 -0.9881897l1.0404968 -0.88417053l1.1965637 -0.78015137l1.2485962 -0.6761322l1.4046631 -0.57211304l3.1214905 -0.8321686l3.4336243 -0.46809387l3.7457886 0l3.9538727 0.31207275l4.10997 0.78015137l4.161957 1.196228l4.21402 1.5603027l4.161957 1.9763947l4.109955 2.340454l3.8498535 2.808548l3.693756 3.1726227l3.069458 2.756546l3.069458 2.340454l2.965393 1.9763947l2.8093262 1.5083008l1.3006287 0.57211304l1.2485962 0.4680786l1.0925293 0.3640747l1.0404968 0.15603638l0.9364319 0.052001953l0.41619873 0l0.36416626 -0.104019165l0.36416626 -0.104019165l0.3121643 -0.104019165l0.3121338 -0.20803833l0.26013184 -0.20803833l0.1560669 -0.26005554l0.15609741 -0.3120575l0.104034424 -0.3640747l0.05203247 -0.3640747l-0.10406494 -0.9361725l-0.26010132 -1.0402069l-1.0925293 -2.4964905l-1.6647949 -2.9645844l-2.2370605 -3.22464l-2.6532593 -3.5366821l-6.242981 -7.229416l-6.815216 -6.9693756l-6.607147 -5.825142l-2.9654236 -2.1844254l-2.6532593 -1.61232l-1.1445312 -0.57211304l-1.0404968 -0.36406708l-0.9364319 -0.15603638l-0.36419678 0l-0.36416626 0.052009583l-1.3526306 0.3640747l-2.0289612 0.57211304l-5.8788147 1.3002548l-7.5955963 1.5082932l-8.375992 1.4042816zm130.26993 75.570816l-0.05203247 0.20805359l-0.05203247 0.3120575l-0.3121338 0.93618774l-1.0404968 2.964569l-3.849823 9.621902l-12.589996 28.865662l-10.404938 20.856094l-1.9769592 3.4326782l-1.8208618 2.7565308l-1.7167969 2.1324158l-0.83239746 0.8321533l-0.7803955 0.67614746l-0.780365 0.5201111l-0.83239746 0.3640442l-0.780365 0.2600708l-0.780365 0.104003906l-0.83239746 0l-0.83239746 -0.15600586l-0.83239746 -0.2600708l-0.88442993 -0.41607666l-1.8208618 -1.0922241l-2.0289612 -1.6123047l-4.630188 -4.368866l-2.913391 -3.0686035l-2.6532593 -3.3286438l-2.289093 -3.5366974l-1.9769287 -3.6927185l-1.6647949 -3.796753l-1.3526306 -3.7967377l-0.9884949 -3.6927338l-0.6242981 -3.6407013l-0.26010132 -3.4326782l0.052001953 -3.22464l0.5202637 -2.86055l0.36416626 -1.3002625l0.4682312 -1.196228l0.5722656 -1.0922241l0.7283325 -0.9881897l0.7803955 -0.8321686l0.8843994 -0.72813416l0.9884949 -0.57211304l1.0924988 -0.41607666l1.1965637 -0.26005554l1.3526611 -0.052017212l0.9364319 -0.052001953l1.0404968 -0.20803833l1.1445618 -0.3640747l1.1965637 -0.41609192l1.2485962 -0.5720978l1.3005981 -0.62413025l2.7052917 -1.61232l2.7573242 -1.9243774l2.7572937 -2.1844177l2.7052917 -2.3924713l2.6012268 -2.4964905l2.2370605 -2.184433l2.5492249 -2.0283966l2.7052917 -1.8723755l2.9133606 -1.6643219l2.913391 -1.4562836l3.017456 -1.3002625l2.9133606 -1.0401917l2.913391 -0.78015137l2.7573242 -0.57211304l2.5491943 -0.31207275l2.289093 0l1.0404968 0.104019165l0.98846436 0.15603638l0.88442993 0.26005554l0.780365 0.3640747l0.67633057 0.41607666l0.5722656 0.46809387l0.4682312 0.57211304l0.3121338 0.6761322l0.20809937 0.78015137l0.10406494 0.8321533zm-7.3355103 103.86438l-17.064087 23.196564l0 -22.36438l0.26010132 -5.3050537l0.88442993 -6.137207l1.3006287 -6.813324l1.8208618 -7.177429l2.1329956 -7.385437l2.4971924 -7.385437l2.7573242 -7.177429l2.965393 -6.709305l13.838593 -31.726227l2.44516 30.894058l0.3121338 8.061584l-0.20809937 7.5934753l-0.780365 7.177429l-1.3526306 6.761322l-2.0289612 6.4492493l-1.1965637 3.120636l-1.4046936 3.0686035l-3.2775574 5.9811707l-3.9018555 5.877136zm-95.25726 -50.65793l0.4682312 1.2482452l0.5722656 1.1442261l0.6242981 1.0922089l0.67633057 0.93618774l0.7283325 0.88417053l0.780365 0.78015137l0.83239746 0.6761322l0.7803955 0.5201111l0.8843994 0.41607666l0.83239746 0.31204224l0.88442993 0.15603638l0.88442993 0.05203247l0.4161682 -0.05203247l0.41619873 -0.104003906l0.41619873 -0.104034424l0.41619873 -0.15603638l0.41619873 -0.15600586l0.41619873 -0.20803833l0.7803955 -0.5721283l1.2485657 -0.624115l1.4566956 -0.31207275l1.508728 -0.104019165l1.6127625 0.15603638l1.7688293 0.41607666l1.8208923 0.57211304l3.7977905 1.7683411l4.0579224 2.548523l4.1619873 3.1206055l4.1619873 3.6407166l4.109955 4.160797l3.9538574 4.420868l3.693756 4.7329407l3.3816223 4.8889465l3.0174255 4.992981l2.44516 4.940979l1.8728943 4.8369446l1.1965637 4.680908l0.3121643 2.2364502l0.104034424 2.1324158l-0.26013184 5.7731323l-0.3121338 2.4444885l-0.5202637 2.1324158l-0.67630005 1.8723755l-0.41619873 0.8321533l-0.5202637 0.7281494l-0.52023315 0.7281494l-0.6242981 0.67611694l-0.72836304 0.57211304l-0.7283325 0.57211304l-1.7688293 0.93618774l-2.1330261 0.78015137l-2.44516 0.57211304l-2.8093262 0.4680786l-6.9193115 0.5201111l-8.740143 0.15603638l-6.5030823 -0.15603638l-6.4510803 -0.4680786l-6.2429504 -0.7281494l-5.8788147 -0.93618774l-5.3585205 -1.0922241l-4.6302185 -1.3522644l-1.9769287 -0.67611694l-1.7688599 -0.7281494l-1.5086975 -0.78015137l-1.1965637 -0.78015137l-1.4566956 -1.1442261l-1.3526611 -1.5083008l-1.3006134 -1.820343l-1.1965637 -2.1324158l-2.2370605 -4.992981l-1.976944 -5.9291687l-1.6647949 -6.605316l-1.3006134 -7.0733643l-1.7168121 -14.770905l-0.31214905 -7.281433l0.052017212 -7.0213623l0.41619873 -6.44928l0.83239746 -5.7211304l1.2485962 -4.8369446l0.7283478 -1.9763794l0.8844147 -1.7163391l0.9884796 -1.3522644l1.092514 -0.98820496l0.5722656 -0.36405945l0.6242981 -0.26005554l0.67633057 -0.15603638l0.6763153 -0.052001953l1.1965637 0.052001953l1.2486115 0.20803833l1.2485962 0.31207275l1.1965637 0.46809387l1.2485962 0.5200958l1.1445312 0.62413025l1.1445312 0.72813416l1.0925293 0.8321686l1.0404968 0.88417053l0.98846436 0.93618774l0.88442993 0.9881897l0.83239746 1.0402069l0.67633057 1.0402069l0.6242676 1.1442108l0.5202637 1.0922241l0.36416626 1.1442261zm-32.567474 46.341095l1.5087128 21.948303l0.7283478 21.480225l-0.1560669 18.463623l-0.5202484 7.2814026l-0.31214905 2.9645996l-0.41619873 2.5484924l-0.98846436 5.565094l-0.26013184 2.0804138l-5.670685 27.35736l0 1.196228l0.10404968 0.41607666l0.052017212 0.15603638l0.05203247 0.104034424l0.052017212 0.104003906l0.052017212 0.05203247l0.10404968 0.052001953l0.10404968 0l0.10404968 0l0.10404968 -0.052001953l0.31214905 -0.20806885l0.26013184 -0.31204224l0.36416626 -0.46810913l0.83239746 -1.24823l1.9249115 2.0804138l19.821426 -61.736115l1.6647797 -2.7045288l1.5607605 -2.2884521l1.5086975 -1.8203735l1.4046936 -1.4562683l0.7283325 -0.57211304l0.67633057 -0.46810913l0.67630005 -0.41607666l0.67633057 -0.26004028l0.67633057 -0.20803833l0.6242981 -0.104034424l0.67630005 -0.052001953l0.67633057 0.052001953l0.6242981 0.15603638l0.67633057 0.26004028l0.6242981 0.31207275l0.67630005 0.3640747l1.3526611 1.0401917l1.3526306 1.3002625l1.4046631 1.3522644l1.5607605 1.196228l1.7167969 1.0402222l1.8728943 0.8841553l2.0809937 0.7281494l2.2370605 0.5201111l2.44516 0.3640747l2.6532593 0.20803833l2.913391 0.052001953l3.173523 -0.15603638l7.1273804 -0.78015137l8.375977 -1.5083008l9.676605 -2.1844177l11.601501 -2.7565308l8.844208 -1.8203735l3.5376892 -0.4680786l2.965393 -0.2600708l2.44516 0.104034424l1.0925293 0.104034424l0.9364319 0.26004028l0.83239746 0.26004028l0.7803955 0.41607666l0.6242981 0.46810913l0.5722656 0.5201111l0.52023315 0.624115l0.41619873 0.7281494l0.36416626 0.78015137l0.26013184 0.8841553l0.41619873 2.0284119l0.26013184 2.444458l0.1560669 5.981201l-0.1560669 4.3168335l-0.3121643 5.0970154l-1.0924988 11.806305l-1.5607605 12.794495l-1.7688293 12.326416l-1.8208618 6.553314l-2.5492249 5.929138l-3.2775574 5.2530518l-3.9538574 4.524872l-4.578186 3.848755l-5.202484 3.0686035l-5.7747498 2.3924866l-6.2429504 1.6643066l-6.7111816 0.93618774l-7.127411 0.15603638l-7.439514 -0.624115l-7.803711 -1.3522644l-8.115875 -2.1844482l-8.323944 -2.964569l-8.4800415 -3.744751l-8.636093 -4.576874l-13.994644 -6.8133545l-13.006195 -5.7211304l-5.7227173 -2.2884216l-4.9943695 -1.7163391l-4.0579224 -1.0922241l-1.6647949 -0.26004028l-1.3526459 -0.104034424c0 0 -13.682495 -19.60785 -13.474396 -38.435547c0 -1.0921936 7.7516785 -25.224945 9.156342 -38.227478c0.31214905 -2.9125977 -0.1560669 -8.737732 -0.1560669 -8.737732l0.46821594 -10.766113l1.196579 -12.118378l1.7168121 -12.586456l2.3411102 -12.274414l2.8093262 -11.130188l1.4046783 -4.3168488l1.4566956 -3.2246246l0.780365 -1.2482452l0.7283478 -1.0402069l0.780365 -0.7281494l0.78038025 -0.5200958l0.41619873 -0.15603638l0.41619873 -0.104019165l0.36416626 0l0.41619873 0l0.41619873 0.052017212l0.36416626 0.15602112l0.83239746 0.46809387l0.78038025 0.6761322l0.780365 0.88417053l0.83239746 1.0922241l0.780365 1.3522644l1.5087128 3.3286438l1.508728 4.1608276l2.8613586 10.766098l2.4971771 13.782715l2.0809937 16.695282z" fill-rule="evenodd"/><path stroke="#073763" stroke-width="8.0" stroke-linejoin="round" stroke-linecap="butt" d="m241.88861 120.14885l-20.497742 4.316841l-19.717361 5.0970078l-18.46878 5.7731323l-16.856003 6.241226l-14.775024 6.6052856l-12.277832 6.70932l-5.0984344 3.380661l-4.318054 3.380661l-3.4336243 3.2766418l-1.4566956 1.6643372l-1.1445389 1.6123047l-1.3526459 2.2364502l-1.300621 2.6005096l-1.1965637 2.9125671l-1.1445465 3.1726227l-2.080986 7.229416l-1.7688446 8.165604l-1.4046631 8.997772l-1.0925217 9.725906l-0.6242981 10.298019l-0.20809937 10.766113l0.20809937 13.366623l0.7283478 11.338211l1.300621 9.777924l0.98846436 4.47287l1.1445465 4.2128296l1.3526459 4.0047913l1.6127625 3.9007568l1.8728867 3.796753l2.0809937 3.796753l5.1504517 7.7495117l6.3470154 8.269623l25.856277 31.830261l8.688141 11.286194l6.451065 8.94577l4.5261536 7.1773987l1.7168121 3.1206055l1.4046631 2.9645996l29.602066 32.29834l4.0579376 1.7683411l4.161972 2.1324158l4.0579224 2.340454l3.8498383 2.5484924l3.4856567 2.600525l3.069458 2.6004944l1.7168121 1.4042969l2.0289612 1.4562683l2.44516 1.4562988l2.7052917 1.4042664l6.1909485 2.7045288l7.075363 2.4964905l7.803711 2.2884521l8.271912 1.9763794l8.532074 1.6123352l8.584076 1.24823l12.485931 1.196228l9.57254 1.3002625l3.797821 0.7281494l3.225525 0.78015137l2.6012268 0.93618774l2.0809937 1.0401917l0.88442993 0.57211304l0.7283325 0.6241455l0.6242981 0.67611694l0.5202637 0.7281494l0.41619873 0.78015137l0.26010132 0.8321533l0.20809937 0.8841858l0.15609741 0.9881897l0 2.0804138l-0.36419678 2.392456l-1.3526306 5.7731323l-0.6242981 1.8723755l-0.5722656 2.2364502l-0.9364624 5.096985l-0.83239746 5.8251343l-0.6242981 6.44928l-0.67630005 13.522644l-0.05203247 6.70932l0.20809937 6.3452454l-0.1560669 8.529694l-0.98846436 9.049744l-1.8208923 9.517883l-2.5491943 9.93396l-3.3295898 10.245972l-4.0579224 10.5061035l-9.988739 21.428162l-12.3298645 21.480225l-14.358826 21.012146l-16.02362 19.86792l-17.428284 18.099548l-15.34729 15.030945l-12.121765 13.210571l-4.474121 5.4090576l-3.1214905 4.3688354l-0.98846436 1.7683716l-0.6242981 1.4042969l-0.1560669 0.5720825l-0.05203247 0.4680786l0.05203247 0.20806885l0 0.20800781l0.10404968 0.1560669l0.10404968 0.104003906l0.10404968 0.104003906l0.1560669 0l0.15608215 0.05206299l0.20809937 0l0.46821594 -0.10406494l0.5722656 -0.15600586l1.4046783 -0.57214355l1.7168121 -0.9361572l4.3700714 -2.8085327l5.514633 -4.004822l6.3470154 -5.148987l7.1273804 -6.085205l15.815521 -14.66687l39.90297 -37.7594l31.735077 17.16333l6.138916 3.5367432l5.6186523 3.4326172l4.8903503 3.2766724l4.109955 3.0686035l3.1734924 2.7045288l1.2485962 1.196228l0.9364319 1.0922241l0.6242981 0.9882202l0.26013184 0.4680786l0.10406494 0.41607666l0.052001953 0.3640747l0 0.31207275l-0.052001953 0.15600586l-0.05203247 0.15600586l-0.05203247 0.1560669l-0.104034424 0.104003906l-0.26013184 0.2600708l-0.36416626 0.15600586l-0.36419678 0.104003906l-0.46820068 0.10406494l-0.5202637 0.052001953l-0.5722656 0l-1.2485962 -0.104003906l-1.508728 -0.2600708l-1.6647644 -0.41607666l-3.8498535 -1.24823l-4.370056 -1.7683716l-4.734253 -2.2884521l-5.046417 -2.6525269l-5.150421 -3.0686035l-7.2314453 -4.5249023l-5.878784 -3.3806152l-2.4971924 -1.248291l-2.289093 -0.9361572l-1.9769287 -0.67614746l-1.8208923 -0.3640747l-0.83239746 -0.104003906l-0.83236694 0l-0.72836304 0.052001953l-0.7283325 0.104003906l-0.67633057 0.20806885l-0.67633057 0.2600708l-0.6242981 0.31201172l-0.6242981 0.41607666l-0.5722656 0.46813965l-0.5722656 0.52008057l-1.0925293 1.24823l-1.0924988 1.5603027l-1.0404968 1.7683716l-1.4046631 2.6525269l-1.0404968 2.8085327l-0.83239746 2.9125977l-0.4682312 2.9125366l-0.26013184 2.9645996l0 2.9645996l0.26013184 2.8085327l0.4682312 2.7565308l0.7283325 2.548523l0.98846436 2.392456l1.1445618 2.0803833l1.3526306 1.8723755l0.72836304 0.78015137l0.780365 0.67614746l0.8843994 0.6241455l0.88442993 0.52008057l0.88442993 0.41607666l0.98846436 0.31207275l0.98846436 0.15600586l1.0925293 0.052001953l0.36416626 0l0.36416626 -0.052001953l0.36416626 -0.104003906l0.36419678 -0.104003906l0.7283325 -0.31207275l0.67633057 -0.4680786l0.6242981 -0.57214355l0.5722656 -0.67614746l0.5722656 -0.78015137l0.5202637 -0.8841553l0.46820068 -0.9361572l0.4682312 -1.0922241l0.36416626 -1.0922241l0.3121643 -1.24823l0.20809937 -1.24823l0.20809937 -1.3522949l0.104034424 -1.3522339l0.05203247 -1.4562988l0 -1.9243774l0.1560669 -1.7163696l0.26013184 -1.4562988l0.20809937 -0.5720825l0.20809937 -0.5720825l0.26013184 -0.46813965l0.3121338 -0.41607666l0.36416626 -0.31207275l0.41619873 -0.26000977l0.41619873 -0.20806885l0.5202637 -0.104003906l0.5722656 -0.052001953l0.6242981 0l0.7283325 0.104003906l0.7803955 0.15600586l1.7167969 0.57214355l2.0809937 0.8841553l2.3411255 1.1442261l5.8267517 3.2766724l7.4395447 4.5248413l5.514618 3.640747l6.0868835 4.3688354l13.1102295 10.246033l12.90213 11.18219l5.9308167 5.5650635l5.306549 5.3050537l4.7342224 5.097046l4.422119 4.2127686l4.00589 3.3286743l1.8208618 1.3002319l1.6647949 1.0922241l1.5607605 0.8321533l1.3526306 0.6241455l1.1965637 0.3640747l0.5202637 0.052001953l0.46820068 0l0.41619873 -0.052001953l0.36419678 -0.104003906l0.3121338 -0.1560669l0.26013184 -0.26000977l0.20809937 -0.31207275l0.1560669 -0.41607666l0.10406494 -0.4680786l0.052001953 -0.5201416l-0.052001953 -0.52008057l-0.10406494 -0.57214355l-0.3121338 -1.3002319l-0.5202637 -1.5083008l-0.780365 -1.6643066l-1.9769287 -3.9007568l-2.7052917 -4.3688965l-3.225525 -4.73291l-3.7457886 -4.992981l-4.1619873 -4.992981l-4.4220886 -4.940979l-4.422119 -4.888977l-4.0579224 -4.888916l-3.5896912 -4.836975l-3.017456 -4.5769043l-2.44516 -4.2128296l-0.9364319 -1.9243774l-0.780365 -1.8203125l-0.57229614 -1.6123657l-0.41619873 -1.4562378l-0.1560669 -1.300293l0 -0.5720825l0.05203247 -0.5201416l0 -0.5720825l-0.05203247 -0.6241455l-0.104034424 -0.6240845l-0.15609741 -0.67614746l-0.5722656 -1.4562988l-0.83239746 -1.5603027l-1.0924988 -1.6643066l-1.3006287 -1.7163696l-3.2775574 -3.640686l-4.00589 -3.9007568l-4.682251 -3.9528198l-5.2024536 -4.0047607l-5.618683 -3.9527588l-5.7747498 -3.640747l-4.9943542 -3.640686l-4.21402 -3.692749l-3.4856567 -3.744751l-2.7572937 -3.796692l-1.0925293 -1.9243774l-0.9364319 -2.0284424l-0.72836304 -2.0283813l-0.52023315 -2.0803833l-0.36419678 -2.1324463l-0.1560669 -2.1844482l0.20809937 -4.5248413l0.9364624 -4.836975l1.7167969 -5.148987l2.44516 -5.5131226l3.2255554 -5.877136l3.9018555 -6.345215l10.144806 -14.094788l3.849823 -5.981201l1.6127625 -2.9645386l1.4566956 -2.9125977l1.1965637 -2.9645996l1.0404968 -3.0165405l0.88442993 -3.1206665l0.6242981 -3.1726074l0.5202637 -3.3286133l0.26010132 -3.4846802l0.10406494 -7.593506l-0.5722656 -8.477661l-1.1965942 -9.673889l-1.1445312 -10.610107l-0.20809937 -9.777924l0.26013184 -4.73291l0.5722656 -4.7849426l0.88442993 -4.7849426l1.1445312 -4.992981l3.3816223 -10.662079l4.8382874 -12.17041l14.722992 -30.998077l10.300903 -21.63623l8.375977 -19.347809l6.138916 -16.331207l3.849823 -12.690491l0.98846436 -4.73291l0.3121643 -3.5887146l-0.10406494 -1.3522644l-0.26010132 -0.9881897l-0.20809937 -0.3640747l-0.20809937 -0.31207275l-0.3121643 -0.20803833l-0.3121338 -0.104003906l-0.36416626 0l-0.41619873 0.052001953l-0.4682312 0.15603638l-0.5202637 0.26004028l-1.1445312 0.78015137l-1.3006287 1.1442261l-3.2775574 3.5887146l-4.00589 5.2530212l-3.5897217 4.7849426l-2.8093262 3.4846802l-1.1445312 1.24823l-0.9884949 0.93618774l-0.41619873 0.31207275l-0.4161682 0.31207275l-0.36419678 0.15600586l-0.36416626 0.15603638l-0.3121338 0l-0.10406494 0l-0.1560669 0l-0.10406494 -0.052001953l-0.1560669 -0.052001953l-0.20809937 -0.20803833l-0.20809937 -0.2600708l-0.1560669 -0.31204224l-0.1560669 -0.3640747l-0.10406494 -0.46810913l-0.20809937 -1.196228l-0.1560669 -1.4042664l-0.05203247 -3.6407166l0 -1.4562988l0.1560669 -1.5083008l0.5202637 -3.016571l0.780365 -2.9645996l1.0404968 -2.8605652l1.2485962 -2.6004944l0.67633057 -1.196228l0.67630005 -1.0402222l0.72836304 -0.9881897l0.7283325 -0.8321533l0.780365 -0.7281494l0.7803955 -0.5201111l0.83239746 -0.67611694l0.83236694 -0.7281494l0.72836304 -0.78015137l0.6242981 -0.8321533l0.5722656 -0.83218384l0.4682312 -0.8841553l0.36416626 -0.93618774l0.3121643 -0.8841858l0.26010132 -0.93618774l0.10406494 -0.9361572l0.052001953 -0.93618774l-0.052001953 -0.93618774l-0.10406494 -0.8841858l-0.20809937 -0.8841553l-0.36416626 -0.8841858l-0.36416626 -0.78015137l-0.5722656 -0.8321533l-0.41619873 -0.78015137l-0.36419678 -0.7281494l-0.20809937 -0.7281494l-0.1560669 -0.67614746l0 -0.624115l0.05203247 -0.57211304l0.05203247 -0.31204224l0.104034424 -0.2600708l0.10406494 -0.26004028l0.104034424 -0.20803833l0.1560669 -0.26004028l0.15609741 -0.20806885l0.20809937 -0.20803833l0.20809937 -0.15600586l0.20809937 -0.20806885l0.26010132 -0.15600586l0.5202637 -0.2600708l0.6242981 -0.15603638l0.6242981 -0.15600586l0.780365 0l0.41619873 -0.05203247l0.4682312 -0.104003906l0.98846436 -0.3640747l0.98846436 -0.67614746l1.0404968 -0.8841553l2.1329956 -2.3924866l2.1330261 -3.1726074l2.185028 -3.9527893l2.1850586 -4.47287l4.161957 -10.454041l3.693756 -11.650299l2.9654236 -12.17038l1.9769287 -11.858322l0.5202637 -5.565094l0.20809937 -5.2010193l-0.10406494 -1.8203583l-0.3121338 -1.9243774l-1.1445618 -4.1608276l-1.7688293 -4.47287l-2.44516 -4.7329254l-2.9654236 -4.888962l-3.4336243 -4.992981l-8.115845 -10.037964l-9.2604065 -9.569885l-9.936737 -8.58168l-5.098419 -3.7447357l-5.0463867 -3.22464l-4.994385 -2.7565308l-4.786255 -2.0804138l-0.9364624 -0.26005554l-0.98846436 -0.20803833l-2.3931274 -0.15602112l-2.8093567 0.20803833l-3.2775574 0.5200958l-3.693756 0.88417053l-4.109955 1.1962433l-9.416473 3.2766418l-10.873169 4.576889l-12.277832 5.7731476l-28.197388 15.134964l-22.318604 13.002548l-17.324234 11.286209l-6.9713135 5.3050537l-5.9308167 5.2010193l-4.994385 5.3050385l-4.161972 5.461075l-3.381607 5.7731323l-2.6532593 6.137207l-2.0289612 6.70932l-1.508728 7.333435l-0.98846436 8.165588l-0.6242981 8.997772l-0.41619873 21.168152l-0.20809937 5.9811707l-0.6242981 5.1490173l-1.0404968 4.3168335l-0.6763153 1.8203735l-0.7283478 1.5603027l-0.8844147 1.4042664l-0.93644714 1.196228l-1.0404968 0.93618774l-1.1445465 0.7281494l-1.1965637 0.5201111l-1.3526459 0.31204224l-1.4046631 0.104034424l-1.508728 -0.104034424l-1.56073 -0.31204224l-1.6647949 -0.57211304l-3.6417236 -1.7163391l-3.953888 -2.5484924l-4.2660217 -3.4326782l-4.578186 -4.316864l-4.89032 -5.096985l-10.717087 -12.794525l-7.179413 -9.413849l-5.7227173 -8.581665l-2.3411255 -4.056793l-2.080986 -4.056793l-1.768837 -4.1088257l-1.4566956 -4.108795l-1.2485886 -4.2648315l-1.0404968 -4.420868l-1.4566879 -9.621902l-0.7283478 -10.974152l-0.20809937 -12.79451l0.15607452 -11.18219l0.6242981 -9.881943l1.0404892 -8.58168l1.5087204 -7.4894714l0.93644714 -3.328659l1.092514 -3.0685883l1.1965714 -2.8605652l1.3526382 -2.6005096l1.4567032 -2.4444885l1.6127625 -2.1844177l1.7688446 -2.0283966l1.9249115 -1.8723755l3.4336243 -2.8605652l4.6822357 -3.1726227l12.277832 -6.709305l14.879074 -6.7613373l15.763489 -6.3452454l15.087173 -5.2530212l12.79808 -3.5366974l5.0463867 -0.93618774l3.8498383 -0.3640747l1.4046631 0.104034424l0.5722809 0.15602112l0.46821594 0.15603638l0.36416626 0.20803833l0.26013184 0.3120575l0.20809937 0.3120575l0.052017212 0.3640747l-0.10404968 1.3522644l-0.31214905 1.5083008l-1.1445312 3.380661l-1.8208771 3.848755l-2.44516 4.1608124l-6.190933 8.893753l-7.5435944 9.049774l-8.11586 8.373642l-4.0579224 3.7447357l-4.005905 3.2246246l-3.7457733 2.756546l-3.5376892 2.0283966l-1.6127625 0.7281494l-1.5087128 0.57211304l-1.4566956 0.3640747l-1.2485962 0.104019165l-3.1214905 0.15602112l-3.1735077 0.46809387l-3.069458 0.7281494l-2.9654083 0.9881897l-1.3526306 0.624115l-1.3006287 0.62413025l-1.1965637 0.72813416l-1.092514 0.7281494l-0.9884796 0.8321686l-0.83239746 0.8321533l-0.7283478 0.93618774l-0.52023315 0.93618774l-0.20809937 0.41607666l-0.15608215 0.3640747l-0.1560669 0.41607666l-0.05203247 0.41609192l-0.052017212 0.36405945l0 0.41609192l0 0.3640747l0.10404968 0.41607666l0.10404968 0.3640747l0.1560669 0.36405945l0.20809937 0.3640747l0.20809937 0.3640747l0.5722656 0.624115l0.67633057 0.62413025l0.83239746 0.624115l0.93644714 0.5201111l1.092514 0.41607666l1.1965637 0.41607666l1.3526459 0.31207275l1.4046631 0.20803833l1.508728 0.15603638l1.6647797 0.052001953l1.7688446 -0.15603638l1.9249115 -0.36405945l4.266037 -1.560318l4.78627 -2.392456l5.098419 -3.1726227l5.410568 -3.848755l5.4626007 -4.420868l10.977219 -9.93396l10.092789 -10.818115l4.4741364 -5.461075l3.9018555 -5.3050385l3.225525 -5.097l2.44516 -4.7329254l1.5607452 -4.264847l0.41619873 -1.9243774l0.15608215 -1.7683411l0.052017212 -1.5083008l0.31214905 -1.3522644l0.41619873 -1.3002472l0.6242981 -1.1442261l0.7283478 -1.0922241l0.8844147 -0.9881897l1.0404968 -0.88417053l1.1965637 -0.78015137l1.2485962 -0.6761322l1.4046631 -0.57211304l3.1214905 -0.8321686l3.4336243 -0.46809387l3.7457886 0l3.9538727 0.31207275l4.10997 0.78015137l4.161957 1.196228l4.21402 1.5603027l4.161957 1.9763947l4.109955 2.340454l3.8498535 2.808548l3.693756 3.1726227l3.069458 2.756546l3.069458 2.340454l2.965393 1.9763947l2.8093262 1.5083008l1.3006287 0.57211304l1.2485962 0.4680786l1.0925293 0.3640747l1.0404968 0.15603638l0.9364319 0.052001953l0.41619873 0l0.36416626 -0.104019165l0.36416626 -0.104019165l0.3121643 -0.104019165l0.3121338 -0.20803833l0.26013184 -0.20803833l0.1560669 -0.26005554l0.15609741 -0.3120575l0.104034424 -0.3640747l0.05203247 -0.3640747l-0.10406494 -0.9361725l-0.26010132 -1.0402069l-1.0925293 -2.4964905l-1.6647949 -2.9645844l-2.2370605 -3.22464l-2.6532593 -3.5366821l-6.242981 -7.229416l-6.815216 -6.9693756l-6.607147 -5.825142l-2.9654236 -2.1844254l-2.6532593 -1.61232l-1.1445312 -0.57211304l-1.0404968 -0.36406708l-0.9364319 -0.15603638l-0.36419678 0l-0.36416626 0.052009583l-1.3526306 0.3640747l-2.0289612 0.57211304l-5.8788147 1.3002548l-7.5955963 1.5082932l-8.375992 1.4042816zm130.26993 75.570816l-0.05203247 0.20805359l-0.05203247 0.3120575l-0.3121338 0.93618774l-1.0404968 2.964569l-3.849823 9.621902l-12.589996 28.865662l-10.404938 20.856094l-1.9769592 3.4326782l-1.8208618 2.7565308l-1.7167969 2.1324158l-0.83239746 0.8321533l-0.7803955 0.67614746l-0.780365 0.5201111l-0.83239746 0.3640442l-0.780365 0.2600708l-0.780365 0.104003906l-0.83239746 0l-0.83239746 -0.15600586l-0.83239746 -0.2600708l-0.88442993 -0.41607666l-1.8208618 -1.0922241l-2.0289612 -1.6123047l-4.630188 -4.368866l-2.913391 -3.0686035l-2.6532593 -3.3286438l-2.289093 -3.5366974l-1.9769287 -3.6927185l-1.6647949 -3.796753l-1.3526306 -3.7967377l-0.9884949 -3.6927338l-0.6242981 -3.6407013l-0.26010132 -3.4326782l0.052001953 -3.22464l0.5202637 -2.86055l0.36416626 -1.3002625l0.4682312 -1.196228l0.5722656 -1.0922241l0.7283325 -0.9881897l0.7803955 -0.8321686l0.8843994 -0.72813416l0.9884949 -0.57211304l1.0924988 -0.41607666l1.1965637 -0.26005554l1.3526611 -0.052017212l0.9364319 -0.052001953l1.0404968 -0.20803833l1.1445618 -0.3640747l1.1965637 -0.41609192l1.2485962 -0.5720978l1.3005981 -0.62413025l2.7052917 -1.61232l2.7573242 -1.9243774l2.7572937 -2.1844177l2.7052917 -2.3924713l2.6012268 -2.4964905l2.2370605 -2.184433l2.5492249 -2.0283966l2.7052917 -1.8723755l2.9133606 -1.6643219l2.913391 -1.4562836l3.017456 -1.3002625l2.9133606 -1.0401917l2.913391 -0.78015137l2.7573242 -0.57211304l2.5491943 -0.31207275l2.289093 0l1.0404968 0.104019165l0.98846436 0.15603638l0.88442993 0.26005554l0.780365 0.3640747l0.67633057 0.41607666l0.5722656 0.46809387l0.4682312 0.57211304l0.3121338 0.6761322l0.20809937 0.78015137l0.10406494 0.8321533zm-7.3355103 103.86438l-17.064087 23.196564l0 -22.36438l0.26010132 -5.3050537l0.88442993 -6.137207l1.3006287 -6.813324l1.8208618 -7.177429l2.1329956 -7.385437l2.4971924 -7.385437l2.7573242 -7.177429l2.965393 -6.709305l13.838593 -31.726227l2.44516 30.894058l0.3121338 8.061584l-0.20809937 7.5934753l-0.780365 7.177429l-1.3526306 6.761322l-2.0289612 6.4492493l-1.1965637 3.120636l-1.4046936 3.0686035l-3.2775574 5.9811707l-3.9018555 5.877136zm-95.25726 -50.65793l0.4682312 1.2482452l0.5722656 1.1442261l0.6242981 1.0922089l0.67633057 0.93618774l0.7283325 0.88417053l0.780365 0.78015137l0.83239746 0.6761322l0.7803955 0.5201111l0.8843994 0.41607666l0.83239746 0.31204224l0.88442993 0.15603638l0.88442993 0.05203247l0.4161682 -0.05203247l0.41619873 -0.104003906l0.41619873 -0.104034424l0.41619873 -0.15603638l0.41619873 -0.15600586l0.41619873 -0.20803833l0.7803955 -0.5721283l1.2485657 -0.624115l1.4566956 -0.31207275l1.508728 -0.104019165l1.6127625 0.15603638l1.7688293 0.41607666l1.8208923 0.57211304l3.7977905 1.7683411l4.0579224 2.548523l4.1619873 3.1206055l4.1619873 3.6407166l4.109955 4.160797l3.9538574 4.420868l3.693756 4.7329407l3.3816223 4.8889465l3.0174255 4.992981l2.44516 4.940979l1.8728943 4.8369446l1.1965637 4.680908l0.3121643 2.2364502l0.104034424 2.1324158l-0.26013184 5.7731323l-0.3121338 2.4444885l-0.5202637 2.1324158l-0.67630005 1.8723755l-0.41619873 0.8321533l-0.5202637 0.7281494l-0.52023315 0.7281494l-0.6242981 0.67611694l-0.72836304 0.57211304l-0.7283325 0.57211304l-1.7688293 0.93618774l-2.1330261 0.78015137l-2.44516 0.57211304l-2.8093262 0.4680786l-6.9193115 0.5201111l-8.740143 0.15603638l-6.5030823 -0.15603638l-6.4510803 -0.4680786l-6.2429504 -0.7281494l-5.8788147 -0.93618774l-5.3585205 -1.0922241l-4.6302185 -1.3522644l-1.9769287 -0.67611694l-1.7688599 -0.7281494l-1.5086975 -0.78015137l-1.1965637 -0.78015137l-1.4566956 -1.1442261l-1.3526611 -1.5083008l-1.3006134 -1.820343l-1.1965637 -2.1324158l-2.2370605 -4.992981l-1.976944 -5.9291687l-1.6647949 -6.605316l-1.3006134 -7.0733643l-1.7168121 -14.770905l-0.31214905 -7.281433l0.052017212 -7.0213623l0.41619873 -6.44928l0.83239746 -5.7211304l1.2485962 -4.8369446l0.7283478 -1.9763794l0.8844147 -1.7163391l0.9884796 -1.3522644l1.092514 -0.98820496l0.5722656 -0.36405945l0.6242981 -0.26005554l0.67633057 -0.15603638l0.6763153 -0.052001953l1.1965637 0.052001953l1.2486115 0.20803833l1.2485962 0.31207275l1.1965637 0.46809387l1.2485962 0.5200958l1.1445312 0.62413025l1.1445312 0.72813416l1.0925293 0.8321686l1.0404968 0.88417053l0.98846436 0.93618774l0.88442993 0.9881897l0.83239746 1.0402069l0.67633057 1.0402069l0.6242676 1.1442108l0.5202637 1.0922241l0.36416626 1.1442261zm-32.567474 46.341095l1.5087128 21.948303l0.7283478 21.480225l-0.1560669 18.463623l-0.5202484 7.2814026l-0.31214905 2.9645996l-0.41619873 2.5484924l-0.98846436 5.565094l-0.26013184 2.0804138l-5.670685 27.35736l0 1.196228l0.10404968 0.41607666l0.052017212 0.15603638l0.05203247 0.104034424l0.052017212 0.104003906l0.052017212 0.05203247l0.10404968 0.052001953l0.10404968 0l0.10404968 0l0.10404968 -0.052001953l0.31214905 -0.20806885l0.26013184 -0.31204224l0.36416626 -0.46810913l0.83239746 -1.24823l1.9249115 2.0804138l19.821426 -61.736115l1.6647797 -2.7045288l1.5607605 -2.2884521l1.5086975 -1.8203735l1.4046936 -1.4562683l0.7283325 -0.57211304l0.67633057 -0.46810913l0.67630005 -0.41607666l0.67633057 -0.26004028l0.67633057 -0.20803833l0.6242981 -0.104034424l0.67630005 -0.052001953l0.67633057 0.052001953l0.6242981 0.15603638l0.67633057 0.26004028l0.6242981 0.31207275l0.67630005 0.3640747l1.3526611 1.0401917l1.3526306 1.3002625l1.4046631 1.3522644l1.5607605 1.196228l1.7167969 1.0402222l1.8728943 0.8841553l2.0809937 0.7281494l2.2370605 0.5201111l2.44516 0.3640747l2.6532593 0.20803833l2.913391 0.052001953l3.173523 -0.15603638l7.1273804 -0.78015137l8.375977 -1.5083008l9.676605 -2.1844177l11.601501 -2.7565308l8.844208 -1.8203735l3.5376892 -0.4680786l2.965393 -0.2600708l2.44516 0.104034424l1.0925293 0.104034424l0.9364319 0.26004028l0.83239746 0.26004028l0.7803955 0.41607666l0.6242981 0.46810913l0.5722656 0.5201111l0.52023315 0.624115l0.41619873 0.7281494l0.36416626 0.78015137l0.26013184 0.8841553l0.41619873 2.0284119l0.26013184 2.444458l0.1560669 5.981201l-0.1560669 4.3168335l-0.3121643 5.0970154l-1.0924988 11.806305l-1.5607605 12.794495l-1.7688293 12.326416l-1.8208618 6.553314l-2.5492249 5.929138l-3.2775574 5.2530518l-3.9538574 4.524872l-4.578186 3.848755l-5.202484 3.0686035l-5.7747498 2.3924866l-6.2429504 1.6643066l-6.7111816 0.93618774l-7.127411 0.15603638l-7.439514 -0.624115l-7.803711 -1.3522644l-8.115875 -2.1844482l-8.323944 -2.964569l-8.4800415 -3.744751l-8.636093 -4.576874l-13.994644 -6.8133545l-13.006195 -5.7211304l-5.7227173 -2.2884216l-4.9943695 -1.7163391l-4.0579224 -1.0922241l-1.6647949 -0.26004028l-1.3526459 -0.104034424c0 0 -13.682495 -19.60785 -13.474396 -38.435547c0 -1.0921936 7.7516785 -25.224945 9.156342 -38.227478c0.31214905 -2.9125977 -0.1560669 -8.737732 -0.1560669 -8.737732l0.46821594 -10.766113l1.196579 -12.118378l1.7168121 -12.586456l2.3411102 -12.274414l2.8093262 -11.130188l1.4046783 -4.3168488l1.4566956 -3.2246246l0.780365 -1.2482452l0.7283478 -1.0402069l0.780365 -0.7281494l0.78038025 -0.5200958l0.41619873 -0.15603638l0.41619873 -0.104019165l0.36416626 0l0.41619873 0l0.41619873 0.052017212l0.36416626 0.15602112l0.83239746 0.46809387l0.78038025 0.6761322l0.780365 0.88417053l0.83239746 1.0922241l0.780365 1.3522644l1.5087128 3.3286438l1.508728 4.1608276l2.8613586 10.766098l2.4971771 13.782715l2.0809937 16.695282z" fill-rule="evenodd"/><path fill="#073763" d="m485.8948 234.20493l14.774353 2.1841583l12.797516 1.3520813l5.3062744 0.26002502l4.369873 -0.052001953l1.7167358 -0.15600586l1.456604 -0.26002502l1.1444702 -0.31202698l0.46820068 -0.20800781l0.31219482 -0.20800781l0.20806885 -0.104019165l0.26013184 0l0.6242676 -0.052001953l0.7803345 0.052001953l0.8843384 0.15602112l2.2369995 0.5200348l2.757141 0.8840637l6.9710083 2.600174l8.687744 3.7442627l21.433228 10.400711l25.12677 13.572952l34.698914 19.501343l11.809082 7.852539l4.73407 3.6922607l4.109741 3.5882263l3.5895386 3.5882568l3.017273 3.6402588l2.6531982 3.7442627l2.2369385 3.9522705l2.0288696 4.2122803l1.8208008 4.5243225l3.3814087 10.348694l1.9768677 6.968506l2.1849365 6.656433l2.3410034 6.188446l2.3930664 5.616394l2.3410034 4.7843323l2.1849365 3.9522705l1.0404053 1.5600891l0.98846436 1.2481079l0.8843384 0.9880676l0.41619873 0.36401367l0.36413574 0.31201172l1.8728027 1.0920715l1.560669 0.72805786l0.67633057 0.20800781l0.6242676 0.052001953l0.5722656 0l0.46820068 -0.104003906l0.2600708 -0.104003906l0.1560669 -0.15600586l0.20812988 -0.15600586l0.1560669 -0.20800781l0.3121338 -0.4680481l0.20806885 -0.62402344l0.1560669 -0.72805786l0.052001953 -0.83206177l-0.052001953 -2.132141l-0.3121338 -2.704193l-0.6242676 -3.2762146l-2.0288696 -8.476593l-7.543274 -25.013733l-3.4334717 -9.360657l-3.7976074 -8.164551l-2.0809326 -3.7442627l-2.2369385 -3.484253l-2.3930054 -3.3282166l-2.6011353 -3.1722107l-2.809204 -3.0162048l-3.069336 -2.964203l-6.9710083 -5.616394l-8.16748 -5.564392l-9.6241455 -5.668396l-61.906616 -36.090485l-7.387146 -4.4203033l-7.751343 -3.6922607l-8.219543 -2.912201l-8.843811 -2.2881622l-9.676147 -1.6121063l-10.612549 -0.9880676l-11.75708 -0.46803284l-13.057587 0.104003906l-50.4617 1.7161255l36.62375 5.9804077" fill-rule="evenodd"/><path stroke="#073763" stroke-width="8.0" stroke-linejoin="round" stroke-linecap="butt" d="m485.8948 234.20493l14.774353 2.1841583l12.797516 1.3520813l5.3062744 0.26002502l4.369873 -0.052001953l1.7167358 -0.15600586l1.456604 -0.26002502l1.1444702 -0.31202698l0.46820068 -0.20800781l0.31219482 -0.20800781l0.20806885 -0.104019165l0.26013184 0l0.6242676 -0.052001953l0.7803345 0.052001953l0.8843384 0.15602112l2.2369995 0.5200348l2.757141 0.8840637l6.9710083 2.600174l8.687744 3.7442627l21.433228 10.400711l25.12677 13.572952l34.698914 19.501343l11.809082 7.852539l4.73407 3.6922607l4.109741 3.5882263l3.5895386 3.5882568l3.017273 3.6402588l2.6531982 3.7442627l2.2369385 3.9522705l2.0288696 4.2122803l1.8208008 4.5243225l3.3814087 10.348694l1.9768677 6.968506l2.1849365 6.656433l2.3410034 6.188446l2.3930664 5.616394l2.3410034 4.7843323l2.1849365 3.9522705l1.0404053 1.5600891l0.98846436 1.2481079l0.8843384 0.9880676l0.41619873 0.36401367l0.36413574 0.31201172l1.8728027 1.0920715l1.560669 0.72805786l0.67633057 0.20800781l0.6242676 0.052001953l0.5722656 0l0.46820068 -0.104003906l0.2600708 -0.104003906l0.1560669 -0.15600586l0.20812988 -0.15600586l0.1560669 -0.20800781l0.3121338 -0.4680481l0.20806885 -0.62402344l0.1560669 -0.72805786l0.052001953 -0.83206177l-0.052001953 -2.132141l-0.3121338 -2.704193l-0.6242676 -3.2762146l-2.0288696 -8.476593l-7.543274 -25.013733l-3.4334717 -9.360657l-3.7976074 -8.164551l-2.0809326 -3.7442627l-2.2369385 -3.484253l-2.3930054 -3.3282166l-2.6011353 -3.1722107l-2.809204 -3.0162048l-3.069336 -2.964203l-6.9710083 -5.616394l-8.16748 -5.564392l-9.6241455 -5.668396l-61.906616 -36.090485l-7.387146 -4.4203033l-7.751343 -3.6922607l-8.219543 -2.912201l-8.843811 -2.2881622l-9.676147 -1.6121063l-10.612549 -0.9880676l-11.75708 -0.46803284l-13.057587 0.104003906l-50.4617 1.7161255l36.62375 5.9804077" fill-rule="evenodd"/><path fill="#073763" d="m533.0628 521.92175l-0.2600708 0.6239624l-0.3121338 0.7279053l-0.52020264 2.131775l-0.9884033 6.187378l-0.8323364 8.683105l-0.67626953 10.762878l-0.93634033 26.309265l-0.3121338 30.41687l-0.67626953 39.619873l-1.0404053 15.9104l-1.5085449 13.986511l-2.1848755 12.582703l-2.809082 11.594788l-3.5894165 11.07489l-4.4737244 11.074829l-7.9591064 16.274292l-9.571716 16.17035l-10.768188 15.650391l-11.49646 14.50647l-11.704559 12.842712l-11.548492 10.6588745l-5.566162 4.3155518l-5.3580933 3.6396484l-5.097992 2.7556763l-4.785858 1.9238281l-3.1212158 1.3518677l-2.7570496 1.5078125l-1.1964722 0.7799072l-1.0924377 0.77996826l-0.93637085 0.7799072l-0.8323059 0.8319092l-0.7282715 0.7799072l-0.52020264 0.7799072l-0.4161682 0.8319092l-0.1560669 0.36395264l-0.104034424 0.36401367l-0.104034424 0.4159546l0 0.36395264l0 0.36395264l0 0.36395264l0.104034424 0.36395264l0.104034424 0.31201172l0.1560669 0.36395264l0.20806885 0.31195068l0.1560669 0.36395264l0.05203247 0.31195068l0 0.41601562l-0.10406494 0.36395264l-0.31210327 0.88391113l-0.5722351 0.93585205l-0.78030396 0.98791504l-0.9883728 1.039917l-2.6010132 2.3397217l-3.3813171 2.4957886l-4.005554 2.6516724l-9.831818 5.6674194l-11.652557 5.8234253l-12.901001 5.6674194l-13.525269 5.147461l-13.5772705 4.3675537l-2.0808105 0.4159546l-2.0808105 0.25994873l-2.2368774 0.052001953l-2.2368774 -0.052001953l-2.3409119 -0.25994873l-2.3929138 -0.4159546l-2.3929443 -0.57196045l-2.4969788 -0.7279053l-2.4969482 -0.88391113l-2.4969788 -1.039917l-5.0459595 -2.5477295l-5.0459595 -3.2236328l-4.941925 -3.8995972l-4.3697205 -3.4316406l-4.4737244 -3.2236938l-4.473755 -2.9116821l-4.3176575 -2.5477295l-4.0055847 -2.079834l-3.6414185 -1.6118164l-1.6646423 -0.57196045l-1.5085754 -0.4159546l-1.3005066 -0.25994873l-1.1444397 -0.104003906l-0.5722351 0.052001953l-0.52020264 0.052001953l-0.36413574 0.15600586l-0.3121338 0.15594482l-0.104034424 0.15600586l-0.104034424 0.104003906l-0.104034424 0.15594482l-0.05203247 0.104003906l0 0.20800781l-0.052001953 0.15594482l0.052001953 0.36395264l0.104034424 0.4159546l0.1560669 0.46795654l0.62423706 1.091919l0.8843689 1.1958618l1.1444397 1.4038696l3.1212158 3.171692l4.1095886 3.6395874l4.941925 4.055603l5.774231 4.3675537l11.964661 8.475098l9.467682 6.083374l4.2136536 2.131775l4.005554 1.6118164l4.1095886 0.98791504l4.2656555 0.46795654l4.629822 -0.15600586l5.149994 -0.6759033l5.878296 -1.1958618l6.710602 -1.8198242l38.911133 -12.478699l24.13739 -8.735107l8.73941 -3.6916504l6.554535 -3.3276367l2.4969788 -1.5598145l1.9247437 -1.4038696l1.4565735 -1.3518677l0.46817017 -0.6759033l0.4161682 -0.6239624l0.26010132 -0.57196045l0.104034424 -0.62390137l0.05203247 -0.57196045l-0.1560669 -0.5199585l-0.26010132 -0.5718994l-0.36413574 -0.5199585l-0.52020264 -0.46795654l-0.62423706 -0.5199585l-2.132843 -1.5598145l-0.8843384 -0.7279663l-0.78030396 -0.7279053l-0.62423706 -0.6759033l-0.46820068 -0.67596436l-0.36413574 -0.5718994l-0.104034424 -0.26000977l-0.104034424 -0.31195068l-0.05203247 -0.20800781l-0.052001953 -0.25994873l0 -0.20794678l0.052001953 -0.26000977l0.05203247 -0.15600586l0.1560669 -0.20794678l0.104034424 -0.15600586l0.20806885 -0.15594482l0.20809937 -0.15600586l0.20806885 -0.104003906l0.26010132 -0.10394287l0.3121338 -0.104003906l0.7282715 -0.104003906l0.8323364 -0.052001953l1.7166443 -0.15600586l1.9247742 -0.5718994l2.0808105 -0.88391113l2.236847 -1.2478638l4.9939575 -3.3796387l5.5141296 -4.5235596l12.276794 -11.95874l13.161102 -15.026489l13.265167 -17.158203l12.588898 -18.19812l11.080322 -18.354065l8.73938 -17.522217l5.982361 -13.778564l4.6297607 -12.478699l3.3813477 -12.114746l2.2888794 -12.79071l1.404541 -14.402466l0.6242676 -17.106262l-0.41619873 -46.0672l-1.456543 -31.924683l-1.9768066 -24.801453l-1.0924072 -8.995056l-1.1964722 -6.343384l-0.5722046 -2.027771l-0.3121338 -0.7799072l-0.3121338 -0.5199585l-0.1560669 -0.20794678l-0.15600586 -0.15600586l-0.1560669 -0.104003906l-0.1560669 -0.052001953l-0.1560669 0.052001953l-0.1560669 0.052001953l-0.1560669 0.104003906l-0.1560669 0.15594482" fill-rule="evenodd"/><path stroke="#073763" stroke-width="8.0" stroke-linejoin="round" stroke-linecap="butt" d="m533.0628 521.92175l-0.2600708 0.6239624l-0.3121338 0.7279053l-0.52020264 2.131775l-0.9884033 6.187378l-0.8323364 8.683105l-0.67626953 10.762878l-0.93634033 26.309265l-0.3121338 30.41687l-0.67626953 39.619873l-1.0404053 15.9104l-1.5085449 13.986511l-2.1848755 12.582703l-2.809082 11.594788l-3.5894165 11.07489l-4.4737244 11.074829l-7.9591064 16.274292l-9.571716 16.17035l-10.768188 15.650391l-11.49646 14.50647l-11.704559 12.842712l-11.548492 10.6588745l-5.566162 4.3155518l-5.3580933 3.6396484l-5.097992 2.7556763l-4.785858 1.9238281l-3.1212158 1.3518677l-2.7570496 1.5078125l-1.1964722 0.7799072l-1.0924377 0.77996826l-0.93637085 0.7799072l-0.8323059 0.8319092l-0.7282715 0.7799072l-0.52020264 0.7799072l-0.4161682 0.8319092l-0.1560669 0.36395264l-0.104034424 0.36401367l-0.104034424 0.4159546l0 0.36395264l0 0.36395264l0 0.36395264l0.104034424 0.36395264l0.104034424 0.31201172l0.1560669 0.36395264l0.20806885 0.31195068l0.1560669 0.36395264l0.05203247 0.31195068l0 0.41601562l-0.10406494 0.36395264l-0.31210327 0.88391113l-0.5722351 0.93585205l-0.78030396 0.98791504l-0.9883728 1.039917l-2.6010132 2.3397217l-3.3813171 2.4957886l-4.005554 2.6516724l-9.831818 5.6674194l-11.652557 5.8234253l-12.901001 5.6674194l-13.525269 5.147461l-13.5772705 4.3675537l-2.0808105 0.4159546l-2.0808105 0.25994873l-2.2368774 0.052001953l-2.2368774 -0.052001953l-2.3409119 -0.25994873l-2.3929138 -0.4159546l-2.3929443 -0.57196045l-2.4969788 -0.7279053l-2.4969482 -0.88391113l-2.4969788 -1.039917l-5.0459595 -2.5477295l-5.0459595 -3.2236328l-4.941925 -3.8995972l-4.3697205 -3.4316406l-4.4737244 -3.2236938l-4.473755 -2.9116821l-4.3176575 -2.5477295l-4.0055847 -2.079834l-3.6414185 -1.6118164l-1.6646423 -0.57196045l-1.5085754 -0.4159546l-1.3005066 -0.25994873l-1.1444397 -0.104003906l-0.5722351 0.052001953l-0.52020264 0.052001953l-0.36413574 0.15600586l-0.3121338 0.15594482l-0.104034424 0.15600586l-0.104034424 0.104003906l-0.104034424 0.15594482l-0.05203247 0.104003906l0 0.20800781l-0.052001953 0.15594482l0.052001953 0.36395264l0.104034424 0.4159546l0.1560669 0.46795654l0.62423706 1.091919l0.8843689 1.1958618l1.1444397 1.4038696l3.1212158 3.171692l4.1095886 3.6395874l4.941925 4.055603l5.774231 4.3675537l11.964661 8.475098l9.467682 6.083374l4.2136536 2.131775l4.005554 1.6118164l4.1095886 0.98791504l4.2656555 0.46795654l4.629822 -0.15600586l5.149994 -0.6759033l5.878296 -1.1958618l6.710602 -1.8198242l38.911133 -12.478699l24.13739 -8.735107l8.73941 -3.6916504l6.554535 -3.3276367l2.4969788 -1.5598145l1.9247437 -1.4038696l1.4565735 -1.3518677l0.46817017 -0.6759033l0.4161682 -0.6239624l0.26010132 -0.57196045l0.104034424 -0.62390137l0.05203247 -0.57196045l-0.1560669 -0.5199585l-0.26010132 -0.5718994l-0.36413574 -0.5199585l-0.52020264 -0.46795654l-0.62423706 -0.5199585l-2.132843 -1.5598145l-0.8843384 -0.7279663l-0.78030396 -0.7279053l-0.62423706 -0.6759033l-0.46820068 -0.67596436l-0.36413574 -0.5718994l-0.104034424 -0.26000977l-0.104034424 -0.31195068l-0.05203247 -0.20800781l-0.052001953 -0.25994873l0 -0.20794678l0.052001953 -0.26000977l0.05203247 -0.15600586l0.1560669 -0.20794678l0.104034424 -0.15600586l0.20806885 -0.15594482l0.20809937 -0.15600586l0.20806885 -0.104003906l0.26010132 -0.10394287l0.3121338 -0.104003906l0.7282715 -0.104003906l0.8323364 -0.052001953l1.7166443 -0.15600586l1.9247742 -0.5718994l2.0808105 -0.88391113l2.236847 -1.2478638l4.9939575 -3.3796387l5.5141296 -4.5235596l12.276794 -11.95874l13.161102 -15.026489l13.265167 -17.158203l12.588898 -18.19812l11.080322 -18.354065l8.73938 -17.522217l5.982361 -13.778564l4.6297607 -12.478699l3.3813477 -12.114746l2.2888794 -12.79071l1.404541 -14.402466l0.6242676 -17.106262l-0.41619873 -46.0672l-1.456543 -31.924683l-1.9768066 -24.801453l-1.0924072 -8.995056l-1.1964722 -6.343384l-0.5722046 -2.027771l-0.3121338 -0.7799072l-0.3121338 -0.5199585l-0.1560669 -0.20794678l-0.15600586 -0.15600586l-0.1560669 -0.104003906l-0.1560669 -0.052001953l-0.1560669 0.052001953l-0.1560669 0.052001953l-0.1560669 0.104003906l-0.1560669 0.15594482" fill-rule="evenodd"/><path fill="#ffffff" d="m198.74045 377.6669l0 0c-15.733582 -12.706909 -25.033371 -27.25943 -20.771652 -32.503937l0 0c2.0465546 -2.5185242 7.0107117 -2.5098572 13.800415 0.024108887c6.7897034 2.533966 14.84877 7.38562 22.404312 13.487701l0 0c15.733597 12.706879 25.033386 27.2594 20.771652 32.503937l0 0c-2.0465546 2.5184937 -7.0107117 2.5098267 -13.800415 -0.024139404c-6.7897034 -2.5339355 -14.84877 -7.38562 -22.404312 -13.487671z" fill-rule="evenodd"/><path stroke="#073763" stroke-width="12.0" stroke-linejoin="round" stroke-linecap="butt" d="m198.74045 377.6669l0 0c-15.733582 -12.706909 -25.033371 -27.25943 -20.771652 -32.503937l0 0c2.0465546 -2.5185242 7.0107117 -2.5098572 13.800415 0.024108887c6.7897034 2.533966 14.84877 7.38562 22.404312 13.487701l0 0c15.733597 12.706879 25.033386 27.2594 20.771652 32.503937l0 0c-2.0465546 2.5184937 -7.0107117 2.5098267 -13.800415 -0.024139404c-6.7897034 -2.5339355 -14.84877 -7.38562 -22.404312 -13.487671z" fill-rule="evenodd"/></g></svg>