<svg version="1.1" viewBox="0.0 0.0 500.0 500.0" fill="none" stroke="none" stroke-linecap="square" stroke-miterlimit="10" xmlns:xlink="http://www.w3.org/1999/xlink" xmlns="http://www.w3.org/2000/svg"><clipPath id="p1.0"><path d="m0 0l500.0 0l0 500.0l-500.0 0l0 -500.0z" clip-rule="nonzero"/></clipPath><g clip-path="url(#p1.0)"><path fill="#000000" fill-opacity="0.0" d="m0 0l500.0 0l0 500.0l-500.0 0z" fill-rule="evenodd"/><path fill="#073763" d="m105.068985 454.91443l133.71953 0l0 -145.77695l-48.03755 0l0 -48.04666l48.03755 0l0 -59.915054l0.24549866 -6.1388397l0.90019226 -5.975128l1.5548859 -5.7295837l1.9640503 -5.5658875l2.536911 -5.2384644l3.0279236 -4.992935l3.4371033 -4.583664l3.9281006 -4.256256l4.2554626 -3.9288635l4.582794 -3.4377441l4.991974 -3.0284882l5.237488 -2.537384l5.4830017 -1.9644318l5.8103333 -1.4733276l5.892151 -0.9003601l6.1376953 -0.32740784l60.067383 0l0 48.046646l-48.037537 0l-2.4550781 0.081848145l-2.37323 0.40925598l-2.2914124 0.5729675l-2.2095642 0.81851196l-2.127716 0.98220825l-1.9640503 1.227768l-1.8003845 1.3914642l-1.7185669 1.5551758l-1.5548706 1.7188721l-1.3912048 1.8007355l-1.2275391 1.9644165l-0.98202515 2.1281433l-0.8183594 2.2099762l-0.6546936 2.2918396l-0.32733154 2.3736725l-0.16366577 2.455536l0 47.964783l69.887665 0l-8.019897 48.04666l-61.867767 0l0 145.77695l108.10495 0l6.137665 -0.32739258l5.9740295 -0.9003601l5.728485 -1.4733276l5.5648193 -2.0462952l5.237488 -2.537384l4.9101562 -2.9466248l4.664612 -3.5196228l4.2554626 -3.8469849l3.846283 -4.256256l3.5189514 -4.6655273l2.9460754 -4.911072l2.5368958 -5.2384644l2.0458984 -5.5658875l1.473053 -5.7295837l0.900177 -5.975128l0.32736206 -6.138855l0 -289.75317l-0.32736206 -6.1388397l-0.900177 -5.975136l-1.473053 -5.729576l-2.0458984 -5.5658875l-2.5368958 -5.238472l-2.9460754 -4.911072l-3.5189514 -4.6655197l-3.846283 -4.25626l-4.2554626 -3.847004l-4.664612 -3.5196l-4.9101562 -2.9466438l-5.237488 -2.537384l-5.5648193 -2.04628l-5.728485 -1.4733238l-5.9740295 -0.9003601l-6.137665 -0.32740784l-289.7802 0l-6.13768 0.32740784l-5.9740067 0.9003601l-5.7285004 1.4733238l-5.564827 2.04628l-5.23748 2.537384l-4.910141 2.9466438l-4.6646347 3.5196l-4.255459 3.847004l-3.8462753 4.25626l-3.5189362 4.6655197l-2.946087 4.911072l-2.5369034 5.238472l-2.0458946 5.5658875l-1.4730415 5.729576l-0.90019226 5.975136l-0.327343 6.1388397l0 289.75317l0.327343 6.138855l0.90019226 5.975128l1.4730415 5.7295837l2.0458946 5.5658875l2.5369034 5.2384644l2.946087 4.911072l3.5189362 4.6655273l3.8462753 4.256256l4.255459 3.8469849l4.6646347 3.5196228l4.910141 2.9466248l5.23748 2.537384l5.564827 2.0462952l5.7285004 1.4733276l5.9740067 0.9003601l6.13768 0.32739258zm-36.089546 -349.83194l0.1636734 -3.6833038l0.5728531 -3.601448l0.90019226 -3.4377518l1.2275314 -3.355896l1.4730453 -3.110344l1.8003845 -2.9466476l2.1277313 -2.782936l2.291397 -2.6192398l2.618744 -2.291832l2.7824097 -2.128128l2.946083 -1.8007278l3.1097565 -1.47332l3.3552704 -1.227768l3.4370956 -0.90036774l3.600769 -0.5729523l3.6826096 -0.16370392l289.7802 0l3.6826172 0.16370392l3.600769 0.5729523l3.4371033 0.90036774l3.3552551 1.227768l3.1097412 1.47332l2.946106 1.8007278l2.7824097 2.128128l2.618744 2.291832l2.2913818 2.6192398l2.1277466 2.782936l1.8003845 2.9466476l1.4730225 3.110344l1.2275391 3.355896l0.9002075 3.4377518l0.57284546 3.601448l0.16366577 3.6833038l0 289.75317l-0.16366577 3.683319l-0.57284546 3.6014404l-0.9002075 3.4377441l-1.2275391 3.355896l-1.4730225 3.1103516l-1.8003845 2.9466553l-2.1277466 2.7829285l-2.2913818 2.6192322l-2.618744 2.2918396l-2.7824097 2.1281128l-2.946106 1.8007507l-3.1097412 1.4732971l-3.3552551 1.2277832l-3.4371033 0.9003601l-3.600769 0.5729675l-3.6826172 0.16369629l-84.04526 0l0 -97.730316l58.18518 0l16.039795 -96.01143l-74.224976 0l0 -24.064255l72.01541 0l0 -96.093285l-84.04526 0l-8.592743 0.40925598l-8.3472595 1.3096237l-8.019897 2.04628l-7.6925354 2.8647919l-7.3652344 3.5196l-6.956024 4.2562637l-6.4650116 4.8292084l-5.9740143 5.402191l-5.4011536 5.975128l-4.910141 6.4662476l-4.1736298 6.9573517l-3.600769 7.3666077l-2.7824097 7.6940002l-2.1277313 8.1032715l-1.2275238 8.348816l-0.4091797 8.594376l0 36.014526l-48.03755 0l0 96.01143l48.03755 0l0 97.730316l-109.659836 0l-3.6826096 -0.16369629l-3.600769 -0.5729675l-3.4370956 -0.9003601l-3.3552704 -1.2277832l-3.1097565 -1.4732971l-2.946083 -1.8007507l-2.7824097 -2.1281128l-2.618744 -2.2918396l-2.291397 -2.6192322l-2.1277313 -2.7829285l-1.8003845 -2.9466553l-1.4730453 -3.1103516l-1.2275314 -3.355896l-0.90019226 -3.4377441l-0.5728531 -3.6014404l-0.1636734 -3.683319l0 -289.75317z" fill-rule="evenodd"/></g></svg>