<svg version="1.1" viewBox="0.0 0.0 500.0 500.0" fill="none" stroke="none" stroke-linecap="square" stroke-miterlimit="10" xmlns:xlink="http://www.w3.org/1999/xlink" xmlns="http://www.w3.org/2000/svg"><clipPath id="g43d4fa68f7_0_30.0"><path d="m0 0l500.0 0l0 500.0l-500.0 0l0 -500.0z" clip-rule="nonzero"/></clipPath><g clip-path="url(#g43d4fa68f7_0_30.0)"><path fill="#000000" fill-opacity="0.0" d="m0 0l500.0 0l0 500.0l-500.0 0z" fill-rule="evenodd"/><path fill="#000000" fill-opacity="0.0" d="m56.0 -78.80315l660.0 0l0 657.6063l-660.0 0z" fill-rule="evenodd"/><path fill="#073763" d="m125.359375 248.96248q-16.40625 -8.015625 -25.203125 -22.359375q-8.78125 -14.359375 -8.78125 -31.75q0 -26.5625 20.015625 -45.703125q20.015625 -19.140625 51.265625 -19.140625q25.59375 0 44.34375 12.5l37.890625 0q8.390625 0 9.75 0.5q1.375 0.484375 1.96875 1.65625q1.171875 1.75 1.171875 6.25q0 5.078125 -0.984375 7.03125q-0.578125 0.96875 -2.046875 1.5625q-1.46875 0.578125 -9.859375 0.578125l-23.25 0q10.9375 14.0625 10.9375 35.9375q0 25.0 -19.140625 42.78125q-19.140625 17.76561 -51.359375 17.76561q-13.28125 0 -27.15625 -3.9062347q-8.59375 7.4218597 -11.625 12.999985q-3.015625 5.5625 -3.015625 9.46875q0 3.3125 3.21875 6.4375q3.21875 3.125 12.59375 4.5q5.46875 0.78125 27.34375 1.359375q40.234375 0.984375 52.15625 2.734375q18.15625 2.546875 29.0 13.484375q10.84375 10.9375 10.84375 26.953125q0 22.078125 -20.703125 41.40625q-30.46875 28.515625 -79.5 28.515625q-37.6875 0 -63.671875 -16.984375q-14.640625 -9.765625 -14.640625 -20.3125q0 -4.6875 2.140625 -9.375q3.328125 -7.234375 13.671875 -20.125q1.375 -1.75 19.921875 -21.09375q-10.15625 -6.0625 -14.359375 -10.84375q-4.1875 -4.78125 -4.1875 -10.84375q0 -6.828125 5.5625 -16.0q5.5625 -9.1875 25.6875 -25.98436zm33.984375 -109.578125q-14.453125 0 -24.21875 11.53125q-9.765625 11.515625 -9.765625 35.34375q0 30.859375 13.28125 47.859375q10.15625 12.890625 25.78125 12.890625q14.84375 0 24.40625 -11.125q9.578125 -11.140625 9.578125 -34.96875q0 -31.0625 -13.484375 -48.640625q-9.953125 -12.890625 -25.578125 -12.890625zm-35.9375 174.81248q-9.1875 9.96875 -13.875 18.5625q-4.6875 8.59375 -4.6875 15.8125q0 9.375 11.328125 16.40625q19.53125 12.109375 56.453125 12.109375q35.15625 0 51.84375 -12.40625q16.703125 -12.390625 16.703125 -26.453125q0 -10.15625 -9.953125 -14.453125q-10.15625 -4.296875 -40.234375 -5.078125q-43.953125 -1.171875 -67.578125 -4.5z" fill-rule="nonzero"/><path fill="#073763" d="m431.01562 250.00935l-61.59375 0l0 61.57811l-21.484375 0l0 -61.57811l-61.578125 0l0 -21.21875l61.578125 0l0 -61.59375l21.484375 0l0 61.59375l61.59375 0l0 21.21875z" fill-rule="nonzero"/></g></svg>