<svg version="1.1" viewBox="0.0 0.0 500.0 500.0" fill="none" stroke="none" stroke-linecap="square" stroke-miterlimit="10" xmlns:xlink="http://www.w3.org/1999/xlink" xmlns="http://www.w3.org/2000/svg"><clipPath id="g43d4fa68f7_0_8.0"><path d="m0 0l500.0 0l0 500.0l-500.0 0l0 -500.0z" clip-rule="nonzero"/></clipPath><g clip-path="url(#g43d4fa68f7_0_8.0)"><path fill="#000000" fill-opacity="0.0" d="m0 0l500.0 0l0 500.0l-500.0 0z" fill-rule="evenodd"/><path fill="#073763" d="m456.27676 118.05256l0.6014099 0.4511032l0.6013794 0.4511032l0.5262146 0.52628326l0.4510498 0.60147095l0.4510498 0.60147095l0.3758545 0.60147095l0.3006897 0.676651l0.3007202 0.676651l0.15032959 0.67665863l0.2255249 0.676651l0.075164795 0.7518387l0.07519531 0.7518387l0 0.676651l-0.07519531 0.7518387l-0.15032959 0.7518387l-0.1503601 0.7518387l-0.2255249 0.676651l-0.3758545 0.9773865l-0.5262146 1.1277618l-0.7517395 1.5036621l-2.3303833 3.7591858l-3.6835327 4.9621277l-5.262146 6.390625l-7.14151 7.819107l-9.321533 9.473145l-11.802307 11.127197l-0.5262146 17.292252l-3.3076477 27.141327l-3.3076172 16.314865l-4.735962 17.517807l-6.3897705 18.495209l-8.344269 19.021484l-10.524353 19.171844l-12.929871 18.94629l-15.711304 18.344849l-18.643097 17.367432l-21.800385 15.938965l-25.258392 14.209717l-28.941895 12.104584l-32.9261 9.548309l-4.134552 0.82702637l-10.373978 1.5036926l-15.485794 1.4284668l-9.3967285 0.52630615l-10.298798 0.1503601l-14.358185 -0.37591553l-15.560974 -1.2029419l-16.463043 -2.3306885l-17.139626 -3.6088257l-17.440308 -5.187683l-17.440308 -6.9169006l-8.644981 -4.1351013l-8.569813 -4.7365723l-8.41946 -5.187683l-8.193939 -5.864319l-0.601387 -0.52630615l-0.60139084 -0.52627563l-0.5262184 -0.60147095l-0.45104218 -0.67666626l-0.45104218 -0.67663574l-0.37586975 -0.67666626l-0.3006935 -0.75183105l-0.22552109 -0.75183105l-0.15034866 -0.75183105l-0.075172424 -0.7518616l-0.075172424 -0.82699585l0.075172424 -0.7518616l0.075172424 -0.82699585l0.15034866 -0.7518616l0.22552109 -0.82699585l0.3006935 -0.7518616l0.37586975 -0.75183105l0.37586975 -0.67663574l0.45104218 -0.67666626l0.5262146 -0.60147095l0.60139084 -0.52627563l0.60139084 -0.52630615l0.60139084 -0.45108032l0.67656326 -0.37591553l0.7517357 -0.37594604l0.67656326 -0.3007202l0.7517395 -0.22555542l0.8269119 -0.1503601l0.7517357 -0.07519531l0.8269119 -0.075164795l0.7517395 0.075164795l0.8269081 0.07519531l0 0l0 0l0 0l0.15034866 0.07519531l0.30069733 0.075164795l1.2779503 0.1503601l4.811123 0.60147095l7.4422035 0.60147095l9.471893 0.22555542l8.4194565 -0.1503601l8.870506 -0.67666626l9.321541 -1.2029419l9.471893 -1.8795776l9.471893 -2.6314392l9.471901 -3.5336304l4.6607666 -2.105133l4.585602 -2.330719l4.5104218 -2.6314087l4.360077 -2.9321594l-7.8932495 -2.481079l-8.419449 -3.6088257l-4.284912 -2.1803284l-4.2849045 -2.556244l-4.2849045 -2.9321594l-4.284897 -3.308075l-4.1345596 -3.684021l-3.9842072 -4.059906l-3.8338623 -4.586212l-3.6835175 -5.037323l-3.3828201 -5.4884033l-3.1572952 -5.939514l-2.7814255 -6.540985l-2.4807358 -7.142456l-0.15034485 -0.60147095l-0.15035248 -0.60147095l-0.075172424 -0.60147095l-0.075172424 -0.60147095l0 -0.67663574l0.075172424 -0.60147095l0.075172424 -0.60147095l0.075172424 -0.60147095l0.15035248 -0.60147095l0.22551727 -0.52627563l0.2255249 -0.60147095l0.30069733 -0.52630615l0.3006897 -0.60147095l0.30069733 -0.52627563l0.37586975 -0.45111084l0.45104218 -0.52627563l0.37586975 -0.37591553l0.37586975 -0.30075073l0.37586212 -0.37591553l0.45104218 -0.3007202l0.37586975 -0.30075073l0.45104218 -0.3007202l0.5262222 -0.22555542l0.45104218 -0.22555542l-6.5401154 -5.4132385l-3.1573029 -3.0825195l-3.1572952 -3.308075l-3.0069504 -3.6088257l-2.8566055 -3.834381l-2.706253 -4.1351013l-2.4807358 -4.3606567l-2.3303833 -4.661392l-2.104866 -5.0373077l-1.8041687 -5.262863l-1.5034752 -5.6387787l-1.2027817 -5.939514l-0.8269119 -6.2402496l-0.5262146 -6.616165l-0.07517624 -6.9169006l0 -0.676651l0.15034866 -0.676651l0.07517624 -0.67666626l0.15034485 -0.6014557l0.22552109 -0.60147095l0.30069733 -0.60147095l0.22552109 -0.60147095l0.37586594 -0.5262909l0.37586975 -0.60147095l0.37586975 -0.45109558l0.45104218 -0.5262909l0.45104218 -0.45109558l0.5262184 -0.3759308l0.5262146 -0.37591553l0.5262146 -0.37591553l0.60139084 -0.30073547l0.5262184 -0.30073547l0.5262146 -0.1503601l0.5262146 -0.15037537l0.60139465 -0.1503601l0.5262146 -0.15037537l0.5262146 -0.07518005l0.601387 0l0.5262222 0l0.601387 0l0.5262146 0.07518005l0.60139465 0.07518005l0.5262146 0.15037537l0.5262146 0.1503601l0.5262146 0.15037537l0.5262222 0.22554016l0.5262146 0.30073547l-5.1118164 -9.473145l-2.2552109 -5.0373077l-2.0296936 -5.338043l-1.7289963 -5.4132233l-1.4283028 -5.6387787l-1.1276054 -5.789154l-0.67656326 -6.014694l-0.3006935 -6.0898895l0.15034485 -6.2402496l0.6765671 -6.3154297l1.2027779 -6.4657974l1.7289963 -6.616173l2.330387 -6.616165l3.0069504 -6.691353l3.6083374 -6.766533l0.30069733 -0.5262909l0.30069733 -0.4511032l0.37586975 -0.45109558l0.37586212 -0.37592316l0.45104218 -0.37591553l0.37586975 -0.37592316l0.45104218 -0.37591553l0.45104218 -0.30073547l0.5262222 -0.30073547l0.45104218 -0.22554779l0.5262146 -0.22555542l0.5262146 -0.22554779l0.5262146 -0.15036774l0.60139465 -0.15036774l0.5262146 -0.07518768l0.601387 -0.07518005l0.60139465 -0.07518768l0.601387 0l0.5262146 0.07518768l0.60139465 0.07518005l0.5262146 0.07518768l0.601387 0.15036774l0.5262222 0.15036774l0.5262146 0.22554779l0.5262146 0.22555542l0.45104218 0.22554779l0.5262146 0.30073547l0.45104218 0.30073547l0.45104218 0.37591553l0.45104218 0.37592316l0.37586975 0.37591553l0.37586975 0.4511032l3.3076477 3.608818l8.945679 9.172417l13.982315 12.781235l18.492737 14.58564l22.326614 14.736008l12.478836 6.8417206l13.155411 6.0898895l13.83197 5.262863l14.50853 4.2102814l14.959579 2.7817993l15.410614 1.278122l-0.3006897 -2.7066193l-0.2255249 -2.706604l-0.075164795 -2.7066193l0 -2.7066193l0.45103455 -9.247589l1.3531342 -8.946869l2.2552185 -8.646133l3.0069427 -8.345383l3.8338623 -7.8942947l4.5104218 -7.4431915l5.1869965 -6.9920883l5.863556 -6.3906174l6.3897705 -5.8643265l6.99115 -5.1876755l7.4421997 -4.586212l7.8932495 -3.7591858l8.344269 -3.0825348l8.644989 -2.2555084l8.945679 -1.3533096l9.246368 -0.4511032l8.569824 0.37592316l8.419464 1.2029419l8.193939 1.954773l7.893219 2.7066116l7.6677246 3.3832703l7.29187 4.135109l6.99115 4.88694l6.4649353 5.488411l4.2097473 -0.30073547l4.8111267 -0.52628326l5.262146 -0.9773941l5.788391 -1.5036697l6.089081 -1.9547806l6.314575 -2.7066116l6.5401306 -3.4584503l6.6152954 -4.2854767l0.5262146 -0.37591553l0.5262146 -0.30073547l0.6013794 -0.30073547l0.6013794 -0.22554779l0.6014099 -0.22555542l0.6013794 -0.15036774l0.6013794 -0.07518005l0.6014099 -0.07518768l0.6013794 -0.07518005l0.6765747 0l0.6013794 0.07518005l0.6013794 0.07518768l0.6014099 0.15036774l0.6013794 0.15036774l0.6013794 0.22554779l0.6014099 0.22555542l0.6013794 0.30073547l0.5262146 0.30072784l0.5262146 0.37592316l0.5262146 0.37591553l0.4510498 0.4511032l0.4510498 0.4511032l0.3758545 0.4511032l0.375885 0.52628326l0.3758545 0.5262909l0.3006897 0.52628326l0.2255249 0.60147095l0.2255249 0.60147095l0.2255249 0.60147095l0.1503601 0.6014633l0.075164795 0.60147095l0.075164795 0.67665863l0 0.6014633l0.07519531 0.7518387l-0.1503601 2.1051483l-0.5262146 2.7817993l-0.9020996 3.4584503l-1.5786438 4.0599213l-2.3303833 4.661392l-3.2324524 5.1876755l-4.284912 5.7891464l2.856598 -0.9773865l1.2779541 -0.60147095l1.2779541 -0.5262909l1.127594 -0.52628326l1.1276245 -0.60147095l0.9772644 -0.60147095l0.9020691 -0.60147095l0.6013794 -0.45109558l0.6765747 -0.37592316l0.6765747 -0.30073547l0.6765442 -0.30073547l0.7517395 -0.22554779l0.6765747 -0.15036774l0.7517395 -0.07518768l0.7517395 -0.07518005l0.6765442 0.07518005l0.7517395 0l0.7517395 0.15036774l0.6765747 0.22555542l0.6765747 0.22554779l0.7517395 0.30073547l0.6013794 0.30073547l0.6765442 0.4511032zm-53.67404 47.06501l11.576752 -10.7512665l4.8111267 -4.7365723l4.209717 -4.2854767l-5.9387207 0.9773865l-5.0366516 0.676651l-5.7883606 0.60147095l-0.7517395 0l-0.7517395 0l-0.7517395 -0.07518005l-0.7517395 -0.15037537l-0.7517395 -0.22554016l-0.6765442 -0.30073547l-0.6765747 -0.30073547l-0.6765747 -0.37591553l-0.6013794 -0.45111084l-0.6013794 -0.45109558l-0.5262146 -0.5262909l-0.5262451 -0.60147095l-0.4510193 -0.60147095l-0.4510498 -0.60147095l-0.375885 -0.75183105l-0.3006897 -0.676651l-0.2255249 -0.7518463l-0.22549438 -0.75183105l-0.07519531 -0.7518463l-0.075164795 -0.75183105l0 -0.75183105l0 -0.7518463l0.1503601 -0.75183105l0.15032959 -0.7518463l0.2255249 -0.676651l0.3006897 -0.676651l0.375885 -0.676651l0.3758545 -0.676651l0.4510498 -0.60147095l0.5262146 -0.60147095l0.5262146 -0.5262909l0.6013794 -0.5262909l4.8111267 -3.909546l4.284912 -3.608818l3.7586975 -3.533638l3.2324524 -3.2329025l-4.6607666 1.3533096l-4.4352417 1.1277542l-4.284912 0.82702637l-4.059387 0.676651l-3.7586975 0.37591553l-3.4579773 0.30073547l-3.1572876 0.15036774l-2.8566284 0.07518768l-1.4282837 0l-0.9020996 -0.07518768l-0.9020691 -0.15036774l-0.9020996 -0.22554779l-0.9020691 -0.37592316l-0.8269348 -0.37591553l-0.751709 -0.4511032l-0.375885 -0.30073547l-0.3758545 -0.30073547l-0.3007202 -0.30073547l-0.3758545 -0.30073547l-5.2621765 -4.88694l-5.638031 -4.285469l-6.0890503 -3.608818l-6.3146057 -3.0825348l-6.5401306 -2.4058838l-6.84079 -1.6540375l-6.9911804 -1.0525742l-7.216675 -0.37591553l-7.2918396 0.37591553l-7.066345 1.0525742l-6.8408203 1.8044052l-6.5401 2.4058838l-6.2394104 3.007347l-5.863556 3.533638l-5.4877014 4.1351013l-5.1118164 4.586212l-4.585602 5.112488l-4.0593567 5.4884186l-3.608368 5.864334l-3.0069275 6.2402344l-2.4055786 6.540985l-1.7289734 6.8417206l-1.1276245 7.067276l-0.37586975 7.292816l0.1503601 4.511032l0.45103455 4.435837l0.6765747 4.435837l0.9020691 4.435837l0.1503601 0.5262909l0.075164795 0.5262909l0.075164795 0.52627563l0.07519531 0.5262909l0 0.5262909l-0.07519531 0.52627563l0 0.45111084l-0.15032959 0.5262909l-0.07519531 0.52627563l-0.15032959 0.5262909l-0.1503601 0.45109558l-0.2255249 0.5262909l-0.22549438 0.45111084l-0.2255249 0.45109558l-0.3007202 0.45109558l-0.30067444 0.45111084l-0.30070496 0.37591553l-0.37586975 0.45111084l-0.37586975 0.37591553l-0.37586975 0.37591553l-0.3758545 0.30073547l-0.4510498 0.30073547l-0.4510498 0.30073547l-0.45103455 0.30073547l-0.4510498 0.22555542l-0.45103455 0.1503601l-0.5262146 0.22555542l-0.5262146 0.1503601l-0.5262146 0.15037537l-0.4510498 0.07518005l-0.5262146 0.07518005l-0.5262146 0.07518005l-14.65889 0.07519531l-14.20784 -1.1277618l-13.907135 -2.4058838l-13.380936 -3.383255l-12.929886 -4.2102966l-12.403671 -5.0373077l-11.877441 -5.6387787l-11.276062 -6.1650696l-20.522438 -13.08197l-17.665833 -13.382706l-14.358192 -12.480499l-10.900192 -10.450531l-2.706253 8.646133l-1.428299 8.345383l-0.37586975 8.044662l0.601387 7.668747l1.428299 7.292816l2.0296936 6.8417206l2.6310806 6.3906097l2.931778 5.864334l3.2324753 5.338043l3.30764 4.8117676l6.2394257 7.7439117l4.8862915 5.112503l2.4055634 2.1803284l0.5262146 0.45109558l0.45104218 0.5262909l0.45104218 0.5262909l0.37586975 0.52627563l0.37586975 0.60147095l0.3006897 0.60147095l0.2255249 0.60147095l0.22551727 0.676651l0.2255249 0.676651l0.075172424 0.60147095l0.075172424 0.67666626l0.075172424 0.676651l0 0.676651l-0.075172424 0.676651l-0.15034485 0.75183105l-0.15034485 0.67666626l-0.2255249 0.60147095l-0.30069733 0.676651l-0.3006897 0.60147095l-0.30069733 0.60147095l-0.37586975 0.52627563l-0.45104218 0.5262909l-0.45104218 0.5262909l-0.5262146 0.45109558l-0.45104218 0.45109558l-0.60139465 0.3759308l-0.5262146 0.37591553l-0.601387 0.30073547l-0.6765671 0.22555542l-0.601387 0.22554016l-0.6765671 0.22555542l-0.67655945 0.1503601l-3.0069504 0.22555542l-3.0069504 0.07518005l-3.0069504 -0.1503601l-2.931778 -0.45109558l-2.931778 -0.5262909l-2.7814255 -0.676651l-2.7062607 -0.82702637l-2.6310806 -0.9022064l1.8041687 8.119843l2.6310883 7.292816l3.1572952 6.6161804l3.6835098 5.789139l4.059387 5.187683l4.2849045 4.511032l4.5104218 3.909546l4.5104294 3.3832703l4.4352493 2.856964l4.2849045 2.330719l3.9842072 1.8795776l3.6083374 1.4284973l5.487686 1.8795776l2.5559082 0.60147095l0.7517395 0.22555542l0.67655945 0.22555542l0.7517395 0.30075073l0.60139465 0.37591553l0.67655945 0.45108032l0.60139465 0.37594604l0.5262146 0.52627563l0.5262146 0.52627563l0.45103455 0.60147095l0.4510498 0.60147095l0.37586975 0.60147095l0.3006897 0.67666626l0.30070496 0.67663574l0.22550964 0.75183105l0.1503601 0.67666626l0.15034485 0.75183105l0 0.82702637l0 0.75183105l0 0.75183105l-0.15034485 0.67666626l-0.1503601 0.75183105l-0.3006897 0.67666626l-0.2255249 0.67663574l-0.37586975 0.67666626l-0.37586975 0.60147095l-0.45103455 0.60147095l-0.4510498 0.52627563l-0.5262146 0.52630615l-0.5262146 0.52627563l-0.60139465 0.37591553l-0.67655945 0.45111084l-0.67655945 0.3007202l-2.3303833 0.9773865l-2.4807434 0.7518616l-2.631073 0.67663574l-2.7062607 0.52627563l-2.931778 0.37594604l-3.0069427 0.3007202l-3.1573029 0.1503601l-3.2324677 -0.075164795l3.6835098 6.1650696l4.1345596 5.413208l4.360077 4.6614075l4.585602 4.059906l4.660774 3.3832703l4.7359467 2.8569946l4.7359467 2.3306885l4.5104218 1.8795776l4.435257 1.5036926l4.059372 1.1277466l6.991165 1.353302l4.9614716 0.52630615l2.2552032 0.075164795l0.67655945 0.07519531l0.6765747 0.075164795l0.67655945 0.07519531l0.67655945 0.22555542l0.6765747 0.22555542l0.6013794 0.22555542l0.60139465 0.3007202l0.60139465 0.37591553l0.6013794 0.37591553l0.5262146 0.45111084l0.4510498 0.45111084l0.5262146 0.52627563l0.37586975 0.52627563l0.4510498 0.52630615l0.3006897 0.60147095l0.37586975 0.60147095l0.2255249 0.67663574l0.22550964 0.67666626l0.1503601 0.67666626l0.075164795 0.67663574l0.07518005 0.67666626l0 0.67663574l0 0.67666626l-0.07518005 0.67663574l-0.15034485 0.67666626l-0.15034485 0.67666626l-0.2255249 0.60147095l-0.3006897 0.67663574l-0.30070496 0.60147095l-0.37586975 0.60147095l-0.37586975 0.52627563l-0.45103455 0.52630615l-4.8862915 5.0372925l-5.0366516 4.586212l-5.2621613 4.2102966l-5.337326 3.7591858l-5.562866 3.3832703l-5.638031 3.0825195l-5.713196 2.7066345l-5.788391 2.3306885l-11.727097 3.8343506l-11.651932 2.7817993l-11.4264145 1.8796082l-10.975365 0.9773865l11.802277 4.7365723l11.802277 3.7591858l11.727112 3.0073547l11.501587 2.2555237l11.200882 1.5788574l10.825027 1.0525513l10.298798 0.60147095l9.697418 0.1503601l9.547058 -0.1503601l8.720154 -0.45111084l14.3582 -1.353302l9.396713 -1.353302l2.5559082 -0.45111084l0.67655945 -0.1503601l0.30070496 -0.075164795l33.076447 -9.773895l28.716385 -12.480499l24.732147 -14.811188l20.97348 -16.6156l17.515472 -17.893738l14.358215 -18.871124l11.576752 -19.24704l9.0208435 -19.24701l6.8408203 -18.720764l4.8862915 -17.743347l3.3076477 -16.39006l2.0296936 -14.510452l1.4282837 -21.427368l-0.15032959 -8.420578l0 -0.60147095l0 -0.5262909l0.075164795 -0.52627563l0.075164795 -0.5262909l0.075164795 -0.5262909l0.1503601 -0.52627563l0.1503601 -0.5262909l0.2255249 -0.5262909l0.15032959 -0.45109558l0.3006897 -0.5262909l0.2255249 -0.45109558l0.3006897 -0.45111084l0.3006897 -0.37591553l0.375885 -0.45109558l0.3758545 -0.3759308l0.375885 -0.37591553z" fill-rule="evenodd"/></g></svg>