<svg version="1.1" viewBox="0.0 0.0 6000.0 1000.0" fill="none" stroke="none" stroke-linecap="square" stroke-miterlimit="10" xmlns:xlink="http://www.w3.org/1999/xlink" xmlns="http://www.w3.org/2000/svg"><clipPath id="g4629c736bd_0_14.0"><path d="m0 0l6000.0 0l0 1000.0l-6000.0 0l0 -1000.0z" clip-rule="nonzero"/></clipPath><g clip-path="url(#g4629c736bd_0_14.0)"><path fill="#000000" fill-opacity="0.0" d="m0 0l6000.0 0l0 1000.0l-6000.0 0z" fill-rule="evenodd"/><path fill="#000000" fill-opacity="0.0" d="m797.7953 0l5362.2046 0l0 1000.0l-5362.2046 0z" fill-rule="evenodd"/><path fill="#073763" d="m1040.5765 408.73438l-93.25 0l0 70.96875l47.84375 0q31.90625 0.15625 49.96875 18.640625q18.0625 18.46875 18.0625 50.859375q0 32.546875 -18.3125 51.671875q-18.3125 19.125 -50.703125 19.125l-76.8125 0l0 -236.96875l123.203125 0l0 25.703125zm-93.25 96.6875l0 89.03125l47.515625 0q18.234375 0 28.3125 -12.53125q10.09375 -12.546875 10.09375 -33.046875q0 -20.1875 -10.015625 -31.8125q-10.0 -11.640625 -28.21875 -11.640625l-47.6875 0zm308.42163 16.921875q0 48.5 -20.671875 74.703125q-20.671875 26.203125 -58.75 26.203125q-36.625 0 -57.875 -25.46875q-21.234375 -25.46875 -22.046875 -72.015625l0 -44.59375q0 -47.53125 21.0 -74.46875q21.0 -26.9375 58.59375 -26.9375q37.4375 0 58.34375 25.796875q20.921875 25.796875 21.40625 73.65625l0 43.125zm-29.78125 -41.5q0 -37.59375 -12.296875 -55.90625q-12.28125 -18.3125 -37.671875 -18.3125q-24.578125 0 -37.203125 18.5625q-12.609375 18.546875 -12.765625 54.671875l0 42.484375q0 36.296875 12.609375 55.34375q12.609375 19.03125 37.671875 19.03125q25.078125 0 37.109375 -17.578125q12.046875 -17.578125 12.546875 -53.859375l0 -44.4375zm228.17651 -97.8125l0 236.96875l-29.9375 0l0 -211.26562l-66.25 0l-3.578125 99.609375q-1.953125 43.625 -8.3125 66.578125q-6.34375 22.9375 -18.546875 33.84375q-12.203125 10.90625 -32.0625 11.234375l-9.109375 0l0 -25.546875l5.53125 -0.328125q11.875 -0.984375 18.546875 -9.203125q6.6875 -8.21875 10.09375 -26.109375q3.421875 -17.90625 4.890625 -54.703125l3.90625 -121.078125l124.828125 0zm166.5033 127.4375l-83.8125 0l0 83.984375l97.65625 0l0 25.546875l-127.453125 0l0 -236.96875l125.8125 0l0 25.703125l-96.015625 0l0 76.171875l83.8125 0l0 25.5625zm200.52478 34.34375q-1.953125 38.078125 -21.40625 58.265625q-19.453125 20.171875 -54.9375 20.171875q-35.640625 0 -56.640625 -27.09375q-20.984375 -27.09375 -20.984375 -73.484375l0 -42.96875q0 -46.21875 21.5625 -73.078125q21.5625 -26.859375 58.828125 -26.859375q34.34375 0 53.140625 20.59375q18.796875 20.59375 20.4375 58.828125l-30.109375 0q-1.953125 -28.96875 -12.21875 -41.328125q-10.25 -12.375 -31.25 -12.375q-24.25 0 -37.265625 18.96875q-13.015625 18.953125 -13.015625 55.578125l0 43.453125q0 35.96875 12.125 55.171875q12.125 19.203125 35.390625 19.203125q23.28125 0 33.53125 -11.546875q10.25 -11.5625 12.703125 -41.5l30.109375 0zm178.86816 -136.07812l-62.34375 0l0 211.26562l-29.78125 0l0 -211.26562l-62.171875 0l0 -25.703125l154.29688 0l0 25.703125zm158.53113 -25.703125l29.78125 0l0 236.96875l-29.78125 0l0 -182.60938l-92.296875 182.60938l-29.937378 0l0 -236.96875l29.937378 0l0 182.60938l92.296875 -182.60938zm314.27295 236.96875l-29.9375 0l0 -109.53125l-95.375 0l0 109.53125l-29.796875 0l0 -236.96875l29.796875 0l0 101.875l95.375 0l0 -101.875l29.9375 0l0 236.96875zm162.10889 -61.84375l-80.078125 0l-18.390625 61.84375l-30.59375 0l76.328125 -236.96875l25.5625 0l76.484375 236.96875l-30.59375 0l-18.71875 -61.84375zm-72.265625 -25.71875l64.625 0l-32.390625 -107.75l-32.234375 107.75zm354.80957 -123.703125l-93.25 0l0 211.26562l-29.953125 0l0 -236.96875l123.203125 0l0 25.703125zm67.71997 118.5l0 92.765625l-29.796875 0l0 -236.96875l75.53125 0q33.03125 0 51.90625 19.78125q18.890625 19.765625 18.890625 52.640625q0 34.171875 -17.984375 52.65625q-17.984375 18.46875 -50.703125 19.125l-47.84375 0zm0 -25.5625l45.734375 0q19.84375 0 30.421875 -11.875q10.59375 -11.890625 10.59375 -34.015625q0 -21.328125 -10.90625 -34.1875q-10.90625 -12.859375 -29.953125 -12.859375l-45.890625 0l0 92.9375zm136.2146 -118.640625l82.03125 0l0 96.671875l47.203125 0q32.234375 0 50.296875 18.5625q18.0625 18.546875 18.0625 50.9375q0 32.390625 -18.15625 51.59375q-18.140625 19.203125 -50.53125 19.203125l-76.984375 0l0 -212.23438l-51.921875 0l0 -24.734375zm82.03125 122.390625l0 89.03125l47.53125 0q17.90625 0 27.984375 -12.28125q10.09375 -12.296875 10.09375 -33.296875q0 -20.34375 -9.84375 -31.8125q-9.84375 -11.484375 -27.75 -11.640625l-48.015625 0zm276.2036 -96.6875l-93.25 0l0 70.96875l47.84375 0q31.90625 0.15625 49.96875 18.640625q18.0625 18.46875 18.0625 50.859375q0 32.546875 -18.3125 51.671875q-18.3125 19.125 -50.703125 19.125l-76.8125 0l0 -236.96875l123.203125 0l0 25.703125zm-93.25 96.6875l0 89.03125l47.515625 0q18.234375 0 28.3125 -12.53125q10.09375 -12.546875 10.09375 -33.046875q0 -20.1875 -10.015625 -31.8125q-10.0 -11.640625 -28.21875 -11.640625l-47.6875 0zm309.39038 114.578125l-29.9375 0l0 -109.53125l-95.375 0l0 109.53125l-29.796875 0l0 -236.96875l29.796875 0l0 101.875l95.375 0l0 -101.875l29.9375 0l0 236.96875zm162.10864 -61.84375l-80.078125 0l-18.390625 61.84375l-30.59375 0l76.328125 -236.96875l25.5625 0l76.484375 236.96875l-30.59375 0l-18.71875 -61.84375zm-72.265625 -25.71875l64.625 0l-32.390625 -107.75l-32.234375 107.75zm301.27295 -149.40625l0 236.96875l-29.953125 0l0 -97.984375q-24.734375 8.46875 -52.5625 8.46875q-34.015625 0 -50.625 -17.40625q-16.59375 -17.421875 -17.25 -53.0625l0 -76.984375l29.953125 0l0 75.34375q0.15625 24.90625 8.78125 35.65625q8.625 10.734375 29.140625 10.734375q25.546875 0 52.5625 -8.625l0 -113.109375l29.953125 0zm207.83301 236.96875l-29.9375 0l0 -109.53125l-95.375 0l0 109.53125l-29.796875 0l0 -236.96875l29.796875 0l0 101.875l95.375 0l0 -101.875l29.9375 0l0 236.96875zm175.13965 -236.96875l29.78125 0l0 236.96875l-29.78125 0l0 -182.60938l-92.296875 182.60938l-29.9375 0l0 -236.96875l29.9375 0l0 182.60938l92.296875 -182.60938zm186.18945 236.96875l0 -92.28125l-41.015625 0l-40.859375 92.28125l-31.734375 0l46.390625 -101.390625q-38.734375 -18.078125 -38.734375 -64.140625q0 -33.359375 18.625 -52.3125q18.640625 -18.96875 52.171875 -19.125l65.109375 0l0 236.96875l-29.953125 0zm-76.015625 -165.53125q0 21.484375 10.734375 34.4375q10.75 12.9375 30.125 13.25l35.15625 0l0 -93.421875l-34.828125 0q-20.1875 0 -30.6875 12.21875q-10.5 12.203125 -10.5 33.515625zm385.09668 90.34375q-1.953125 38.078125 -21.40625 58.265625q-19.453125 20.171875 -54.93799 20.171875q-35.640625 0 -56.640625 -27.09375q-20.984375 -27.09375 -20.984375 -73.484375l0 -42.96875q0 -46.21875 21.5625 -73.078125q21.5625 -26.859375 58.828125 -26.859375q34.34424 0 53.141113 20.59375q18.796875 20.59375 20.4375 58.828125l-30.109375 0q-1.953125 -28.96875 -12.21875 -41.328125q-10.25 -12.375 -31.250488 -12.375q-24.25 0 -37.265625 18.96875q-13.015625 18.953125 -13.015625 55.578125l0 43.453125q0 35.96875 12.125 55.171875q12.125 19.203125 35.390625 19.203125q23.281738 0 33.53174 -11.546875q10.25 -11.5625 12.703125 -41.5l30.109375 0zm178.86816 -136.07812l-62.34375 0l0 211.26562l-29.78125 0l0 -211.26562l-62.171875 0l0 -25.703125l154.29688 0l0 25.703125zm16.265137 -25.703125l82.03125 0l0 96.671875l47.203125 0q32.234375 0 50.296875 18.5625q18.0625 18.546875 18.0625 50.9375q0 32.390625 -18.15625 51.59375q-18.140625 19.203125 -50.53125 19.203125l-76.984375 0l0 -212.23438l-51.921875 0l0 -24.734375zm82.03125 122.390625l0 89.03125l47.53125 0q17.90625 0 27.984375 -12.28125q10.09375 -12.296875 10.09375 -33.296875q0 -20.34375 -9.84375 -31.8125q-9.84375 -11.484375 -27.75 -11.640625l-48.015625 0zm306.313 -122.390625l0 236.96875l-29.9375 0l0 -211.26562l-66.25 0l-3.578125 99.609375q-1.953125 43.625 -8.3125 66.578125q-6.34375 22.9375 -18.546875 33.84375q-12.203125 10.90625 -32.0625 11.234375l-9.109375 0l0 -25.546875l5.53125 -0.328125q11.875 -0.984375 18.546875 -9.203125q6.6875 -8.21875 10.09375 -26.109375q3.421875 -17.90625 4.890625 -54.703125l3.90625 -121.078125l124.828125 0zm175.12842 25.703125l-93.25 0l0 70.96875l47.84375 0q31.90625 0.15625 49.96875 18.640625q18.0625 18.46875 18.0625 50.859375q0 32.546875 -18.3125 51.671875q-18.3125 19.125 -50.703125 19.125l-76.8125 0l0 -236.96875l123.203125 0l0 25.703125zm-93.25 96.6875l0 89.03125l47.515625 0q18.234375 0 28.3125 -12.53125q10.09375 -12.546875 10.09375 -33.046875q0 -20.1875 -10.015625 -31.8125q-10.0 -11.640625 -28.21875 -11.640625l-47.6875 0z" fill-rule="nonzero"/><path fill="#073763" d="m314.36063 349.67972l-25.885986 17.645233l-27.81134 18.957947l-30.40915 20.575928l-58.64836 40.26654l-16.564575 11.6006775l-5.3789062 3.7244263l-1.6503448 1.098999l-0.48898315 0.30526733l-0.27505493 0.1831665l-0.76405334 0.45794678l-0.9474182 0.5189514l-1.833725 0.9768982l-0.42785645 0.24423218l-0.4889984 0.27474976l-1.1307831 0.5800476l-1.2530518 0.5494995l-1.1307831 0.48846436l-0.5806732 0.27474976l-0.2750702 0.15261841l-0.21392822 0.15264893l-0.21392822 0.15264893l-0.15281677 0.1831665l-0.15280151 0.15264893l-0.12225342 0.1831665l-0.09169006 0.1831665l-0.06112671 0.21368408l-0.030548096 0.1831665l-0.030563354 0.2137146l0.030563354 0.21368408l0.030548096 0.24423218l0.06112671 0.24423218l0.09169006 0.27474976l0.6417999 1.8011475l0.5806732 1.8927307l0.4889984 1.8622131l0.39730835 1.801178l0.27505493 1.6484985l0.12223816 1.4348145l0.030563354 0.6105652l-0.030563354 0.51898193l-0.06111145 0.45791626l-0.030563354 0.1831665l-0.06112671 0.1831665l-0.030563354 0.09158325l-0.06112671 0.09161377l-0.15280151 0.21368408l-0.18338013 0.27474976l-0.27505493 0.27474976l-0.6112366 0.6105652l-0.82518005 0.70214844l-0.91685486 0.7632141l-1.0391083 0.7631836l-2.2615814 1.5874634l-3.0256348 2.0758972l-4.034172 2.900177l-8.893524 6.746704l-5.8067703 4.6402893l-1.803154 1.5874329l-0.6723633 0.67163086l-0.5501175 0.6105652l-0.42786407 0.5800171l-0.33618164 0.54953l-0.2444992 0.5494995l-0.15280914 0.5494995l-0.091682434 0.5494995l-0.06112671 0.6105652l0 1.3737793l0.2444992 5.586609l0.51955414 5.128723l0.3056183 2.1674805l0.366745 1.7401123l0.18336487 0.70214844l0.1833725 0.5800171l0.1833725 0.4274292l0.09169006 0.15264893l0.091682434 0.091552734l0.030563354 0.030517578l0.030563354 0.030578613l0.15280914 0.030517578l0.42786407 0.12207031l1.4364166 0.27478027l4.9510345 0.67163086l15.494896 1.5263672l16.625702 1.4653931l6.1735077 0.70214844l2.1699066 0.30523682l1.4364014 0.21374512l1.2224884 0.21368408l1.5586548 0.24420166l3.973053 0.45794678l4.5842896 0.3968506l4.7371063 0.30529785l4.7676544 0.33581543l4.7676697 0.45788574l4.156418 0.48846436l3.0256348 0.45794678l2.597763 0.48840332l3.0256348 0.45794678l5.8067627 0.67163086l7.3348694 0.732666l10.880051 1.251648l25.4581 3.2664795l17.787064 2.1674805l13.080505 1.4653931l13.35556 1.9232788l11.369049 2.0148315l4.248108 0.9158325l2.9033813 0.7937622l1.3447266 0.48840332l1.5281067 0.6105957l3.422943 1.5263672l3.4840393 1.7095947l3.1478882 1.6790161l5.6845093 3.3886719l2.4143982 1.4042358l1.7114868 0.91589355l2.9033813 1.7400513l1.4975281 0.94641113l1.3141785 0.88531494l0.9779663 0.61053467l1.1307983 0.6411133l2.5977478 1.251648l2.93396 1.251648l3.1784363 1.1600952l3.239563 1.0684814l3.1784363 0.88531494l2.964508 0.6715698l2.658905 0.4274292l1.4975281 0.091552734l1.925415 0.030517578l4.706543 -0.091552734l5.3483276 -0.30529785l5.3789062 -0.48846436l6.9986877 -0.64105225l2.6894531 -0.15264893l2.3838196 -0.030517578l2.231018 0.091552734l2.231018 0.2442627l2.38385 0.3968506l2.7505798 0.51898193l3.6062927 0.7937012l3.239563 0.7937622l2.4449463 0.70214844l0.8251953 0.30523682l0.30560303 0.12213135l0.21392822 0.09161377l1.6197815 0.7631836l2.9034119 1.251648l8.098907 3.3580933l14.333557 6.0445557l9.657562 4.0907593l4.21756 1.617981l5.226074 1.8317261l6.448578 2.3201294l2.20047 0.8547363l0.6723633 0.30529785l0.24447632 0.12213135l0.12225342 0.061035156l0.30563354 0.1831665l0.36672974 0.21368408l0.42785645 0.21374512l0.48901367 0.21368408l0.51953125 0.21368408l0.5501404 0.21368408l0.58065796 0.21368408l0.55010986 0.15264893l2.5366516 0.88531494l4.6454163 1.7706299l13.080505 5.067688l22.310211 8.944702l14.027954 5.9224854l13.9973755 5.9224243l8.098877 3.5717773l31.692749 14.745056l4.859375 2.3201294l1.925354 0.85479736l1.619812 0.6411133l1.3447266 0.42736816l0.55010986 0.15264893l0.48901367 0.09161377l0.39727783 0.030517578l0.18334961 0l0.15283203 -0.030517578l0.15283203 -0.030517578l0.12225342 -0.030578613l0.091674805 -0.061035156l0.091674805 -0.061035156l0.48901367 -0.45794678l0.64178467 -0.7631836l1.8031616 -2.2896118l4.767639 -6.53302l4.95105 -7.204651l1.9865112 -3.083313l1.4058838 -2.3811646l22.646362 -39.19806l4.645447 -7.5404663l10.78833 -17.00415l18.428894 -29.52063l10.880005 -17.55365l12.499878 -19.934845l13.263855 -21.49179l4.706543 -7.3572693l1.7420044 -2.6253967l0.6112671 -0.88531494l0.39727783 -0.5494995l0.15283203 -0.2137146l0.15283203 -0.21368408l0.30560303 -0.51898193l0.27508545 -0.5800476l0.2444458 -0.64108276l0.21392822 -0.67160034l0.18341064 -0.67163086l0.12225342 -0.70214844l0.06109619 -0.64108276l0.061157227 -0.88531494l-0.030578613 -0.366333l-0.030578613 -0.33581543l-0.030578613 -0.30526733l-0.091674805 -0.27478027l-0.12225342 -0.21368408l-0.06109619 -0.12210083l-0.061157227 -0.09158325l-0.18334961 -0.1831665l-0.24450684 -0.18319702l-0.24450684 -0.15261841l-0.30560303 -0.12213135l-0.33618164 -0.12210083l-0.39727783 -0.12210083l-0.94744873 -0.1831665l-0.9473877 -0.2137146l-0.39733887 -0.12210083l-0.33618164 -0.12213135l-0.30560303 -0.15261841l-0.27508545 -0.15264893l-0.2444458 -0.1831665l-0.18341064 -0.2137146l-0.18334961 -0.24420166l-0.12225342 -0.27474976l-0.12225342 -0.30529785l-0.091674805 -0.366333l-0.091674805 -0.42739868l-0.061157227 -0.45791626l-0.091674805 -1.0684814l-0.27508545 -3.26651l-0.61120605 -3.480194l-0.8557129 -3.5717773l-1.1002808 -3.5718079l-1.2224731 -3.3275452l-1.3447266 -3.0222778l-0.6723633 -1.3432312l-0.70288086 -1.1906128l-0.7029419 -1.0379333l-0.7029419 -0.85479736l-0.55010986 -0.5494995l-0.64178467 -0.5800476l-0.7335205 -0.5494995l-0.79455566 -0.5800476l-0.8251953 -0.5189514l-0.8557129 -0.51898193l-0.8251953 -0.42739868l-0.7946167 -0.366333l-1.0085449 -0.51898193l-1.4975586 -0.85479736l-4.2175293 -2.503296l-11.063416 -7.113037l-22.279663 -14.28714l-20.384827 -11.753326l-9.504761 -4.9150085l-8.985168 -4.304474l-8.526794 -3.632843l-8.068359 -2.9917603l-5.5011597 -1.7400818l-5.929016 -1.5874634l-6.173523 -1.3432312l-6.173523 -1.1295471l-6.0512695 -0.85479736l-5.7456055 -0.5189514l-5.1955566 -0.2137146l-4.4926147 0.1831665l-6.081787 0.70214844l-6.0512695 1.0990295l-5.929016 1.4348145l-5.715088 1.8011475l-5.5011597 2.0758972l-5.226074 2.381195l-4.859375 2.6559448l-4.4314575 2.9306946l-2.1393433 1.4348145l-2.0170898 1.1906128l-0.8557434 0.45791626l-0.73349 0.366333l-0.33618164 0.12213135l-0.27505493 0.09158325l-0.24447632 0.061035156l-0.09170532 0.030548096l-0.091674805 0l-0.06112671 0l-0.091674805 -0.030548096l-0.18338013 -0.061035156l-0.21392822 -0.12213135l-0.21392822 -0.12210083l-0.27508545 -0.1831665l-0.24447632 -0.2137146l-0.5806885 -0.5494995l-0.64178467 -0.6105652l-0.6418152 -0.732666l-0.64178467 -0.82424927l-0.6112366 -0.85479736l-1.8642883 -2.4727783l-2.4143982 -2.71698l-2.781128 -2.8391113l-2.9950867 -2.8696594l-3.1173096 -2.71698l-3.0867615 -2.4727783l-2.8728027 -2.1064453l-2.5672302 -1.617981l-3.4840393 -1.8622131l-3.7285767 -1.7401123l-3.9119263 -1.648529l-4.0341797 -1.4958496l-4.1258545 -1.3432617l-4.1258545 -1.1600647l-4.1258545 -0.9768982l-4.0341797 -0.7631836l-4.0341797 -0.67163086l-3.422943 -0.6105652l-2.475525 -0.51898193l-0.7640381 -0.1831665l-0.24450684 -0.09158325l-0.091674805 -0.030517578l-0.091674805 -0.030517578l-0.030578613 -0.030548096l-0.06112671 0l-0.21392822 -0.030517578l-0.7946167 -0.061065674l-2.8728027 -0.12210083l-10.268829 -0.24423218l-33.1597 -0.3968506l-39.02762 -0.67163086l-9.474182 -0.5800171l-3.1784363 -0.3968811l-2.5366516 -0.48843384l-7.5487976 -1.7401123l-7.5487976 5.403473zm19.40683 1.0684814l2.231018 0.1831665l3.5451965 0.21368408l10.299377 0.33581543l28.116974 0.33581543l25.488647 0.27474976l19.131775 0.88531494l7.854431 0.7632141l6.9986877 0.9463501l6.479126 1.1906128l6.1429443 1.4348145l6.081848 1.8011475l5.929016 2.2896118l5.6845093 2.7170105l5.440033 3.1443787l5.1038513 3.5107422l4.737091 3.846527l4.3397827 4.151825l3.8813782 4.4876404l5.0732727 6.4719543l-2.5977478 2.3811646l-12.285919 11.417511l-49.60202 47.379578l-50.029907 47.654358l-12.347015 11.203796l-3.3006897 2.6864624l-0.9474182 0.67163086l-0.33618164 0.1831665l-0.12225342 0.030517578l-0.06112671 0l-0.091674805 0.030517578l-0.06112671 0l-0.15280151 0.06109619l-0.18338013 0.091552734l-0.21392822 0.15264893l-0.48901367 0.366333l-0.58065796 0.48846436l-0.6112366 0.61053467l-0.6723633 0.67163086l-1.3447266 1.4959106l-3.3618164 4.0907593l-6.662506 -7.418335l-4.981598 -5.1592712l-5.164978 -4.7623596l-5.3789062 -4.365509l-5.653961 -4.029724l-5.929016 -3.632843l-6.204071 -3.2970276l-6.5402527 -2.9917603l-6.8458557 -2.6253967l-4.0647583 -1.4042969l-4.0341797 -1.251648l-4.248108 -1.0990295l-4.767639 -1.0684814l-12.071991 -2.1674805l-17.175812 -2.5948792l-2.047638 -0.27478027l-2.9339447 -0.24420166l-8.098923 -0.48846436l-20.87381 -0.732666l-46.79033 -2.136963l-15.067032 -1.0990295l-5.195526 -0.3357849l-2.5977783 -0.09158325l-0.5195465 -0.030548096l-0.4889984 -0.030517578l-0.42785645 -0.09158325l-0.18338013 -0.030517578l-0.18336487 -0.061065674l-0.18338013 -0.061065674l-0.15280151 -0.061065674l-0.12225342 -0.061035156l-0.12223816 -0.061065674l-0.030563354 -0.061065674l-0.030563354 -0.030517578l-0.030563354 -0.061065674l-0.030563354 -0.030517578l-0.030563354 -0.061065674l-0.030563354 -0.030517578l0 -0.061065674l0 -0.030517578l0 -0.030517578l0 -0.030548096l0.030563354 -0.061035156l0.06112671 -0.061065674l0.06112671 -0.09158325l0.18336487 -0.1831665l0.24449158 -0.24423218l0.6723633 -0.6105652l0.88630676 -0.70214844l2.3227081 -1.7400818l2.8422546 -1.9537964l18.551102 -13.035492l54.46138 -37.244263l62.590866 -42.31195l17.664795 -12.119629l8.129486 -5.769806l0.7029114 -0.48846436l0.7029419 -0.3968506l0.7029114 -0.366333l0.6723633 -0.27474976l0.64178467 -0.2137146l0.27508545 -0.09158325l0.27505493 -0.030517578l0.27505493 -0.030548096l0.21392822 0l0.21392822 0l0.091674805 0.030548096l0.09170532 0.030517578l0.18334961 0.061065674l0.27508545 0.061035156l0.7334595 0.15264893l2.1087952 0.366333l5.8678894 0.85479736zm240.4002 22.499207l7.7321777 1.6484985l8.80188 2.6254272l9.565857 3.4496765l10.085449 4.1823425l10.329956 4.7929077l10.299377 5.3118896l9.993713 5.647705l9.413086 5.9529724l4.645447 2.9306946l1.46698 0.9463501l0.39727783 0.24423218l0.12225342 0.061065674l0.06109619 0l0 0.030517578l0 0l0.030578613 0l0 0l0.091674805 0.030548096l0.24450684 0.15261841l0.8862915 0.51898193l3.0562134 1.9537964l9.902039 6.4719543l10.177124 6.594055l3.3312988 2.1064453l1.0085449 0.6105652l0.30560303 0.1831665l0.18334961 0.09158325l0.12225342 0.030548096l0.12225342 0.061035156l0.061157227 0.030548096l0.030517578 0.030517578l0.030578613 0.061065674l0.06109619 0.030517578l0.030578613 0.061065674l0.030578613 0.030517578l0 0.061065674l0.030578613 0.061035156l0.030517578 0.09158325l0 0.15264893l0 0.12213135l-0.030517578 0.15261841l-0.030578613 0.15264893l-0.061157227 0.15264893l-0.091674805 0.1831665l-0.091674805 0.1831665l-0.24450684 0.3968506l-0.45843506 0.73269653l-0.9168091 1.4042664l-3.0256348 4.518158l-9.199158 13.707123l-31.14264 48.264893l-22.126831 35.38205l-11.949707 18.957947l-15.586609 23.872986l-6.5097046 9.463684l-2.078186 2.8085938l-0.64178467 0.7631836l-0.18341064 0.1831665l-0.06109619 0.061035156l-0.030578613 0l-0.030578613 0l-0.06109619 0l-0.091674805 0l-0.12225342 -0.030517578l-0.091674805 -0.030517578l-0.21398926 -0.091552734l-0.2444458 -0.12213135l-0.21392822 -0.15264893l-0.24450684 -0.15264893l-0.24450684 -0.1831665l-0.21392822 -0.21368408l-0.64178467 -0.366333l-1.3447266 -0.7631836l-4.645447 -2.4727783l-14.394653 -7.6015015l-24.785767 -12.913391l-33.4653 -17.523132l-15.158722 -7.1740723l-14.241882 -6.1361694l-13.416687 -5.1592407l-12.744324 -4.2128906l-12.163666 -3.3580933l-11.674652 -2.5338135l-5.9595947 -0.9463501l-6.4179993 -0.7937622l-13.111084 -1.0073853l-6.1734924 -0.1831665l-5.5622864 0.030517578l-4.706543 0.24420166l-1.9253845 0.24420166l-1.6197815 0.27478027l-2.3532715 0.3968506l-1.1002502 0.15264893l-0.9779663 0.061035156l-0.8557434 0.030578613l-0.36672974 -0.030578613l-0.30563354 -0.030517578l-0.30560303 -0.030517578l-0.21392822 -0.061035156l-0.12225342 -0.030517578l-0.06112671 -0.030578613l-0.09170532 -0.061035156l-0.030548096 -0.061035156l-0.030548096 0l0 -0.030517578l0 -0.06109619l0 -0.030517578l0.030548096 -0.12213135l0.091674805 -0.12207031l0.21395874 -0.366333l0.33618164 -0.45794678l0.9779663 -1.1906128l1.3447266 -1.4958496l3.6368713 -3.7549744l4.614868 -4.4265747l42.328278 -40.358124l77.07721 -73.20633l2.8728333 -2.503296l2.9339294 -2.3506775l3.0867615 -2.2285461l3.2701416 -2.1064453l3.5145874 -2.0453796l3.7591553 -1.984314l4.1258545 -1.9537964l4.462036 -1.9537964l2.078247 -0.7937317l2.231018 -0.73269653l4.8898926 -1.1905823l5.409485 -0.88531494l5.8067627 -0.5494995l6.1429443 -0.2137146l6.326294 0.12213135l6.479126 0.48843384l6.479126 0.8242798zm119.34442 63.345764l0.42785645 0.48843384l0.39727783 0.6105652l0.39733887 0.6411133l0.36676025 0.70214844l0.70288086 1.6790161l0.6418457 1.9232788l0.61120605 2.2285461l0.55010986 2.5643616l0.9779663 6.0445557l1.0697021 7.4488525l-4.5231934 7.3267517l-3.5145874 5.8003235l-1.3447266 2.1980286l-0.45843506 0.82424927l-0.30560303 0.54953l-6.020752 9.372101l-3.6674194 5.769806l-1.2835693 2.1369934l-0.42791748 0.732666l-0.2444458 0.48843384l-0.24450684 0.45791626l-0.39733887 0.70214844l-1.2224731 2.0759277l-3.5145874 5.5866394l-14.027954 22.59076l-29.431152 46.738525l-13.35553 20.911743l-14.547485 22.621277l-2.7200317 4.1518555l-2.2921753 3.7549438l-1.7114258 2.9612427l-0.5195923 1.0379028l-0.18334961 0.39691162l-0.12225342 0.27471924l-0.18334961 0.6105957l-0.27508545 0.51898193l-0.2750244 0.45788574l-0.27508545 0.33581543l-0.15283203 0.15264893l-0.152771 0.12213135l-0.18341064 0.12207031l-0.152771 0.09161377l-0.15283203 0.061035156l-0.15283203 0.030517578l-0.152771 0.030517578l-0.15283203 0l-0.12225342 0l-0.152771 -0.030517578l-0.12225342 -0.061035156l-0.12225342 -0.061035156l-0.091674805 -0.09161377l-0.12225342 -0.12213135l-0.091674805 -0.15258789l-0.061157227 -0.15264893l-0.06109619 -0.15264893l-0.030578613 -0.21368408l-0.030578613 -0.21374512l-0.030578613 -0.24420166l0.030578613 -0.51898193l0.12225342 -0.61053467l0.061157227 -0.30529785l0.030517578 -0.3968506l0.030578613 -1.0684814l-0.06109619 -1.3737793l-0.09173584 -1.617981l-0.39727783 -3.7855225l-0.64178467 -4.1517944l-0.6112671 -4.4265747l-0.5806885 -4.701294l-0.45843506 -4.3655396l-0.2750244 -3.5412598l-0.061157227 -2.2590942l0.030578613 -1.831665l0.091674805 -0.7937622l0.09173584 -0.7631836l0.152771 -0.70214844l0.21392822 -0.70214844l0.27508545 -0.70214844l0.36676025 -0.732666l0.9473877 -1.617981l3.0562134 -4.4265747l6.173523 -9.036316l8.648987 -13.310242l21.393372 -33.977783l17.695374 -28.207916l9.382507 -15.050354l11.980286 -18.77478l11.063416 -16.576721l8.373962 -11.814392l2.628357 -3.3580933l0.8557129 -0.85476685l0.27508545 -0.24423218l0.091674805 -0.061065674l0.091674805 0l0.030578613 0l0.030578613 0l0.091674805 0.030548096l0.091674805 0.030517578l0.12225342 0.09158325l0.2750244 0.15264893l0.27508545 0.24423218l0.33618164 0.27474976l0.33618164 0.30526733l0.33618164 0.33581543l0.33618164 0.366333zm-534.4061 39.07596l14.241867 1.2210999l17.420303 1.0990295l39.486023 1.465332l15.433792 0.42739868l11.4301605 0.7632141l10.391052 1.3127136l12.347046 2.1064148l6.479126 1.3737793l6.570801 1.6484985l5.7456665 1.7095947l2.2921448 0.7937317l1.772583 0.732666l1.3447266 0.5800171l1.2224731 0.48846436l0.51956177 0.15264893l0.42785645 0.15261841l0.33618164 0.09158325l0.12225342 0l0.12225342 0.030548096l0.15280151 0l0.21392822 0.061035156l0.6418152 0.2137146l1.8642578 0.82424927l5.3789062 2.6864624l6.173523 3.3886414l2.8117065 1.6484985l2.3838196 1.4958801l3.0867615 2.1980286l3.0867615 2.381195l3.086731 2.5643616l3.0256348 2.7780457l2.964508 2.9917603l2.93396 3.1444092l2.8422546 3.296997l2.8117065 3.4802246l3.697998 5.006592l2.6588745 3.81604l0.9168701 1.5263672l0.6723633 1.2821655l0.39730835 1.0379639l0.091674805 0.4274292l0.030578613 0.3968506l-0.030578613 0.30529785l-0.030548096 0.15258789l-0.06112671 0.12213135l-0.06112671 0.12213135l-0.091674805 0.091552734l-0.12225342 0.09161377l-0.12225342 0.061035156l-0.27505493 0.12213135l-0.36676025 0.091552734l-0.42785645 0l-0.48898315 0l-1.191925 -0.1831665l-1.4364014 -0.30523682l-3.66745 -1.1295776l-3.9119263 -1.0379639l-1.8337097 -0.3357544l-1.7114563 -0.21374512l-1.6197815 -0.091552734l-1.5281067 0.030517578l-1.4364319 0.15264893l-1.314148 0.27471924l-1.2224731 0.39691162l-1.1002197 0.48840332l-0.9779968 0.6411133l-0.8862915 0.7631836l-0.7640686 0.85479736l-0.64178467 1.0074463l-0.51956177 1.098999l-0.36672974 1.2211304l-0.15280151 0.6411133l-0.21395874 0.7020874l-0.27505493 0.73272705l-0.30560303 0.732666l-0.30563354 0.70214844l-0.33618164 0.70214844l-0.36672974 0.64105225l-0.30563354 0.5494995l-1.6197815 2.4727783l-5.3789062 -4.853943l-2.5977478 -2.197998l-2.7811584 -2.198059l-2.8422546 -2.136963l-2.8422546 -1.9537964l-2.781128 -1.7706299l-2.5671997 -1.4958496l-2.2921448 -1.1906128l-1.0085449 -0.45794678l-0.8862915 -0.366333l-0.7640686 -0.24420166l-0.7946167 -0.30529785l-1.5892029 -0.70214844l-0.7640686 -0.366333l-0.7029114 -0.366333l-0.6112366 -0.366333l-0.48898315 -0.33581543l-0.48901367 -0.27471924l-0.51953125 -0.2442627l-0.5806885 -0.24420166l-0.5806885 -0.21368408l-0.58065796 -0.1831665l-0.55010986 -0.12213135l-0.5501404 -0.09161377l-0.24447632 0l-0.21392822 -0.030517578l-0.48901367 0l-0.48898315 -0.061035156l-0.48898315 -0.09161377l-0.42785645 -0.12207031l-0.42788696 -0.15264893l-0.36672974 -0.15264893l-0.15283203 -0.09161377l-0.15280151 -0.091552734l-0.15280151 -0.09161377l-0.091674805 -0.12207031l-0.18338013 -0.09161377l-0.24450684 -0.12207031l-0.7029114 -0.30529785l-2.2615967 -0.732666l-6.662506 -1.7706299l-7.732147 -1.7401123l-3.5451965 -0.70214844l-2.93396 -0.45794678l-16.167252 -2.2590332l-3.422943 -0.366333l-4.523163 -0.36639404l-12.499832 -0.61053467l-39.18042 -0.9158325l-37.31613 -0.85479736l-8.649033 -0.5494995l-1.2224731 -0.12213135l-0.8862915 -0.15264893l-0.3056183 -0.091552734l-0.24450684 -0.09161377l-0.15280151 -0.091552734l-0.030563354 -0.030517578l-0.030563354 -0.06109619l-0.030563354 -0.061035156l-0.030563354 -0.09161377l0 -0.21368408l0.030563354 -0.30523682l0.030563354 -0.36639404l0.18338013 -0.88531494l0.27505493 -1.0684509l0.7640381 -2.5948792l1.0391083 -2.9306946l1.0696716 -3.052826l0.97798157 -3.1443787l0.85572815 -3.26651l0.76405334 -3.2970276l0.6112366 -3.3275757l0.45843506 -3.3275452l0.366745 -3.2970276l0.18336487 -3.2054749l0.21394348 -4.1823425l0.15280151 -1.2821655l0.09169006 -0.45791626l0.12223816 -0.33581543l0.06112671 -0.15264893l0.06112671 -0.12210083l0.09169006 -0.09158325l0.06112671 -0.09158325l0.091674805 -0.061065674l0.12225342 -0.030517578l0.09169006 -0.030548096l0.12223816 0l0.12225342 0l0.12225342 0l0.3056183 0.09158325l0.7640381 0.27474976l0.21394348 0.061065674l0.3056183 0.09158325l0.85572815 0.2137146l2.4449615 0.42736816l3.147873 0.42739868l3.4840698 0.3968811zm257.63718 49.608154l9.596436 1.8927002l11.827484 2.8085938l10.666107 2.8391113l3.8813782 1.1906128l1.3752747 0.48846436l0.9474182 0.366333l0.51956177 0.24420166l0.8251648 0.366333l2.475525 1.0074463l6.937561 2.6864624l11.705231 5.128723l17.145233 8.120483l18.092651 8.914185l14.516968 7.47937l30.19519 15.813538l15.250427 8.089966l4.9815674 2.71698l1.4975586 0.88531494l0.45843506 0.30529785l0.152771 0.12207031l0.091674805 0.06109619l0.09173584 0.091552734l0.091674805 0.15264893l0.18334961 0.33581543l0.15283203 0.45794678l0.152771 0.5800171l0.33618164 1.5264282l0.30566406 2.0148315l0.58062744 5.4034424l0.5806885 7.2962646l0.5195923 6.838257l0.64178467 6.2582397l0.6723633 5.006653l0.33618164 1.8621826l0.30560303 1.251648l0.30560303 0.9158325l0.24450684 0.88531494l0.18341064 0.7937622l0.152771 0.732666l0.061157227 0.61053467l0 0.27478027l0 0.24420166l0 0.1831665l-0.030578613 0.09161377l-0.030578613 0.061035156l0 0.06109619l-0.030578613 0.061035156l-0.030517578 0.030517578l-0.061157227 0.030517578l0 0.030517578l-0.030517578 0l-0.061157227 0l-0.091674805 0.030578613l-0.091674805 -0.030578613l-0.21392822 -0.030517578l-0.24450684 -0.091552734l-0.6723633 -0.2442627l-0.8251953 -0.3968506l-2.0170898 -1.098999l-2.3532715 -1.4042969l-2.3226929 -1.4042969l-2.0476685 -1.1600952l-0.8557129 -0.45788574l-0.7029419 -0.33581543l-0.51953125 -0.21368408l-0.18334961 -0.06109619l-0.09173584 -0.030517578l-0.06109619 0l-0.061157227 0l-0.091674805 -0.030517578l-0.30560303 -0.12213135l-0.9168701 -0.42736816l-3.0561523 -1.5874634l-9.2908325 -5.128723l-10.6050415 -6.105591l-8.343384 -5.006592l-2.5977783 -1.618042l-2.2921143 -1.3432007l-0.97802734 -0.51898193l-0.7946167 -0.3968506l-0.61120605 -0.2442627l-0.21392822 -0.061035156l-0.061157227 -0.030517578l-0.091674805 0l-0.06109619 0l-0.061157227 0l-0.152771 -0.030517578l-0.18341064 -0.06109619l-0.21392822 -0.091552734l-0.45843506 -0.21368408l-0.51953125 -0.27478027l-0.5806885 -0.33581543l-0.5806885 -0.3968506l-0.61120605 -0.3968506l-0.5806885 -0.45794678l-1.0391235 -0.70214844l-1.6809082 -1.0074463l-4.920471 -2.7474976l-13.72229 -7.1741333l-14.394684 -7.113037l-5.745636 -2.6864624l-3.8813782 -1.617981l-2.1393433 -0.8242798l-1.9253845 -0.82421875l-1.4975281 -0.67163086l-0.51956177 -0.27478027l-0.36676025 -0.21368408l-0.21392822 -0.12207031l-0.33618164 -0.15264893l-1.0696716 -0.4274292l-3.3618164 -1.2211304l-9.840942 -3.235962l-10.360474 -3.2054443l-4.0647583 -1.1295166l-2.5671997 -0.6105957l-3.5757446 -0.7631836l-1.8337097 -0.42736816l-1.5892334 -0.4274292l-3.514618 -0.85479736l-4.21756 -0.85479736l-10.054871 -1.5263672l-11.307922 -1.1906128l-11.521851 -0.7631836l-16.503448 -0.732666l-0.64178467 -7.7541504l-0.45843506 -3.1444092l-0.7640381 -3.235962l-1.1002502 -3.297058l-1.3752747 -3.3580322l-1.6809082 -3.3580933l-1.925415 -3.3580933l-2.231018 -3.3275757l-2.4449463 -3.3275757l-1.1002502 -1.5263672l-0.42785645 -0.67163086l-0.33618164 -0.6411133l-0.27505493 -0.5800171l-0.18338013 -0.5494995l-0.091674805 -0.45794678l-0.030548096 -0.24420166l0 -0.1831665l0.030548096 -0.1831665l0.030548096 -0.1831665l0.06112671 -0.15264893l0.09170532 -0.12213135l0.091674805 -0.12213135l0.12225342 -0.091552734l0.15280151 -0.09161377l0.15280151 -0.061035156l0.18338013 -0.030517578l0.21392822 -0.030517578l0.21392822 -0.030517578l0.24450684 0.030517578l0.55010986 0.061035156l0.6418152 0.15264893l0.21392822 0.091552734l0.24450684 0.06109619l0.24447632 0.061035156l0.24450684 0.030517578l0.24447632 0l0.24450684 0l0.24450684 0l0.21392822 -0.030517578l0.24450684 -0.030517578l0.21392822 -0.030517578l0.21392822 -0.09161377l0.21392822 -0.061035156l0.18338013 -0.09161377l0.18338013 -0.091552734l0.15280151 -0.12213135l0.15280151 -0.12207031l0.33618164 -0.18322754l0.45843506 -0.21368408l1.3752747 -0.33581543l1.8642883 -0.30523682l2.2615967 -0.2442627l5.6233826 -0.30523682l6.6319275 -0.12213135l14.333557 0.42736816l6.7542114 0.51898193l5.8067627 0.7632446z" fill-rule="evenodd"/><path stroke="#073763" stroke-width="8.0" stroke-linejoin="round" stroke-linecap="butt" d="m314.36063 349.67972l-25.885986 17.645233l-27.81134 18.957947l-30.40915 20.575928l-58.64836 40.26654l-16.564575 11.6006775l-5.3789062 3.7244263l-1.6503448 1.098999l-0.48898315 0.30526733l-0.27505493 0.1831665l-0.76405334 0.45794678l-0.9474182 0.5189514l-1.833725 0.9768982l-0.42785645 0.24423218l-0.4889984 0.27474976l-1.1307831 0.5800476l-1.2530518 0.5494995l-1.1307831 0.48846436l-0.5806732 0.27474976l-0.2750702 0.15261841l-0.21392822 0.15264893l-0.21392822 0.15264893l-0.15281677 0.1831665l-0.15280151 0.15264893l-0.12225342 0.1831665l-0.09169006 0.1831665l-0.06112671 0.21368408l-0.030548096 0.1831665l-0.030563354 0.2137146l0.030563354 0.21368408l0.030548096 0.24423218l0.06112671 0.24423218l0.09169006 0.27474976l0.6417999 1.8011475l0.5806732 1.8927307l0.4889984 1.8622131l0.39730835 1.801178l0.27505493 1.6484985l0.12223816 1.4348145l0.030563354 0.6105652l-0.030563354 0.51898193l-0.06111145 0.45791626l-0.030563354 0.1831665l-0.06112671 0.1831665l-0.030563354 0.09158325l-0.06112671 0.09161377l-0.15280151 0.21368408l-0.18338013 0.27474976l-0.27505493 0.27474976l-0.6112366 0.6105652l-0.82518005 0.70214844l-0.91685486 0.7632141l-1.0391083 0.7631836l-2.2615814 1.5874634l-3.0256348 2.0758972l-4.034172 2.900177l-8.893524 6.746704l-5.8067703 4.6402893l-1.803154 1.5874329l-0.6723633 0.67163086l-0.5501175 0.6105652l-0.42786407 0.5800171l-0.33618164 0.54953l-0.2444992 0.5494995l-0.15280914 0.5494995l-0.091682434 0.5494995l-0.06112671 0.6105652l0 1.3737793l0.2444992 5.586609l0.51955414 5.128723l0.3056183 2.1674805l0.366745 1.7401123l0.18336487 0.70214844l0.1833725 0.5800171l0.1833725 0.4274292l0.09169006 0.15264893l0.091682434 0.091552734l0.030563354 0.030517578l0.030563354 0.030578613l0.15280914 0.030517578l0.42786407 0.12207031l1.4364166 0.27478027l4.9510345 0.67163086l15.494896 1.5263672l16.625702 1.4653931l6.1735077 0.70214844l2.1699066 0.30523682l1.4364014 0.21374512l1.2224884 0.21368408l1.5586548 0.24420166l3.973053 0.45794678l4.5842896 0.3968506l4.7371063 0.30529785l4.7676544 0.33581543l4.7676697 0.45788574l4.156418 0.48846436l3.0256348 0.45794678l2.597763 0.48840332l3.0256348 0.45794678l5.8067627 0.67163086l7.3348694 0.732666l10.880051 1.251648l25.4581 3.2664795l17.787064 2.1674805l13.080505 1.4653931l13.35556 1.9232788l11.369049 2.0148315l4.248108 0.9158325l2.9033813 0.7937622l1.3447266 0.48840332l1.5281067 0.6105957l3.422943 1.5263672l3.4840393 1.7095947l3.1478882 1.6790161l5.6845093 3.3886719l2.4143982 1.4042358l1.7114868 0.91589355l2.9033813 1.7400513l1.4975281 0.94641113l1.3141785 0.88531494l0.9779663 0.61053467l1.1307983 0.6411133l2.5977478 1.251648l2.93396 1.251648l3.1784363 1.1600952l3.239563 1.0684814l3.1784363 0.88531494l2.964508 0.6715698l2.658905 0.4274292l1.4975281 0.091552734l1.925415 0.030517578l4.706543 -0.091552734l5.3483276 -0.30529785l5.3789062 -0.48846436l6.9986877 -0.64105225l2.6894531 -0.15264893l2.3838196 -0.030517578l2.231018 0.091552734l2.231018 0.2442627l2.38385 0.3968506l2.7505798 0.51898193l3.6062927 0.7937012l3.239563 0.7937622l2.4449463 0.70214844l0.8251953 0.30523682l0.30560303 0.12213135l0.21392822 0.09161377l1.6197815 0.7631836l2.9034119 1.251648l8.098907 3.3580933l14.333557 6.0445557l9.657562 4.0907593l4.21756 1.617981l5.226074 1.8317261l6.448578 2.3201294l2.20047 0.8547363l0.6723633 0.30529785l0.24447632 0.12213135l0.12225342 0.061035156l0.30563354 0.1831665l0.36672974 0.21368408l0.42785645 0.21374512l0.48901367 0.21368408l0.51953125 0.21368408l0.5501404 0.21368408l0.58065796 0.21368408l0.55010986 0.15264893l2.5366516 0.88531494l4.6454163 1.7706299l13.080505 5.067688l22.310211 8.944702l14.027954 5.9224854l13.9973755 5.9224243l8.098877 3.5717773l31.692749 14.745056l4.859375 2.3201294l1.925354 0.85479736l1.619812 0.6411133l1.3447266 0.42736816l0.55010986 0.15264893l0.48901367 0.09161377l0.39727783 0.030517578l0.18334961 0l0.15283203 -0.030517578l0.15283203 -0.030517578l0.12225342 -0.030578613l0.091674805 -0.061035156l0.091674805 -0.061035156l0.48901367 -0.45794678l0.64178467 -0.7631836l1.8031616 -2.2896118l4.767639 -6.53302l4.95105 -7.204651l1.9865112 -3.083313l1.4058838 -2.3811646l22.646362 -39.19806l4.645447 -7.5404663l10.78833 -17.00415l18.428894 -29.52063l10.880005 -17.55365l12.499878 -19.934845l13.263855 -21.49179l4.706543 -7.3572693l1.7420044 -2.6253967l0.6112671 -0.88531494l0.39727783 -0.5494995l0.15283203 -0.2137146l0.15283203 -0.21368408l0.30560303 -0.51898193l0.27508545 -0.5800476l0.2444458 -0.64108276l0.21392822 -0.67160034l0.18341064 -0.67163086l0.12225342 -0.70214844l0.06109619 -0.64108276l0.061157227 -0.88531494l-0.030578613 -0.366333l-0.030578613 -0.33581543l-0.030578613 -0.30526733l-0.091674805 -0.27478027l-0.12225342 -0.21368408l-0.06109619 -0.12210083l-0.061157227 -0.09158325l-0.18334961 -0.1831665l-0.24450684 -0.18319702l-0.24450684 -0.15261841l-0.30560303 -0.12213135l-0.33618164 -0.12210083l-0.39727783 -0.12210083l-0.94744873 -0.1831665l-0.9473877 -0.2137146l-0.39733887 -0.12210083l-0.33618164 -0.12213135l-0.30560303 -0.15261841l-0.27508545 -0.15264893l-0.2444458 -0.1831665l-0.18341064 -0.2137146l-0.18334961 -0.24420166l-0.12225342 -0.27474976l-0.12225342 -0.30529785l-0.091674805 -0.366333l-0.091674805 -0.42739868l-0.061157227 -0.45791626l-0.091674805 -1.0684814l-0.27508545 -3.26651l-0.61120605 -3.480194l-0.8557129 -3.5717773l-1.1002808 -3.5718079l-1.2224731 -3.3275452l-1.3447266 -3.0222778l-0.6723633 -1.3432312l-0.70288086 -1.1906128l-0.7029419 -1.0379333l-0.7029419 -0.85479736l-0.55010986 -0.5494995l-0.64178467 -0.5800476l-0.7335205 -0.5494995l-0.79455566 -0.5800476l-0.8251953 -0.5189514l-0.8557129 -0.51898193l-0.8251953 -0.42739868l-0.7946167 -0.366333l-1.0085449 -0.51898193l-1.4975586 -0.85479736l-4.2175293 -2.503296l-11.063416 -7.113037l-22.279663 -14.28714l-20.384827 -11.753326l-9.504761 -4.9150085l-8.985168 -4.304474l-8.526794 -3.632843l-8.068359 -2.9917603l-5.5011597 -1.7400818l-5.929016 -1.5874634l-6.173523 -1.3432312l-6.173523 -1.1295471l-6.0512695 -0.85479736l-5.7456055 -0.5189514l-5.1955566 -0.2137146l-4.4926147 0.1831665l-6.081787 0.70214844l-6.0512695 1.0990295l-5.929016 1.4348145l-5.715088 1.8011475l-5.5011597 2.0758972l-5.226074 2.381195l-4.859375 2.6559448l-4.4314575 2.9306946l-2.1393433 1.4348145l-2.0170898 1.1906128l-0.8557434 0.45791626l-0.73349 0.366333l-0.33618164 0.12213135l-0.27505493 0.09158325l-0.24447632 0.061035156l-0.09170532 0.030548096l-0.091674805 0l-0.06112671 0l-0.091674805 -0.030548096l-0.18338013 -0.061035156l-0.21392822 -0.12213135l-0.21392822 -0.12210083l-0.27508545 -0.1831665l-0.24447632 -0.2137146l-0.5806885 -0.5494995l-0.64178467 -0.6105652l-0.6418152 -0.732666l-0.64178467 -0.82424927l-0.6112366 -0.85479736l-1.8642883 -2.4727783l-2.4143982 -2.71698l-2.781128 -2.8391113l-2.9950867 -2.8696594l-3.1173096 -2.71698l-3.0867615 -2.4727783l-2.8728027 -2.1064453l-2.5672302 -1.617981l-3.4840393 -1.8622131l-3.7285767 -1.7401123l-3.9119263 -1.648529l-4.0341797 -1.4958496l-4.1258545 -1.3432617l-4.1258545 -1.1600647l-4.1258545 -0.9768982l-4.0341797 -0.7631836l-4.0341797 -0.67163086l-3.422943 -0.6105652l-2.475525 -0.51898193l-0.7640381 -0.1831665l-0.24450684 -0.09158325l-0.091674805 -0.030517578l-0.091674805 -0.030517578l-0.030578613 -0.030548096l-0.06112671 0l-0.21392822 -0.030517578l-0.7946167 -0.061065674l-2.8728027 -0.12210083l-10.268829 -0.24423218l-33.1597 -0.3968506l-39.02762 -0.67163086l-9.474182 -0.5800171l-3.1784363 -0.3968811l-2.5366516 -0.48843384l-7.5487976 -1.7401123l-7.5487976 5.403473zm19.40683 1.0684814l2.231018 0.1831665l3.5451965 0.21368408l10.299377 0.33581543l28.116974 0.33581543l25.488647 0.27474976l19.131775 0.88531494l7.854431 0.7632141l6.9986877 0.9463501l6.479126 1.1906128l6.1429443 1.4348145l6.081848 1.8011475l5.929016 2.2896118l5.6845093 2.7170105l5.440033 3.1443787l5.1038513 3.5107422l4.737091 3.846527l4.3397827 4.151825l3.8813782 4.4876404l5.0732727 6.4719543l-2.5977478 2.3811646l-12.285919 11.417511l-49.60202 47.379578l-50.029907 47.654358l-12.347015 11.203796l-3.3006897 2.6864624l-0.9474182 0.67163086l-0.33618164 0.1831665l-0.12225342 0.030517578l-0.06112671 0l-0.091674805 0.030517578l-0.06112671 0l-0.15280151 0.06109619l-0.18338013 0.091552734l-0.21392822 0.15264893l-0.48901367 0.366333l-0.58065796 0.48846436l-0.6112366 0.61053467l-0.6723633 0.67163086l-1.3447266 1.4959106l-3.3618164 4.0907593l-6.662506 -7.418335l-4.981598 -5.1592712l-5.164978 -4.7623596l-5.3789062 -4.365509l-5.653961 -4.029724l-5.929016 -3.632843l-6.204071 -3.2970276l-6.5402527 -2.9917603l-6.8458557 -2.6253967l-4.0647583 -1.4042969l-4.0341797 -1.251648l-4.248108 -1.0990295l-4.767639 -1.0684814l-12.071991 -2.1674805l-17.175812 -2.5948792l-2.047638 -0.27478027l-2.9339447 -0.24420166l-8.098923 -0.48846436l-20.87381 -0.732666l-46.79033 -2.136963l-15.067032 -1.0990295l-5.195526 -0.3357849l-2.5977783 -0.09158325l-0.5195465 -0.030548096l-0.4889984 -0.030517578l-0.42785645 -0.09158325l-0.18338013 -0.030517578l-0.18336487 -0.061065674l-0.18338013 -0.061065674l-0.15280151 -0.061065674l-0.12225342 -0.061035156l-0.12223816 -0.061065674l-0.030563354 -0.061065674l-0.030563354 -0.030517578l-0.030563354 -0.061065674l-0.030563354 -0.030517578l-0.030563354 -0.061065674l-0.030563354 -0.030517578l0 -0.061065674l0 -0.030517578l0 -0.030517578l0 -0.030548096l0.030563354 -0.061035156l0.06112671 -0.061065674l0.06112671 -0.09158325l0.18336487 -0.1831665l0.24449158 -0.24423218l0.6723633 -0.6105652l0.88630676 -0.70214844l2.3227081 -1.7400818l2.8422546 -1.9537964l18.551102 -13.035492l54.46138 -37.244263l62.590866 -42.31195l17.664795 -12.119629l8.129486 -5.769806l0.7029114 -0.48846436l0.7029419 -0.3968506l0.7029114 -0.366333l0.6723633 -0.27474976l0.64178467 -0.2137146l0.27508545 -0.09158325l0.27505493 -0.030517578l0.27505493 -0.030548096l0.21392822 0l0.21392822 0l0.091674805 0.030548096l0.09170532 0.030517578l0.18334961 0.061065674l0.27508545 0.061035156l0.7334595 0.15264893l2.1087952 0.366333l5.8678894 0.85479736zm240.4002 22.499207l7.7321777 1.6484985l8.80188 2.6254272l9.565857 3.4496765l10.085449 4.1823425l10.329956 4.7929077l10.299377 5.3118896l9.993713 5.647705l9.413086 5.9529724l4.645447 2.9306946l1.46698 0.9463501l0.39727783 0.24423218l0.12225342 0.061065674l0.06109619 0l0 0.030517578l0 0l0.030578613 0l0 0l0.091674805 0.030548096l0.24450684 0.15261841l0.8862915 0.51898193l3.0562134 1.9537964l9.902039 6.4719543l10.177124 6.594055l3.3312988 2.1064453l1.0085449 0.6105652l0.30560303 0.1831665l0.18334961 0.09158325l0.12225342 0.030548096l0.12225342 0.061035156l0.061157227 0.030548096l0.030517578 0.030517578l0.030578613 0.061065674l0.06109619 0.030517578l0.030578613 0.061065674l0.030578613 0.030517578l0 0.061065674l0.030578613 0.061035156l0.030517578 0.09158325l0 0.15264893l0 0.12213135l-0.030517578 0.15261841l-0.030578613 0.15264893l-0.061157227 0.15264893l-0.091674805 0.1831665l-0.091674805 0.1831665l-0.24450684 0.3968506l-0.45843506 0.73269653l-0.9168091 1.4042664l-3.0256348 4.518158l-9.199158 13.707123l-31.14264 48.264893l-22.126831 35.38205l-11.949707 18.957947l-15.586609 23.872986l-6.5097046 9.463684l-2.078186 2.8085938l-0.64178467 0.7631836l-0.18341064 0.1831665l-0.06109619 0.061035156l-0.030578613 0l-0.030578613 0l-0.06109619 0l-0.091674805 0l-0.12225342 -0.030517578l-0.091674805 -0.030517578l-0.21398926 -0.091552734l-0.2444458 -0.12213135l-0.21392822 -0.15264893l-0.24450684 -0.15264893l-0.24450684 -0.1831665l-0.21392822 -0.21368408l-0.64178467 -0.366333l-1.3447266 -0.7631836l-4.645447 -2.4727783l-14.394653 -7.6015015l-24.785767 -12.913391l-33.4653 -17.523132l-15.158722 -7.1740723l-14.241882 -6.1361694l-13.416687 -5.1592407l-12.744324 -4.2128906l-12.163666 -3.3580933l-11.674652 -2.5338135l-5.9595947 -0.9463501l-6.4179993 -0.7937622l-13.111084 -1.0073853l-6.1734924 -0.1831665l-5.5622864 0.030517578l-4.706543 0.24420166l-1.9253845 0.24420166l-1.6197815 0.27478027l-2.3532715 0.3968506l-1.1002502 0.15264893l-0.9779663 0.061035156l-0.8557434 0.030578613l-0.36672974 -0.030578613l-0.30563354 -0.030517578l-0.30560303 -0.030517578l-0.21392822 -0.061035156l-0.12225342 -0.030517578l-0.06112671 -0.030578613l-0.09170532 -0.061035156l-0.030548096 -0.061035156l-0.030548096 0l0 -0.030517578l0 -0.06109619l0 -0.030517578l0.030548096 -0.12213135l0.091674805 -0.12207031l0.21395874 -0.366333l0.33618164 -0.45794678l0.9779663 -1.1906128l1.3447266 -1.4958496l3.6368713 -3.7549744l4.614868 -4.4265747l42.328278 -40.358124l77.07721 -73.20633l2.8728333 -2.503296l2.9339294 -2.3506775l3.0867615 -2.2285461l3.2701416 -2.1064453l3.5145874 -2.0453796l3.7591553 -1.984314l4.1258545 -1.9537964l4.462036 -1.9537964l2.078247 -0.7937317l2.231018 -0.73269653l4.8898926 -1.1905823l5.409485 -0.88531494l5.8067627 -0.5494995l6.1429443 -0.2137146l6.326294 0.12213135l6.479126 0.48843384l6.479126 0.8242798zm119.34442 63.345764l0.42785645 0.48843384l0.39727783 0.6105652l0.39733887 0.6411133l0.36676025 0.70214844l0.70288086 1.6790161l0.6418457 1.9232788l0.61120605 2.2285461l0.55010986 2.5643616l0.9779663 6.0445557l1.0697021 7.4488525l-4.5231934 7.3267517l-3.5145874 5.8003235l-1.3447266 2.1980286l-0.45843506 0.82424927l-0.30560303 0.54953l-6.020752 9.372101l-3.6674194 5.769806l-1.2835693 2.1369934l-0.42791748 0.732666l-0.2444458 0.48843384l-0.24450684 0.45791626l-0.39733887 0.70214844l-1.2224731 2.0759277l-3.5145874 5.5866394l-14.027954 22.59076l-29.431152 46.738525l-13.35553 20.911743l-14.547485 22.621277l-2.7200317 4.1518555l-2.2921753 3.7549438l-1.7114258 2.9612427l-0.5195923 1.0379028l-0.18334961 0.39691162l-0.12225342 0.27471924l-0.18334961 0.6105957l-0.27508545 0.51898193l-0.2750244 0.45788574l-0.27508545 0.33581543l-0.15283203 0.15264893l-0.152771 0.12213135l-0.18341064 0.12207031l-0.152771 0.09161377l-0.15283203 0.061035156l-0.15283203 0.030517578l-0.152771 0.030517578l-0.15283203 0l-0.12225342 0l-0.152771 -0.030517578l-0.12225342 -0.061035156l-0.12225342 -0.061035156l-0.091674805 -0.09161377l-0.12225342 -0.12213135l-0.091674805 -0.15258789l-0.061157227 -0.15264893l-0.06109619 -0.15264893l-0.030578613 -0.21368408l-0.030578613 -0.21374512l-0.030578613 -0.24420166l0.030578613 -0.51898193l0.12225342 -0.61053467l0.061157227 -0.30529785l0.030517578 -0.3968506l0.030578613 -1.0684814l-0.06109619 -1.3737793l-0.09173584 -1.617981l-0.39727783 -3.7855225l-0.64178467 -4.1517944l-0.6112671 -4.4265747l-0.5806885 -4.701294l-0.45843506 -4.3655396l-0.2750244 -3.5412598l-0.061157227 -2.2590942l0.030578613 -1.831665l0.091674805 -0.7937622l0.09173584 -0.7631836l0.152771 -0.70214844l0.21392822 -0.70214844l0.27508545 -0.70214844l0.36676025 -0.732666l0.9473877 -1.617981l3.0562134 -4.4265747l6.173523 -9.036316l8.648987 -13.310242l21.393372 -33.977783l17.695374 -28.207916l9.382507 -15.050354l11.980286 -18.77478l11.063416 -16.576721l8.373962 -11.814392l2.628357 -3.3580933l0.8557129 -0.85476685l0.27508545 -0.24423218l0.091674805 -0.061065674l0.091674805 0l0.030578613 0l0.030578613 0l0.091674805 0.030548096l0.091674805 0.030517578l0.12225342 0.09158325l0.2750244 0.15264893l0.27508545 0.24423218l0.33618164 0.27474976l0.33618164 0.30526733l0.33618164 0.33581543l0.33618164 0.366333zm-534.4061 39.07596l14.241867 1.2210999l17.420303 1.0990295l39.486023 1.465332l15.433792 0.42739868l11.4301605 0.7632141l10.391052 1.3127136l12.347046 2.1064148l6.479126 1.3737793l6.570801 1.6484985l5.7456665 1.7095947l2.2921448 0.7937317l1.772583 0.732666l1.3447266 0.5800171l1.2224731 0.48846436l0.51956177 0.15264893l0.42785645 0.15261841l0.33618164 0.09158325l0.12225342 0l0.12225342 0.030548096l0.15280151 0l0.21392822 0.061035156l0.6418152 0.2137146l1.8642578 0.82424927l5.3789062 2.6864624l6.173523 3.3886414l2.8117065 1.6484985l2.3838196 1.4958801l3.0867615 2.1980286l3.0867615 2.381195l3.086731 2.5643616l3.0256348 2.7780457l2.964508 2.9917603l2.93396 3.1444092l2.8422546 3.296997l2.8117065 3.4802246l3.697998 5.006592l2.6588745 3.81604l0.9168701 1.5263672l0.6723633 1.2821655l0.39730835 1.0379639l0.091674805 0.4274292l0.030578613 0.3968506l-0.030578613 0.30529785l-0.030548096 0.15258789l-0.06112671 0.12213135l-0.06112671 0.12213135l-0.091674805 0.091552734l-0.12225342 0.09161377l-0.12225342 0.061035156l-0.27505493 0.12213135l-0.36676025 0.091552734l-0.42785645 0l-0.48898315 0l-1.191925 -0.1831665l-1.4364014 -0.30523682l-3.66745 -1.1295776l-3.9119263 -1.0379639l-1.8337097 -0.3357544l-1.7114563 -0.21374512l-1.6197815 -0.091552734l-1.5281067 0.030517578l-1.4364319 0.15264893l-1.314148 0.27471924l-1.2224731 0.39691162l-1.1002197 0.48840332l-0.9779968 0.6411133l-0.8862915 0.7631836l-0.7640686 0.85479736l-0.64178467 1.0074463l-0.51956177 1.098999l-0.36672974 1.2211304l-0.15280151 0.6411133l-0.21395874 0.7020874l-0.27505493 0.73272705l-0.30560303 0.732666l-0.30563354 0.70214844l-0.33618164 0.70214844l-0.36672974 0.64105225l-0.30563354 0.5494995l-1.6197815 2.4727783l-5.3789062 -4.853943l-2.5977478 -2.197998l-2.7811584 -2.198059l-2.8422546 -2.136963l-2.8422546 -1.9537964l-2.781128 -1.7706299l-2.5671997 -1.4958496l-2.2921448 -1.1906128l-1.0085449 -0.45794678l-0.8862915 -0.366333l-0.7640686 -0.24420166l-0.7946167 -0.30529785l-1.5892029 -0.70214844l-0.7640686 -0.366333l-0.7029114 -0.366333l-0.6112366 -0.366333l-0.48898315 -0.33581543l-0.48901367 -0.27471924l-0.51953125 -0.2442627l-0.5806885 -0.24420166l-0.5806885 -0.21368408l-0.58065796 -0.1831665l-0.55010986 -0.12213135l-0.5501404 -0.09161377l-0.24447632 0l-0.21392822 -0.030517578l-0.48901367 0l-0.48898315 -0.061035156l-0.48898315 -0.09161377l-0.42785645 -0.12207031l-0.42788696 -0.15264893l-0.36672974 -0.15264893l-0.15283203 -0.09161377l-0.15280151 -0.091552734l-0.15280151 -0.09161377l-0.091674805 -0.12207031l-0.18338013 -0.09161377l-0.24450684 -0.12207031l-0.7029114 -0.30529785l-2.2615967 -0.732666l-6.662506 -1.7706299l-7.732147 -1.7401123l-3.5451965 -0.70214844l-2.93396 -0.45794678l-16.167252 -2.2590332l-3.422943 -0.366333l-4.523163 -0.36639404l-12.499832 -0.61053467l-39.18042 -0.9158325l-37.31613 -0.85479736l-8.649033 -0.5494995l-1.2224731 -0.12213135l-0.8862915 -0.15264893l-0.3056183 -0.091552734l-0.24450684 -0.09161377l-0.15280151 -0.091552734l-0.030563354 -0.030517578l-0.030563354 -0.06109619l-0.030563354 -0.061035156l-0.030563354 -0.09161377l0 -0.21368408l0.030563354 -0.30523682l0.030563354 -0.36639404l0.18338013 -0.88531494l0.27505493 -1.0684509l0.7640381 -2.5948792l1.0391083 -2.9306946l1.0696716 -3.052826l0.97798157 -3.1443787l0.85572815 -3.26651l0.76405334 -3.2970276l0.6112366 -3.3275757l0.45843506 -3.3275452l0.366745 -3.2970276l0.18336487 -3.2054749l0.21394348 -4.1823425l0.15280151 -1.2821655l0.09169006 -0.45791626l0.12223816 -0.33581543l0.06112671 -0.15264893l0.06112671 -0.12210083l0.09169006 -0.09158325l0.06112671 -0.09158325l0.091674805 -0.061065674l0.12225342 -0.030517578l0.09169006 -0.030548096l0.12223816 0l0.12225342 0l0.12225342 0l0.3056183 0.09158325l0.7640381 0.27474976l0.21394348 0.061065674l0.3056183 0.09158325l0.85572815 0.2137146l2.4449615 0.42736816l3.147873 0.42739868l3.4840698 0.3968811zm257.63718 49.608154l9.596436 1.8927002l11.827484 2.8085938l10.666107 2.8391113l3.8813782 1.1906128l1.3752747 0.48846436l0.9474182 0.366333l0.51956177 0.24420166l0.8251648 0.366333l2.475525 1.0074463l6.937561 2.6864624l11.705231 5.128723l17.145233 8.120483l18.092651 8.914185l14.516968 7.47937l30.19519 15.813538l15.250427 8.089966l4.9815674 2.71698l1.4975586 0.88531494l0.45843506 0.30529785l0.152771 0.12207031l0.091674805 0.06109619l0.09173584 0.091552734l0.091674805 0.15264893l0.18334961 0.33581543l0.15283203 0.45794678l0.152771 0.5800171l0.33618164 1.5264282l0.30566406 2.0148315l0.58062744 5.4034424l0.5806885 7.2962646l0.5195923 6.838257l0.64178467 6.2582397l0.6723633 5.006653l0.33618164 1.8621826l0.30560303 1.251648l0.30560303 0.9158325l0.24450684 0.88531494l0.18341064 0.7937622l0.152771 0.732666l0.061157227 0.61053467l0 0.27478027l0 0.24420166l0 0.1831665l-0.030578613 0.09161377l-0.030578613 0.061035156l0 0.06109619l-0.030578613 0.061035156l-0.030517578 0.030517578l-0.061157227 0.030517578l0 0.030517578l-0.030517578 0l-0.061157227 0l-0.091674805 0.030578613l-0.091674805 -0.030578613l-0.21392822 -0.030517578l-0.24450684 -0.091552734l-0.6723633 -0.2442627l-0.8251953 -0.3968506l-2.0170898 -1.098999l-2.3532715 -1.4042969l-2.3226929 -1.4042969l-2.0476685 -1.1600952l-0.8557129 -0.45788574l-0.7029419 -0.33581543l-0.51953125 -0.21368408l-0.18334961 -0.06109619l-0.09173584 -0.030517578l-0.06109619 0l-0.061157227 0l-0.091674805 -0.030517578l-0.30560303 -0.12213135l-0.9168701 -0.42736816l-3.0561523 -1.5874634l-9.2908325 -5.128723l-10.6050415 -6.105591l-8.343384 -5.006592l-2.5977783 -1.618042l-2.2921143 -1.3432007l-0.97802734 -0.51898193l-0.7946167 -0.3968506l-0.61120605 -0.2442627l-0.21392822 -0.061035156l-0.061157227 -0.030517578l-0.091674805 0l-0.06109619 0l-0.061157227 0l-0.152771 -0.030517578l-0.18341064 -0.06109619l-0.21392822 -0.091552734l-0.45843506 -0.21368408l-0.51953125 -0.27478027l-0.5806885 -0.33581543l-0.5806885 -0.3968506l-0.61120605 -0.3968506l-0.5806885 -0.45794678l-1.0391235 -0.70214844l-1.6809082 -1.0074463l-4.920471 -2.7474976l-13.72229 -7.1741333l-14.394684 -7.113037l-5.745636 -2.6864624l-3.8813782 -1.617981l-2.1393433 -0.8242798l-1.9253845 -0.82421875l-1.4975281 -0.67163086l-0.51956177 -0.27478027l-0.36676025 -0.21368408l-0.21392822 -0.12207031l-0.33618164 -0.15264893l-1.0696716 -0.4274292l-3.3618164 -1.2211304l-9.840942 -3.235962l-10.360474 -3.2054443l-4.0647583 -1.1295166l-2.5671997 -0.6105957l-3.5757446 -0.7631836l-1.8337097 -0.42736816l-1.5892334 -0.4274292l-3.514618 -0.85479736l-4.21756 -0.85479736l-10.054871 -1.5263672l-11.307922 -1.1906128l-11.521851 -0.7631836l-16.503448 -0.732666l-0.64178467 -7.7541504l-0.45843506 -3.1444092l-0.7640381 -3.235962l-1.1002502 -3.297058l-1.3752747 -3.3580322l-1.6809082 -3.3580933l-1.925415 -3.3580933l-2.231018 -3.3275757l-2.4449463 -3.3275757l-1.1002502 -1.5263672l-0.42785645 -0.67163086l-0.33618164 -0.6411133l-0.27505493 -0.5800171l-0.18338013 -0.5494995l-0.091674805 -0.45794678l-0.030548096 -0.24420166l0 -0.1831665l0.030548096 -0.1831665l0.030548096 -0.1831665l0.06112671 -0.15264893l0.09170532 -0.12213135l0.091674805 -0.12213135l0.12225342 -0.091552734l0.15280151 -0.09161377l0.15280151 -0.061035156l0.18338013 -0.030517578l0.21392822 -0.030517578l0.21392822 -0.030517578l0.24450684 0.030517578l0.55010986 0.061035156l0.6418152 0.15264893l0.21392822 0.091552734l0.24450684 0.06109619l0.24447632 0.061035156l0.24450684 0.030517578l0.24447632 0l0.24450684 0l0.24450684 0l0.21392822 -0.030517578l0.24450684 -0.030517578l0.21392822 -0.030517578l0.21392822 -0.09161377l0.21392822 -0.061035156l0.18338013 -0.09161377l0.18338013 -0.091552734l0.15280151 -0.12213135l0.15280151 -0.12207031l0.33618164 -0.18322754l0.45843506 -0.21368408l1.3752747 -0.33581543l1.8642883 -0.30523682l2.2615967 -0.2442627l5.6233826 -0.30523682l6.6319275 -0.12213135l14.333557 0.42736816l6.7542114 0.51898193l5.8067627 0.7632446z" fill-rule="evenodd"/></g></svg>