<svg version="1.1" viewBox="0.0 0.0 6000.0 1000.0" fill="none" stroke="none" stroke-linecap="square" stroke-miterlimit="10" xmlns:xlink="http://www.w3.org/1999/xlink" xmlns="http://www.w3.org/2000/svg"><clipPath id="g4629c736bd_0_7.0"><path d="m0 0l6000.0 0l0 1000.0l-6000.0 0l0 -1000.0z" clip-rule="nonzero"/></clipPath><g clip-path="url(#g4629c736bd_0_7.0)"><path fill="#000000" fill-opacity="0.0" d="m0 0l6000.0 0l0 1000.0l-6000.0 0z" fill-rule="evenodd"/><path fill="#000000" fill-opacity="0.0" d="m0 1.1023622l6000.0 0l0 997.7953l-6000.0 0z" fill-rule="evenodd"/><path stroke="#073763" stroke-width="24.0" stroke-linejoin="round" stroke-linecap="butt" d="m0 1.1023622l6000.0 0l0 997.7953l-6000.0 0z" fill-rule="evenodd"/><path fill="#073763" d="m851.28125 390.48438l-111.921875 0l0 253.51562l-35.9375 0l0 -284.375l147.85938 0l0 30.859375zm81.24219 142.1875l0 111.328125l-35.734375 0l0 -284.375l90.625 0q39.640625 0 62.296875 23.734375q22.65625 23.71875 22.65625 63.171875q0 41.015625 -21.578125 63.1875q-21.578125 22.171875 -60.84375 22.953125l-57.421875 0zm0 -30.671875l54.890625 0q23.828125 0 36.515625 -14.25q12.703125 -14.265625 12.703125 -40.828125q0 -25.578125 -13.09375 -41.0q-13.078125 -15.4375 -35.9375 -15.4375l-55.078125 0l0 111.515625zm163.47656 -142.375l98.4375 0l0 116.015625l56.640625 0q38.671875 0 60.34375 22.265625q21.6875 22.265625 21.6875 61.140625q0 38.859375 -21.78125 61.90625q-21.765625 23.046875 -60.640625 23.046875l-92.375 0l0 -254.6875l-62.3125 0l0 -29.6875zm98.4375 146.875l0 106.828125l57.03125 0q21.484375 0 33.59375 -14.734375q12.109375 -14.75 12.109375 -39.953125q0 -24.40625 -11.8125 -38.171875q-11.8125 -13.78125 -33.296875 -13.96875l-57.625 0zm331.4453 -116.015625l-111.90625 0l0 85.15625l57.421875 0q38.28125 0.1875 59.953125 22.359375q21.6875 22.171875 21.6875 61.03125q0 39.0625 -21.984375 62.015625q-21.96875 22.953125 -60.828125 22.953125l-92.1875 0l0 -284.375l147.84375 0l0 30.859375zm-111.90625 116.015625l0 106.828125l57.03125 0q21.875 0 33.984375 -15.03125q12.109375 -15.046875 12.109375 -39.65625q0 -24.21875 -12.015625 -38.171875q-12.015625 -13.96875 -33.890625 -13.96875l-57.21875 0zm371.28125 137.5l-35.9375 0l0 -131.45312l-114.453125 0l0 131.45312l-35.734375 0l0 -284.375l35.734375 0l0 122.265625l114.453125 0l0 -122.265625l35.9375 0l0 284.375zm194.53125 -74.21875l-96.09375 0l-22.0625 74.21875l-36.71875 0l91.59375 -284.375l30.671875 0l91.796875 284.375l-36.71875 0l-22.46875 -74.21875zm-86.71875 -30.859375l77.546875 0l-38.875 -129.29688l-38.671875 129.29688zm361.53125 -179.29688l0 284.375l-35.9375 0l0 -117.578125q-29.6875 10.15625 -63.09375 10.15625q-40.8125 0 -60.734375 -20.890625q-19.921875 -20.90625 -20.703125 -63.6875l0 -92.375l35.9375 0l0 90.421875q0.1875 29.890625 10.53125 42.78125q10.359375 12.890625 34.96875 12.890625q30.671875 0 63.09375 -10.359375l0 -135.73438l35.9375 0zm199.60938 152.92188l-100.59375 0l0 100.78125l117.1875 0l0 30.671875l-152.92188 0l0 -284.375l150.96875 0l0 30.859375l-115.234375 0l0 91.40625l100.59375 0l0 30.65625zm248.42969 131.45312l-35.9375 0l0 -131.45312l-114.453125 0l0 131.45312l-35.734375 0l0 -284.375l35.734375 0l0 122.265625l114.453125 0l0 -122.265625l35.9375 0l0 284.375zm331.83594 -90.234375q-2.34375 45.703125 -25.6875 69.921875q-23.328125 24.21875 -65.90625 24.21875q-42.78125 0 -67.984375 -32.515625q-25.1875 -32.53125 -25.1875 -88.1875l0 -51.5625q0 -55.46875 25.875 -87.6875q25.890625 -32.234375 70.609375 -32.234375q41.21875 0 63.765625 24.703125q22.5625 24.703125 24.515625 70.609375l-36.125 0q-2.34375 -34.765625 -14.65625 -49.609375q-12.296875 -14.84375 -37.5 -14.84375q-29.09375 0 -44.71875 22.75q-15.625 22.75 -15.625 66.703125l0 52.140625q0 43.171875 14.546875 66.21875q14.546875 23.046875 42.46875 23.046875q27.9375 0 40.234375 -13.859375q12.3125 -13.875 15.25 -49.8125l36.125 0zm233.21094 90.234375l-35.9375 0l0 -253.51562l-111.328125 0l0 253.51562l-35.75 0l0 -284.375l183.01562 0l0 284.375zm99.21094 -111.328125l0 111.328125l-35.734375 0l0 -284.375l90.625 0q39.640625 0 62.296875 23.734375q22.65625 23.71875 22.65625 63.171875q0 41.015625 -21.578125 63.1875q-21.578125 22.171875 -60.84375 22.953125l-57.421875 0zm0 -30.671875l54.890625 0q23.828125 0 36.515625 -14.25q12.703125 -14.265625 12.703125 -40.828125q0 -25.578125 -13.09375 -41.0q-13.078125 -15.4375 -35.9375 -15.4375l-55.078125 0l0 111.515625zm318.5547 67.78125l-96.09375 0l-22.0625 74.21875l-36.71875 0l91.59375 -284.375l30.671875 0l91.796875 284.375l-36.71875 0l-22.46875 -74.21875zm-86.71875 -30.859375l77.546875 0l-38.875 -129.29688l-38.671875 129.29688zm184.57812 105.078125l0 -284.375l81.046875 0q38.875 0 58.5 18.953125q19.625 18.9375 19.625 56.828125q0 19.921875 -9.96875 35.15625q-9.953125 15.234375 -26.9375 23.625q19.53125 5.859375 30.953125 24.03125q11.421875 18.15625 11.421875 43.75q0 38.28125 -21.0 60.15625q-20.984375 21.875 -59.859375 21.875l-83.78125 0zm35.734375 -133.01562l0 102.34375l48.828125 0q20.3125 0 32.21875 -13.375q11.921875 -13.375 11.921875 -37.59375q0 -51.375 -43.359375 -51.375l-49.609375 0zm0 -30.078125l45.90625 0q18.546875 0 29.96875 -12.5q11.4375 -12.5 11.4375 -33.203125q0 -23.4375 -10.359375 -34.078125q-10.34375 -10.640625 -31.640625 -10.640625l-45.3125 0l0 90.421875zm367.3828 45.90625q0 58.203125 -24.8125 89.65625q-24.796875 31.4375 -70.5 31.4375q-43.9375 0 -69.4375 -30.5625q-25.484375 -30.578125 -26.453125 -86.4375l0 -53.515625q0 -57.03125 25.1875 -89.34375q25.203125 -32.328125 70.3125 -32.328125q44.921875 0 70.015625 30.953125q25.109375 30.953125 25.6875 88.375l0 51.765625zm-35.734375 -49.8125q0 -45.109375 -14.75 -67.078125q-14.75 -21.984375 -45.21875 -21.984375q-29.484375 0 -44.625 22.265625q-15.140625 22.265625 -15.328125 65.625l0 50.984375q0 43.546875 15.125 66.40625q15.140625 22.84375 45.21875 22.84375q30.078125 0 44.53125 -21.09375q14.453125 -21.09375 15.046875 -64.640625l0 -53.328125zm267.96875 -117.375l0 284.375l-35.9375 0l0 -117.578125q-29.6875 10.15625 -63.09375 10.15625q-40.8125 0 -60.734375 -20.890625q-19.921875 -20.90625 -20.703125 -63.6875l0 -92.375l35.9375 0l0 90.421875q0.1875 29.890625 10.53125 42.78125q10.359375 12.890625 34.96875 12.890625q30.671875 0 63.09375 -10.359375l0 -135.73438l35.9375 0zm249.40625 284.375l-35.9375 0l0 -131.45312l-114.453125 0l0 131.45312l-35.734375 0l0 -284.375l35.734375 0l0 122.265625l114.453125 0l0 -122.265625l35.9375 0l0 284.375zm210.15625 -284.375l35.75 0l0 284.375l-35.75 0l0 -219.14062l-110.734375 219.14062l-35.9375 0l0 -284.375l35.9375 0l0 219.14062l110.734375 -219.14062zm163.875 156.64062l-26.953125 0l0 127.734375l-35.75 0l0 -284.375l35.75 0l0 125.390625l21.875 0l80.078125 -125.390625l44.53125 0l-90.234375 137.5l96.875 146.875l-43.75 0l-82.421875 -127.734375z" fill-rule="nonzero"/><path fill="#073763" d="m380.48886 315.86383l0 0c0 -17.547089 6.148773 -31.77182 13.733643 -31.77182l0 0c3.642395 0 7.1355896 3.3473816 9.711151 9.305725c2.5755615 5.958374 4.0224915 14.039673 4.0224915 22.466095l0 0c0 17.547089 -6.148773 31.77182 -13.733643 31.77182l0 0c-7.5848694 0 -13.733643 -14.224731 -13.733643 -31.77182z" fill-rule="evenodd"/><path fill="#073763" d="m292.05786 284.17828c-0.10418701 0.0892334 -0.20840454 0.2677307 -0.31259155 0.3569641c-0.20837402 0.2677002 -0.41674805 0.4461975 -0.6251221 0.7138977c-0.52093506 0.7138977 -1.0418701 1.4277954 -1.5628052 2.230957c-1.5628052 2.4094238 -3.1256409 4.908081 -4.688446 7.4067383c-1.9795532 3.5694885 -3.959137 7.049774 -6.042877 10.619293c-1.9795837 4.2834167 -4.063324 8.5668335 -6.1470947 12.761017c-1.8753662 4.6403503 -3.6465454 9.280731 -5.417755 13.921082c-0.7293091 2.3201904 -1.4586182 4.7296143 -2.0837402 7.0498047c-0.52093506 2.3201904 -1.0418701 4.640381 -1.5628052 6.960541c-0.31256104 2.230957 -0.6251526 4.461914 -0.8335266 6.6928406c0 2.1417236 0 4.2834167 0 6.4251404c0.31256104 1.9632263 0.6251526 3.9264526 0.9377136 5.889679c0.20837402 0.892395 0.52093506 1.7847595 0.8334961 2.6771545c0.41674805 0.8923645 0.7293091 1.6954956 1.1460571 2.5878906c0.52093506 0.8031311 1.0418701 1.6062622 1.5628052 2.4094238c0.6251221 0.7138977 1.2502747 1.5170288 1.8753967 2.2309265c0.8334961 0.7139282 1.5628052 1.4278259 2.3963013 2.1417236c0.8334961 0.7138977 1.7712097 1.338562 2.7088928 2.0524597c2.0837402 1.2493286 4.167511 2.4986572 6.355438 3.7479858c2.5005188 1.1600952 5.001007 2.3201904 7.501526 3.4802856c11.981567 4.2834167 23.963165 8.656067 35.944733 12.939484c6.1470947 2.4986572 12.189972 4.908081 18.337036 7.4067383c2.8130798 1.4278259 5.521942 2.8556213 8.335022 4.2834167c2.5004883 1.6062927 5.001007 3.212555 7.6056824 4.7296143c2.0837708 1.8739929 4.271698 3.6587524 6.459656 5.443512c0.9376831 1.0708618 1.7711792 2.0524597 2.7088623 3.0340881c0.8334961 1.0708313 1.6670227 2.141693 2.3963318 3.1233215c0.7293091 1.1600952 1.3544312 2.3201904 1.9795532 3.3910217c0.6251221 1.2493286 1.1460571 2.4094238 1.6670227 3.6587524c0.31256104 1.2493286 0.7293091 2.5879211 1.1460571 3.8372498c0.20837402 1.338562 0.41674805 2.7663574 0.6251221 4.1049194c0 1.4278259 0.10418701 2.9448547 0.10418701 4.37265c-0.20837402 1.6062927 -0.41674805 3.2125854 -0.6251221 4.8188477c-0.9376831 3.4802856 -1.8753967 6.9605713 -2.8130798 10.440826c-1.5628052 3.8372498 -3.2297974 7.674469 -4.792633 11.511688c-2.1879272 4.1941833 -4.375885 8.388367 -6.4596252 12.493286c-11.56485 18.472229 -23.12967 37.033722 -34.69449 55.50595c-5.8345337 9.4592285 -11.56485 18.918396 -17.399353 28.466858c-2.5005188 4.5511475 -4.89682 9.191528 -7.397339 13.742615c-1.9795532 4.461914 -4.0632935 8.834595 -6.042877 13.296448c-1.4586182 4.194214 -2.9172363 8.299133 -4.271698 12.493286c-0.7293091 3.9265137 -1.4586182 7.763733 -2.2921143 11.600952c0 1.8739624 -0.10418701 3.6587524 -0.10418701 5.4434814c0.10418701 1.6955566 0.31256104 3.3910522 0.41674805 5.086548c0.41674805 1.6063232 0.8334961 3.2125854 1.1460571 4.8188477c0.7293091 1.5170898 1.3544312 2.9448853 1.9795837 4.461914c0.9376831 1.4277954 1.8753662 2.8555908 2.8130493 4.194153c1.2502441 1.4278564 2.5005188 2.7664185 3.85495 4.194214c1.4586182 1.338562 3.0214539 2.677124 4.584259 4.015686c1.8753662 1.338562 3.646576 2.5878906 5.521942 3.9264526c4.375885 2.4986572 8.75177 5.086548 13.127655 7.585205c5.209381 2.4094238 10.314575 4.8188477 15.523956 7.139038c5.834503 2.230957 11.669006 4.461914 17.50354 6.7821045c6.355438 2.0524292 12.710876 4.1049194 18.962158 6.1574097c13.335999 3.6587524 26.672028 7.317505 40.008057 10.976257c13.127655 2.9448242 26.151123 5.800415 39.278748 8.7453c11.460663 2.1417236 23.025482 4.194153 34.486115 6.3358765c8.439209 1.2493286 16.878418 2.4986572 25.317627 3.7479858c2.7088623 0.2677002 5.3135376 0.5354614 8.022461 0.8031616c0.8334961 0.0892334 1.6669922 0.0892334 2.5004883 0.1784668c0.52093506 -0.0892334 1.0418701 -0.0892334 1.5628052 -0.0892334c0.10418701 0 0.20837402 -0.0892334 0.41674805 -0.0892334c0 0 0 -0.0892334 0.10418701 -0.0892334l0 -0.0892334l0 -0.0892334c0 0 -0.10418701 0 -0.10418701 -0.08929443c-0.10418701 -0.0892334 -0.20837402 -0.1784668 -0.31256104 -0.1784668c-0.41674805 -0.2677002 -0.8334961 -0.446167 -1.3544312 -0.6246338c-0.7293091 -0.2677002 -1.3544312 -0.5354614 -2.0837402 -0.8031616c-5.3135986 -1.6954956 -10.52298 -3.3910522 -15.836548 -5.086548c-18.024445 -5.8897095 -36.04892 -11.779419 -54.073395 -17.7583c-10.314575 -4.015747 -20.62915 -8.1206665 -30.839539 -12.136353c-5.0010376 -2.230957 -9.897858 -4.5511475 -14.898865 -6.7821045c-4.584259 -2.4094238 -9.168518 -4.8188477 -13.752747 -7.2282715c-4.167511 -2.4986572 -8.230835 -4.9973145 -12.294159 -7.585205c-3.438202 -2.5878906 -6.8763733 -5.2650146 -10.314575 -7.9421387c-1.4586487 -1.338623 -2.9172668 -2.677185 -4.375885 -4.1049805c-1.1460571 -1.338562 -2.3963318 -2.7663574 -3.646576 -4.1049194c-0.9376831 -1.4277954 -1.8753662 -2.8555908 -2.8130493 -4.2834473c-0.7293396 -1.4277954 -1.4586487 -2.8555908 -2.1879578 -4.283386c-0.52093506 -1.5170288 -0.9376831 -3.0341187 -1.4586182 -4.461914c-0.20837402 -1.6062622 -0.52093506 -3.2125244 -0.8334961 -4.8188477c-0.10418701 -1.6954956 -0.10418701 -3.3909912 -0.20837402 -5.086548c0 -1.784729 0.10418701 -3.569519 0.20837402 -5.354248c0.6251221 -3.8372192 1.2502441 -7.585205 1.8753662 -11.422424c1.1460571 -4.015747 2.2921143 -8.1206665 3.438202 -12.225586c3.4381714 -8.745361 6.8763733 -17.490662 10.418762 -26.235962c4.375885 -9.102234 8.75177 -18.293762 13.127655 -27.48523c4.480072 -9.191528 21.045898 -44.97589 24.796661 -53.631958c1.3544312 -4.10495 2.7088623 -8.120636 4.063324 -12.225586c0.8334961 -3.7479858 1.7711792 -7.585205 2.6046753 -11.333191c0.31256104 -3.4802856 0.6251221 -6.9605713 0.8334961 -10.440826c-0.10418701 -1.5170593 -0.20837402 -3.1233215 -0.31256104 -4.7296143c-0.20837402 -1.5170288 -0.52093506 -2.9448547 -0.8334961 -4.4618835c-0.52093506 -1.4278259 -0.9376831 -2.766388 -1.4586182 -4.1941833c-0.6251221 -1.338562 -1.2502441 -2.677124 -1.8753967 -4.0157166c-0.7293091 -1.2493286 -1.5628052 -2.4986572 -2.2921143 -3.7479858c-0.9376831 -1.2493286 -1.8753662 -2.4986572 -2.8130798 -3.6587524c-2.1879272 -2.2309265 -4.375885 -4.4618835 -6.6679993 -6.782074c-2.6047058 -1.9632263 -5.209381 -4.015686 -7.918274 -6.0681763c-3.0214233 -1.8739929 -6.042877 -3.7479858 -9.064331 -5.6219788c-3.2297974 -1.6955261 -6.5638123 -3.3910217 -9.79364 -5.086548c-7.0847473 -3.0340881 -14.169525 -6.1574097 -21.254272 -9.191498c-13.856964 -5.3542786 -27.713928 -10.708557 -41.570892 -16.062805c-2.9172363 -1.338562 -5.834503 -2.6771545 -8.75177 -4.0157166c-2.6046753 -1.338562 -5.105194 -2.7663574 -7.7098694 -4.10495c-2.0837708 -1.4277954 -4.271698 -2.9448242 -6.3554688 -4.37265c-0.8334961 -0.7138977 -1.6669922 -1.5170288 -2.5004883 -2.2309265c-0.7293091 -0.8031616 -1.4586182 -1.6062927 -2.1879578 -2.4094238c-0.6251221 -0.8031616 -1.1460571 -1.6955261 -1.7711792 -2.4986572c-0.41674805 -0.8031616 -0.9376831 -1.6955261 -1.4586182 -2.5879211c-0.31256104 -0.8923645 -0.7293091 -1.784729 -1.1460571 -2.677124c-0.31259155 -0.9815979 -0.6251526 -1.8739929 -0.9377136 -2.8556213c-0.31256104 -1.9632263 -0.7293091 -3.9264526 -1.0418701 -5.8004456c-0.10418701 -2.0524597 -0.10418701 -4.10495 -0.20837402 -6.1574097c0.20837402 -2.0524597 0.31256104 -4.10495 0.52093506 -6.1574097c0.31256104 -2.0524597 0.7293091 -4.10495 1.0418701 -6.246643c0.6251526 -1.9632263 1.1460876 -4.0157166 1.6670227 -6.0681763c0.6251221 -1.9632263 1.2502441 -3.9264832 1.8753662 -5.8897095c1.4586182 -3.4802551 2.8130798 -7.049774 4.271698 -10.619293c1.3544312 -2.766388 2.7088928 -5.6219788 3.959137 -8.4776c0.9376831 -1.7847595 1.8753662 -3.569519 2.7088623 -5.3542786c0.10418701 -0.1784668 0.20840454 -0.446167 0.31259155 -0.7138977c0.10418701 -0.1784668 0.20837402 -0.3569336 0.20837402 -0.446167c0 -0.089263916 0 -0.17849731 0 -0.17849731l0 -0.0892334l-0.10418701 0l-0.10418701 0.0892334" fill-rule="evenodd"/><path fill="#073763" d="m262.7811 284.08905l0 0" fill-rule="evenodd"/><path fill="#073763" d="m262.7811 284.08905l0 0" fill-rule="evenodd"/></g></svg>