<svg version="1.1" viewBox="0.0 0.0 800.0 800.0" fill="none" stroke="none" stroke-linecap="square" stroke-miterlimit="10" xmlns:xlink="http://www.w3.org/1999/xlink" xmlns="http://www.w3.org/2000/svg"><clipPath id="p1.0"><path d="m0 0l800.0 0l0 800.0l-800.0 0l0 -800.0z" clip-rule="nonzero"/></clipPath><g clip-path="url(#p1.0)"><path fill="#073763" d="m0 0l800.0 0l0 800.0l-800.0 0z" fill-rule="evenodd"/><path fill="#ffffff" d="m664.5176 336.44946c-10.4696045 10.468903 -20.976929 20.937836 -31.446533 31.44458c-29.216553 -29.214752 -58.395325 -58.429474 -87.61188 -87.606415c10.507385 -10.506714 20.976929 -20.975647 31.446533 -31.44458c9.902649 -9.902023 24.794373 -11.111435 33.22296 -2.7211761c19.049377 19.048172 38.060913 38.09633 57.11023 57.144485c8.390808 8.390259 7.1813354 23.281067 -2.7213135 33.183105zm-133.68561 -41.535583c29.216553 29.17694 58.395325 58.391693 87.61188 87.606415c-69.62079 69.616486 -139.24164 139.23294 -208.90027 208.84946c-0.98269653 0.982605 -3.6284485 3.6281738 -7.3703003 4.573059c-0.41574097 0.2267456 -0.8692932 0.41571045 -1.322876 0.52911377c-36.322266 11.602722 -72.64453 23.167664 -108.9668 34.770447c-3.061493 0.9448242 -6.122986 0.34014893 -8.12619 -1.6629639c-2.0032349 -2.0030518 -2.6079712 -5.064392 -1.6630554 -8.125671c11.565674 -36.320007 23.169159 -72.640015 34.772614 -108.9978c0.15118408 -0.45355225 0.30236816 -0.90704346 0.49136353 -1.3227844c0.98269653 -3.7416077 3.6284485 -6.3871765 4.611145 -7.3320312c13.077545 -13.076721 26.15506 -26.153412 39.232574 -39.267914c-44.22168 0 -88.40558 0 -132.5895 0c-5.3670807 0 -9.675858 -4.3463135 -9.675858 -9.675262c0 -5.3667603 4.308777 -9.713043 9.675858 -9.713043c50.64708 0 101.29414 0 151.97902 0c50.08014 -50.076996 100.16028 -100.15402 150.24039 -150.23102zm-148.19937 289.72852c-17.991058 -17.952148 -35.982117 -35.904236 -53.935364 -53.894165c-4.837921 15.1553955 -9.675873 30.27295 -14.475983 45.390564c7.634857 7.672119 15.307495 15.306519 22.980164 22.978699c15.11853 -4.8376465 30.274841 -9.637451 45.431183 -14.475098zm144.83548 -254.92026c-3.0992432 -3.099121 -8.12616 -3.099121 -11.225464 0c-54.275543 54.272125 -108.551056 108.54425 -162.8266 162.81638c-3.0992737 3.099121 -3.0992737 8.125702 0 11.224823c3.0993042 3.0990906 8.126221 3.0990906 11.225525 0c54.275513 -54.272156 108.551056 -108.54428 162.82654 -162.8164c3.0993042 -3.0990906 3.0993042 -8.125702 0 -11.2247925zm-20.372192 320.5684c-64.06476 0 -128.09174 0 -192.15652 0c-5.8206177 1.8519287 -11.603455 3.6660156 -17.386292 5.5178833c-3.4772644 1.1338501 -7.067932 1.7007446 -10.658569 1.7007446c-7.634857 0 -14.702789 -2.6455688 -20.523407 -7.218628c-33.260773 0 -66.52153 0 -99.7823 0c-5.820633 0 -10.545166 -4.724243 -10.545166 -10.544495c0 -147.81223 0 -295.62442 0 -443.43658c0 -5.8202667 4.724533 -10.54451 10.545166 -10.54451c13.190918 0 26.419632 0 39.61055 0c0 5.55571 0 11.149216 0 16.704926c0 5.8202667 4.7245483 10.544525 10.545181 10.544525c5.858429 0 10.582962 -4.7242584 10.582962 -10.544525c0 -5.55571 0 -11.149216 0 -16.704926c20.221039 0 40.442078 0 60.700897 0c0 5.55571 0 11.149216 0 16.704926c0 5.8202667 4.7245483 10.544525 10.545166 10.544525c5.858429 0 10.582977 -4.7242584 10.582977 -10.544525c0 -5.55571 0 -11.149216 0 -16.704926c17.575287 0 35.150604 0 52.76367 0c0 5.55571 0 11.149216 0 16.704926c0 5.8202667 4.762329 10.544525 10.582977 10.544525c5.820648 0 10.545166 -4.7242584 10.545166 -10.544525c0 -5.55571 0 -11.149216 0 -16.704926c19.351715 0 38.70346 0 58.055176 0c0 5.55571 0 11.149216 0 16.704926c0 5.8202667 4.724518 10.544525 10.545166 10.544525c5.858429 0 10.582977 -4.7242584 10.582977 -10.544525c0 -5.55571 0 -11.149216 0 -16.704926c14.967346 0 29.934692 0 44.864227 0c5.8206177 0 10.545166 4.724243 10.545166 10.54451c0 24.377106 0 48.75421 0 73.13133c3.7040405 -3.703827 7.408081 -7.4076233 11.074341 -11.073639c6.8789062 -6.8785095 13.757874 -13.757004 20.598999 -20.597717c0 -13.832581 0 -27.62738 0 -41.459976c0 -23.281082 -18.935974 -42.21585 -42.218506 -42.21585c-14.929535 0 -29.896881 0 -44.864227 0c0 -8.503647 0 -17.007294 0 -25.510925c0 -5.8580704 -4.7245483 -10.582314 -10.582977 -10.582314c-5.820648 0 -10.545166 4.724243 -10.545166 10.582314c0 8.503632 0 17.007278 0 25.510925c-19.351715 0 -38.70346 0 -58.055176 0c0 -8.503647 0 -17.007294 0 -25.510925c0 -5.8580704 -4.724518 -10.582314 -10.545166 -10.582314c-5.858429 0 -10.582977 4.724243 -10.582977 10.582314c0 8.503632 0 17.007278 0 25.510925c-17.613068 0 -35.226166 0 -52.801453 0c0 -8.503647 0 -17.007294 0 -25.510925c0 -5.8580704 -4.7245483 -10.582314 -10.545197 -10.582314c-5.8206177 0 -10.582947 4.724243 -10.582947 10.582314c0 8.503632 0 17.007278 0 25.510925c-20.25885 0 -40.479874 0 -60.700912 0c0 -8.503647 0 -17.007294 0 -25.510925c0 -5.8580704 -4.724533 -10.582314 -10.545166 -10.582314c-5.858429 0 -10.582977 4.724243 -10.582977 10.582314c0 8.503632 0 17.007278 0 25.510925c-13.190918 0 -26.381836 0 -39.572754 0c-23.282532 0 -42.256294 18.934769 -42.256294 42.21585c0 147.81218 0 295.6244 0 443.43658c0 23.281067 18.973763 42.21582 42.256294 42.21582c113.502365 0 227.00475 0 340.4693 0c23.320312 0 42.256287 -18.934753 42.256287 -42.21582c0 -51.248657 0 -102.49725 0 -153.74588c-10.545166 10.582306 -21.090332 21.126831 -31.67334 31.671356c0 40.7041 0 81.37042 0 122.074524l0 0c0 5.8202515 -4.7245483 10.544495 -10.545166 10.544495zm-71.92639 -369.70056c-68.82712 0 -137.69202 0 -206.55693 0c-5.3670807 0 -9.675858 4.3085327 -9.675858 9.675262c0 5.3667297 4.308777 9.675262 9.675858 9.675262c68.864914 0 137.72981 0 206.55693 0c5.329254 0 9.675842 -4.3085327 9.675842 -9.675262c0 -5.3667297 -4.346588 -9.675262 -9.675842 -9.675262zm0 78.044556c-68.82712 0 -137.69202 0 -206.55693 0c-5.3670807 0 -9.675858 4.346283 -9.675858 9.713043c0 5.328949 4.308777 9.675232 9.675858 9.675232c68.864914 0 137.72981 0 206.55693 0c5.329254 0 9.675842 -4.346283 9.675842 -9.675232c0 -5.3667603 -4.346588 -9.713043 -9.675842 -9.713043z" fill-rule="evenodd"/></g></svg>